# MagicaVoxel @ Ephtracy

# group
o Stage6-1

# material
mtllib stage5_6block-0-Stage6-1.mtl
usemtl palette

# normals
vn -1 0 0
vn 1 0 0
vn 0 0 1
vn 0 0 -1
vn 0 -1 0
vn 0 1 0

# texcoords
vt 0.279297 0.5
vt 0.396484 0.5

# verts
v -12.8 0 12.8
v -12.8 0 -12.8
v -12.8 1.5 12.8
v -12.8 1.5 -12.8
v -12.8 1.6 12.8
v -12.8 1.6 -12.8
v -11.8 0.1 12.7
v -11.8 0.1 11.8
v -11.8 0.1 11.7
v -11.8 0.1 -11.7
v -11.8 0.1 -11.8
v -11.8 0.1 -12.7
v -11.8 1.5 12.7
v -11.8 1.5 11.8
v -11.8 1.5 11.7
v -11.8 1.5 -11.7
v -11.8 1.5 -11.8
v -11.8 1.5 -12.7
v -1.6 0.1 8.6
v -1.6 0.1 1.6
v -1.6 0.1 -1.6
v -1.6 0.1 -8.6
v -1.6 1.5 8.6
v -1.6 1.5 1.6
v -1.6 1.5 -1.6
v -1.6 1.5 -8.6
v 8.6 0.1 8.6
v 8.6 0.1 6.7
v 8.6 0.1 6.6
v 8.6 0.1 3.6
v 8.6 0.1 3.5
v 8.6 0.1 1.6
v 8.6 0.1 -1.6
v 8.6 0.1 -8.6
v 8.6 1.5 8.6
v 8.6 1.5 6.7
v 8.6 1.5 6.6
v 8.6 1.5 3.6
v 8.6 1.5 3.5
v 8.6 1.5 1.6
v 8.6 1.5 -1.6
v 8.6 1.5 -8.6
v 11.7 0.1 12.7
v 11.7 0.1 11.8
v 11.7 0.1 -11.8
v 11.7 0.1 -12.7
v 11.7 1.5 12.7
v 11.7 1.5 11.8
v 11.7 1.5 -11.8
v 11.7 1.5 -12.7
v 12.7 0.1 12.7
v 12.7 0.1 11.8
v 12.7 0.1 11.7
v 12.7 0.1 -11.7
v 12.7 0.1 -11.8
v 12.7 0.1 -12.7
v 12.7 1.5 12.7
v 12.7 1.5 11.8
v 12.7 1.5 11.7
v 12.7 1.5 -11.7
v 12.7 1.5 -11.8
v 12.7 1.5 -12.7
v -12.7 0.1 12.7
v -12.7 0.1 11.8
v -12.7 0.1 11.7
v -12.7 0.1 -11.7
v -12.7 0.1 -11.8
v -12.7 0.1 -12.7
v -12.7 1.5 12.7
v -12.7 1.5 11.8
v -12.7 1.5 11.7
v -12.7 1.5 -11.7
v -12.7 1.5 -11.8
v -12.7 1.5 -12.7
v -11.7 0.1 12.7
v -11.7 0.1 11.8
v -11.7 0.1 -11.8
v -11.7 0.1 -12.7
v -11.7 1.5 12.7
v -11.7 1.5 11.8
v -11.7 1.5 -11.8
v -11.7 1.5 -12.7
v -8.6 0.1 8.6
v -8.6 0.1 1.6
v -8.6 0.1 -1.6
v -8.6 0.1 -8.6
v -8.6 1.5 8.6
v -8.6 1.5 1.6
v -8.6 1.5 -1.6
v -8.6 1.5 -8.6
v 1.6 0.1 8.6
v 1.6 0.1 6.7
v 1.6 0.1 3.5
v 1.6 0.1 1.6
v 1.6 0.1 -1.6
v 1.6 0.1 -8.6
v 1.6 1.5 8.6
v 1.6 1.5 6.7
v 1.6 1.5 3.5
v 1.6 1.5 1.6
v 1.6 1.5 -1.6
v 1.6 1.5 -8.6
v 6.7 0.1 6.6
v 6.7 0.1 3.6
v 6.7 1.5 6.6
v 6.7 1.5 3.6
v 11.8 0.1 12.7
v 11.8 0.1 11.8
v 11.8 0.1 11.7
v 11.8 0.1 -11.7
v 11.8 0.1 -11.8
v 11.8 0.1 -12.7
v 11.8 1.5 12.7
v 11.8 1.5 11.8
v 11.8 1.5 11.7
v 11.8 1.5 -11.7
v 11.8 1.5 -11.8
v 11.8 1.5 -12.7
v 12.8 0 12.8
v 12.8 0 -12.8
v 12.8 1.5 12.8
v 12.8 1.5 -12.8
v 12.8 1.6 12.8
v 12.8 1.6 -12.8
v -12.8 0 12.8
v -12.8 1.5 12.8
v -12.8 1.6 12.8
v 12.8 0 12.8
v 12.8 1.5 12.8
v 12.8 1.6 12.8
v -12.7 0.1 11.8
v -12.7 1.5 11.8
v -11.8 0.1 11.8
v -11.8 1.5 11.8
v -11.7 0.1 11.8
v -11.7 1.5 11.8
v 11.7 0.1 11.8
v 11.7 1.5 11.8
v 11.8 0.1 11.8
v 11.8 1.5 11.8
v 12.7 0.1 11.8
v 12.7 1.5 11.8
v 1.6 0.1 6.7
v 1.6 1.5 6.7
v 8.6 0.1 6.7
v 8.6 1.5 6.7
v 6.7 0.1 3.6
v 6.7 1.5 3.6
v 8.6 0.1 3.6
v 8.6 1.5 3.6
v -8.6 0.1 1.6
v -8.6 1.5 1.6
v -1.6 0.1 1.6
v -1.6 1.5 1.6
v 1.6 0.1 1.6
v 1.6 1.5 1.6
v 8.6 0.1 1.6
v 8.6 1.5 1.6
v -8.6 0.1 -8.6
v -8.6 1.5 -8.6
v -1.6 0.1 -8.6
v -1.6 1.5 -8.6
v 1.6 0.1 -8.6
v 1.6 1.5 -8.6
v 8.6 0.1 -8.6
v 8.6 1.5 -8.6
v -12.7 0.1 -11.7
v -12.7 1.5 -11.7
v -11.8 0.1 -11.7
v -11.8 1.5 -11.7
v 11.8 0.1 -11.7
v 11.8 1.5 -11.7
v 12.7 0.1 -11.7
v 12.7 1.5 -11.7
v -12.7 0.1 -12.7
v -12.7 1.5 -12.7
v -11.8 0.1 -12.7
v -11.8 1.5 -12.7
v -11.7 0.1 -12.7
v -11.7 1.5 -12.7
v 11.7 0.1 -12.7
v 11.7 1.5 -12.7
v 11.8 0.1 -12.7
v 11.8 1.5 -12.7
v 12.7 0.1 -12.7
v 12.7 1.5 -12.7
v -12.7 0.1 12.7
v -12.7 1.5 12.7
v -11.8 0.1 12.7
v -11.8 1.5 12.7
v -11.7 0.1 12.7
v -11.7 1.5 12.7
v 11.7 0.1 12.7
v 11.7 1.5 12.7
v 11.8 0.1 12.7
v 11.8 1.5 12.7
v 12.7 0.1 12.7
v 12.7 1.5 12.7
v -12.7 0.1 11.7
v -12.7 1.5 11.7
v -11.8 0.1 11.7
v -11.8 1.5 11.7
v 11.8 0.1 11.7
v 11.8 1.5 11.7
v 12.7 0.1 11.7
v 12.7 1.5 11.7
v -8.6 0.1 8.6
v -8.6 1.5 8.6
v -1.6 0.1 8.6
v -1.6 1.5 8.6
v 1.6 0.1 8.6
v 1.6 1.5 8.6
v 8.6 0.1 8.6
v 8.6 1.5 8.6
v 6.7 0.1 6.6
v 6.7 1.5 6.6
v 8.6 0.1 6.6
v 8.6 1.5 6.6
v 1.6 0.1 3.5
v 1.6 1.5 3.5
v 8.6 0.1 3.5
v 8.6 1.5 3.5
v -8.6 0.1 -1.6
v -8.6 1.5 -1.6
v -1.6 0.1 -1.6
v -1.6 1.5 -1.6
v 1.6 0.1 -1.6
v 1.6 1.5 -1.6
v 8.6 0.1 -1.6
v 8.6 1.5 -1.6
v -12.7 0.1 -11.8
v -12.7 1.5 -11.8
v -11.8 0.1 -11.8
v -11.8 1.5 -11.8
v -11.7 0.1 -11.8
v -11.7 1.5 -11.8
v 11.7 0.1 -11.8
v 11.7 1.5 -11.8
v 11.8 0.1 -11.8
v 11.8 1.5 -11.8
v 12.7 0.1 -11.8
v 12.7 1.5 -11.8
v -12.8 0 -12.8
v -12.8 1.5 -12.8
v -12.8 1.6 -12.8
v 12.8 0 -12.8
v 12.8 1.5 -12.8
v 12.8 1.6 -12.8
v -12.8 0 12.8
v 12.8 0 12.8
v -12.8 0 -12.8
v 12.8 0 -12.8
v -12.7 1.5 12.7
v -11.8 1.5 12.7
v -11.7 1.5 12.7
v 11.7 1.5 12.7
v 11.8 1.5 12.7
v 12.7 1.5 12.7
v -12.7 1.5 11.8
v -11.8 1.5 11.8
v -11.7 1.5 11.8
v 11.7 1.5 11.8
v 11.8 1.5 11.8
v 12.7 1.5 11.8
v -12.7 1.5 11.7
v -11.8 1.5 11.7
v 11.8 1.5 11.7
v 12.7 1.5 11.7
v -8.6 1.5 8.6
v -1.6 1.5 8.6
v 1.6 1.5 8.6
v 8.6 1.5 8.6
v 1.6 1.5 6.7
v 8.6 1.5 6.7
v 6.7 1.5 6.6
v 8.6 1.5 6.6
v 6.7 1.5 3.6
v 8.6 1.5 3.6
v 1.6 1.5 3.5
v 8.6 1.5 3.5
v -8.6 1.5 1.6
v -1.6 1.5 1.6
v 1.6 1.5 1.6
v 8.6 1.5 1.6
v -8.6 1.5 -1.6
v -1.6 1.5 -1.6
v 1.6 1.5 -1.6
v 8.6 1.5 -1.6
v -8.6 1.5 -8.6
v -1.6 1.5 -8.6
v 1.6 1.5 -8.6
v 8.6 1.5 -8.6
v -12.7 1.5 -11.7
v -11.8 1.5 -11.7
v 11.8 1.5 -11.7
v 12.7 1.5 -11.7
v -12.7 1.5 -11.8
v -11.8 1.5 -11.8
v -11.7 1.5 -11.8
v 11.7 1.5 -11.8
v 11.8 1.5 -11.8
v 12.7 1.5 -11.8
v -12.7 1.5 -12.7
v -11.8 1.5 -12.7
v -11.7 1.5 -12.7
v 11.7 1.5 -12.7
v 11.8 1.5 -12.7
v 12.7 1.5 -12.7
v -12.7 0.1 12.7
v -11.8 0.1 12.7
v -11.7 0.1 12.7
v 11.7 0.1 12.7
v 11.8 0.1 12.7
v 12.7 0.1 12.7
v -12.7 0.1 11.8
v -11.8 0.1 11.8
v -11.7 0.1 11.8
v 11.7 0.1 11.8
v 11.8 0.1 11.8
v 12.7 0.1 11.8
v -12.7 0.1 11.7
v -11.8 0.1 11.7
v 11.8 0.1 11.7
v 12.7 0.1 11.7
v -8.6 0.1 8.6
v -1.6 0.1 8.6
v 1.6 0.1 8.6
v 8.6 0.1 8.6
v 1.6 0.1 6.7
v 8.6 0.1 6.7
v 6.7 0.1 6.6
v 8.6 0.1 6.6
v 6.7 0.1 3.6
v 8.6 0.1 3.6
v 1.6 0.1 3.5
v 8.6 0.1 3.5
v -8.6 0.1 1.6
v -1.6 0.1 1.6
v 1.6 0.1 1.6
v 8.6 0.1 1.6
v -8.6 0.1 -1.6
v -1.6 0.1 -1.6
v 1.6 0.1 -1.6
v 8.6 0.1 -1.6
v -8.6 0.1 -8.6
v -1.6 0.1 -8.6
v 1.6 0.1 -8.6
v 8.6 0.1 -8.6
v -12.7 0.1 -11.7
v -11.8 0.1 -11.7
v 11.8 0.1 -11.7
v 12.7 0.1 -11.7
v -12.7 0.1 -11.8
v -11.8 0.1 -11.8
v -11.7 0.1 -11.8
v 11.7 0.1 -11.8
v 11.8 0.1 -11.8
v 12.7 0.1 -11.8
v -12.7 0.1 -12.7
v -11.8 0.1 -12.7
v -11.7 0.1 -12.7
v 11.7 0.1 -12.7
v 11.8 0.1 -12.7
v 12.7 0.1 -12.7
v -12.8 1.6 12.8
v 12.8 1.6 12.8
v -12.8 1.6 -12.8
v 12.8 1.6 -12.8

# faces
f 3/2/1 2/2/1 1/2/1
f 4/2/1 2/2/1 3/2/1
f 5/1/1 4/1/1 3/1/1
f 6/1/1 4/1/1 5/1/1
f 13/2/1 8/2/1 7/2/1
f 14/2/1 8/2/1 13/2/1
f 15/2/1 10/2/1 9/2/1
f 16/2/1 10/2/1 15/2/1
f 17/2/1 12/2/1 11/2/1
f 18/2/1 12/2/1 17/2/1
f 23/2/1 20/2/1 19/2/1
f 24/2/1 20/2/1 23/2/1
f 25/2/1 22/2/1 21/2/1
f 26/2/1 22/2/1 25/2/1
f 35/2/1 28/2/1 27/2/1
f 36/2/1 28/2/1 35/2/1
f 37/2/1 30/2/1 29/2/1
f 38/2/1 30/2/1 37/2/1
f 39/2/1 32/2/1 31/2/1
f 40/2/1 32/2/1 39/2/1
f 41/2/1 34/2/1 33/2/1
f 42/2/1 34/2/1 41/2/1
f 47/2/1 44/2/1 43/2/1
f 48/2/1 44/2/1 47/2/1
f 49/2/1 46/2/1 45/2/1
f 50/2/1 46/2/1 49/2/1
f 57/2/1 52/2/1 51/2/1
f 58/2/1 52/2/1 57/2/1
f 59/2/1 54/2/1 53/2/1
f 60/2/1 54/2/1 59/2/1
f 61/2/1 56/2/1 55/2/1
f 62/2/1 56/2/1 61/2/1
f 63/2/2 64/2/2 69/2/2
f 69/2/2 64/2/2 70/2/2
f 65/2/2 66/2/2 71/2/2
f 71/2/2 66/2/2 72/2/2
f 67/2/2 68/2/2 73/2/2
f 73/2/2 68/2/2 74/2/2
f 75/2/2 76/2/2 79/2/2
f 79/2/2 76/2/2 80/2/2
f 77/2/2 78/2/2 81/2/2
f 81/2/2 78/2/2 82/2/2
f 83/2/2 84/2/2 87/2/2
f 87/2/2 84/2/2 88/2/2
f 85/2/2 86/2/2 89/2/2
f 89/2/2 86/2/2 90/2/2
f 91/2/2 92/2/2 97/2/2
f 97/2/2 92/2/2 98/2/2
f 93/2/2 94/2/2 99/2/2
f 99/2/2 94/2/2 100/2/2
f 95/2/2 96/2/2 101/2/2
f 101/2/2 96/2/2 102/2/2
f 103/2/2 104/2/2 105/2/2
f 105/2/2 104/2/2 106/2/2
f 107/2/2 108/2/2 113/2/2
f 113/2/2 108/2/2 114/2/2
f 109/2/2 110/2/2 115/2/2
f 115/2/2 110/2/2 116/2/2
f 111/2/2 112/2/2 117/2/2
f 117/2/2 112/2/2 118/2/2
f 119/2/2 120/2/2 121/2/2
f 121/2/2 120/2/2 122/2/2
f 121/1/2 122/1/2 123/1/2
f 123/1/2 122/1/2 124/1/2
f 128/2/3 126/2/3 125/2/3
f 129/1/3 127/1/3 126/1/3
f 129/2/3 126/2/3 128/2/3
f 130/1/3 127/1/3 129/1/3
f 133/2/3 132/2/3 131/2/3
f 134/2/3 132/2/3 133/2/3
f 137/2/3 136/2/3 135/2/3
f 138/2/3 136/2/3 137/2/3
f 141/2/3 140/2/3 139/2/3
f 142/2/3 140/2/3 141/2/3
f 145/2/3 144/2/3 143/2/3
f 146/2/3 144/2/3 145/2/3
f 149/2/3 148/2/3 147/2/3
f 150/2/3 148/2/3 149/2/3
f 153/2/3 152/2/3 151/2/3
f 154/2/3 152/2/3 153/2/3
f 157/2/3 156/2/3 155/2/3
f 158/2/3 156/2/3 157/2/3
f 161/2/3 160/2/3 159/2/3
f 162/2/3 160/2/3 161/2/3
f 165/2/3 164/2/3 163/2/3
f 166/2/3 164/2/3 165/2/3
f 169/2/3 168/2/3 167/2/3
f 170/2/3 168/2/3 169/2/3
f 173/2/3 172/2/3 171/2/3
f 174/2/3 172/2/3 173/2/3
f 177/2/3 176/2/3 175/2/3
f 178/2/3 176/2/3 177/2/3
f 181/2/3 180/2/3 179/2/3
f 182/2/3 180/2/3 181/2/3
f 185/2/3 184/2/3 183/2/3
f 186/2/3 184/2/3 185/2/3
f 187/2/4 188/2/4 189/2/4
f 189/2/4 188/2/4 190/2/4
f 191/2/4 192/2/4 193/2/4
f 193/2/4 192/2/4 194/2/4
f 195/2/4 196/2/4 197/2/4
f 197/2/4 196/2/4 198/2/4
f 199/2/4 200/2/4 201/2/4
f 201/2/4 200/2/4 202/2/4
f 203/2/4 204/2/4 205/2/4
f 205/2/4 204/2/4 206/2/4
f 207/2/4 208/2/4 209/2/4
f 209/2/4 208/2/4 210/2/4
f 211/2/4 212/2/4 213/2/4
f 213/2/4 212/2/4 214/2/4
f 215/2/4 216/2/4 217/2/4
f 217/2/4 216/2/4 218/2/4
f 219/2/4 220/2/4 221/2/4
f 221/2/4 220/2/4 222/2/4
f 223/2/4 224/2/4 225/2/4
f 225/2/4 224/2/4 226/2/4
f 227/2/4 228/2/4 229/2/4
f 229/2/4 228/2/4 230/2/4
f 231/2/4 232/2/4 233/2/4
f 233/2/4 232/2/4 234/2/4
f 235/2/4 236/2/4 237/2/4
f 237/2/4 236/2/4 238/2/4
f 239/2/4 240/2/4 241/2/4
f 241/2/4 240/2/4 242/2/4
f 243/2/4 244/2/4 246/2/4
f 244/1/4 245/1/4 247/1/4
f 246/2/4 244/2/4 247/2/4
f 247/1/4 245/1/4 248/1/4
f 251/2/5 250/2/5 249/2/5
f 252/2/5 250/2/5 251/2/5
f 259/1/5 254/1/5 253/1/5
f 260/1/5 254/1/5 259/1/5
f 261/1/5 256/1/5 255/1/5
f 262/1/5 256/1/5 261/1/5
f 263/1/5 258/1/5 257/1/5
f 264/1/5 258/1/5 263/1/5
f 273/1/5 272/1/5 271/1/5
f 274/1/5 272/1/5 273/1/5
f 277/1/5 276/1/5 275/1/5
f 278/1/5 276/1/5 277/1/5
f 281/1/5 270/1/5 269/1/5
f 282/1/5 270/1/5 281/1/5
f 283/1/5 280/1/5 279/1/5
f 284/1/5 280/1/5 283/1/5
f 289/1/5 286/1/5 285/1/5
f 290/1/5 286/1/5 289/1/5
f 291/1/5 288/1/5 287/1/5
f 292/1/5 288/1/5 291/1/5
f 293/1/5 266/1/5 265/1/5
f 294/1/5 266/1/5 293/1/5
f 295/1/5 268/1/5 267/1/5
f 296/1/5 268/1/5 295/1/5
f 303/1/5 298/1/5 297/1/5
f 304/1/5 298/1/5 303/1/5
f 305/1/5 300/1/5 299/1/5
f 306/1/5 300/1/5 305/1/5
f 307/1/5 302/1/5 301/1/5
f 308/1/5 302/1/5 307/1/5
f 309/2/6 310/2/6 315/2/6
f 315/2/6 310/2/6 316/2/6
f 311/2/6 312/2/6 317/2/6
f 317/2/6 312/2/6 318/2/6
f 313/2/6 314/2/6 319/2/6
f 319/2/6 314/2/6 320/2/6
f 327/2/6 328/2/6 329/2/6
f 329/2/6 328/2/6 330/2/6
f 331/2/6 332/2/6 333/2/6
f 333/2/6 332/2/6 334/2/6
f 325/2/6 326/2/6 337/2/6
f 337/2/6 326/2/6 338/2/6
f 335/2/6 336/2/6 339/2/6
f 339/2/6 336/2/6 340/2/6
f 341/2/6 342/2/6 345/2/6
f 345/2/6 342/2/6 346/2/6
f 343/2/6 344/2/6 347/2/6
f 347/2/6 344/2/6 348/2/6
f 321/2/6 322/2/6 349/2/6
f 349/2/6 322/2/6 350/2/6
f 323/2/6 324/2/6 351/2/6
f 351/2/6 324/2/6 352/2/6
f 353/2/6 354/2/6 359/2/6
f 359/2/6 354/2/6 360/2/6
f 355/2/6 356/2/6 361/2/6
f 361/2/6 356/2/6 362/2/6
f 357/2/6 358/2/6 363/2/6
f 363/2/6 358/2/6 364/2/6
f 365/1/6 366/1/6 367/1/6
f 367/1/6 366/1/6 368/1/6
