# MagicaVoxel @ Ephtracy

# group
o Game2

# material
mtllib stage1-1-0-Game2.mtl
usemtl palette

# normals
vn -1 0 0
vn 1 0 0
vn 0 0 1
vn 0 0 -1
vn 0 -1 0
vn 0 1 0

# texcoords
vt 0.373047 0.5
vt 0.896484 0.5

# verts
v -10 0 10
v -10 0 -10
v -10 0.7 10
v -10 0.7 -10
v -10 0.8 10
v -10 0.8 -10
v -2.3 0 -1.2
v -2.3 0 -2.1
v -2.3 0.7 -1.2
v -2.3 0.7 -2.1
v -2.2 0 2
v -2.2 0 1.3
v -2.2 0.7 2
v -2.2 0.7 1.3
v -2.2 0.7 -1.4
v -2.2 0.7 -2.2
v -2.2 0.8 -1.4
v -2.2 0.8 -2.2
v -2.1 0.7 2.1
v -2.1 0.7 1.5
v -2.1 0.8 2.1
v -2.1 0.8 1.5
v 6.1 0 2.9
v 6.1 0 0.8
v 6.1 0 -0.8
v 6.1 0 -2.9
v 6.1 0.7 2.9
v 6.1 0.7 0.8
v 6.1 0.7 -0.8
v 6.1 0.7 -2.9
v 6.2 0.7 3
v 6.2 0.7 0.8
v 6.2 0.7 -0.8
v 6.2 0.7 -3
v 6.2 0.8 3
v 6.2 0.8 0.8
v 6.2 0.8 -0.8
v 6.2 0.8 -3
v -5.7 0.7 2.1
v -5.7 0.7 -2.2
v -5.7 0.8 2.1
v -5.7 0.8 -2.2
v -5.6 0 2
v -5.6 0 -2.1
v -5.6 0.7 2
v -5.6 0.7 -2.1
v 0.3 0.7 3
v 0.3 0.7 1.5
v 0.3 0.7 -1.4
v 0.3 0.7 -3
v 0.3 0.8 3
v 0.3 0.8 1.5
v 0.3 0.8 -1.4
v 0.3 0.8 -3
v 0.4 0 2.9
v 0.4 0 1.3
v 0.4 0 -1.2
v 0.4 0 -2.9
v 0.4 0.7 2.9
v 0.4 0.7 1.3
v 0.4 0.7 -1.2
v 0.4 0.7 -2.9
v 10 0 10
v 10 0 0.8
v 10 0 -0.8
v 10 0 -10
v 10 0.7 10
v 10 0.7 0.8
v 10 0.7 -0.8
v 10 0.7 -10
v 10 0.8 10
v 10 0.8 0.8
v 10 0.8 -0.8
v 10 0.8 -10
v -10 0 10
v -10 0.7 10
v -10 0.8 10
v 10 0 10
v 10 0.7 10
v 10 0.8 10
v 6.1 0 -0.8
v 6.1 0.7 -0.8
v 6.2 0.7 -0.8
v 6.2 0.8 -0.8
v 10 0 -0.8
v 10 0.7 -0.8
v 10 0.8 -0.8
v -2.3 0 -1.2
v -2.3 0.7 -1.2
v 0.4 0 -1.2
v 0.4 0.7 -1.2
v -2.2 0.7 -1.4
v -2.2 0.8 -1.4
v 0.3 0.7 -1.4
v 0.3 0.8 -1.4
v -5.6 0 -2.1
v -5.6 0.7 -2.1
v -2.3 0 -2.1
v -2.3 0.7 -2.1
v -5.7 0.7 -2.2
v -5.7 0.8 -2.2
v -2.2 0.7 -2.2
v -2.2 0.8 -2.2
v 0.4 0 -2.9
v 0.4 0.7 -2.9
v 6.1 0 -2.9
v 6.1 0.7 -2.9
v 0.3 0.7 -3
v 0.3 0.8 -3
v 6.2 0.7 -3
v 6.2 0.8 -3
v 0.3 0.7 3
v 0.3 0.8 3
v 6.2 0.7 3
v 6.2 0.8 3
v 0.4 0 2.9
v 0.4 0.7 2.9
v 6.1 0 2.9
v 6.1 0.7 2.9
v -5.7 0.7 2.1
v -5.7 0.8 2.1
v -2.1 0.7 2.1
v -2.1 0.8 2.1
v -5.6 0 2
v -5.6 0.7 2
v -2.2 0 2
v -2.2 0.7 2
v -2.1 0.7 1.5
v -2.1 0.8 1.5
v 0.3 0.7 1.5
v 0.3 0.8 1.5
v -2.2 0 1.3
v -2.2 0.7 1.3
v 0.4 0 1.3
v 0.4 0.7 1.3
v 6.1 0 0.8
v 6.1 0.7 0.8
v 6.2 0.7 0.8
v 6.2 0.8 0.8
v 10 0 0.8
v 10 0.7 0.8
v 10 0.8 0.8
v -10 0 -10
v -10 0.7 -10
v -10 0.8 -10
v 10 0 -10
v 10 0.7 -10
v 10 0.8 -10
v -10 0 10
v 10 0 10
v 0.4 0 2.9
v 6.1 0 2.9
v -5.6 0 2
v -2.2 0 2
v -2.2 0 1.3
v 0.4 0 1.3
v 6.1 0 0.8
v 10 0 0.8
v 6.1 0 -0.8
v 10 0 -0.8
v -2.3 0 -1.2
v 0.4 0 -1.2
v -5.6 0 -2.1
v -2.3 0 -2.1
v 0.4 0 -2.9
v 6.1 0 -2.9
v -10 0 -10
v 10 0 -10
v 0.3 0.7 3
v 6.2 0.7 3
v 0.4 0.7 2.9
v 6.1 0.7 2.9
v -5.7 0.7 2.1
v -2.1 0.7 2.1
v -5.6 0.7 2
v -2.2 0.7 2
v -2.1 0.7 1.5
v 0.3 0.7 1.5
v -2.2 0.7 1.3
v 0.4 0.7 1.3
v 6.1 0.7 0.8
v 6.2 0.7 0.8
v 6.1 0.7 -0.8
v 6.2 0.7 -0.8
v -2.3 0.7 -1.2
v 0.4 0.7 -1.2
v -2.2 0.7 -1.4
v 0.3 0.7 -1.4
v -5.6 0.7 -2.1
v -2.3 0.7 -2.1
v -5.7 0.7 -2.2
v -2.2 0.7 -2.2
v 0.4 0.7 -2.9
v 6.1 0.7 -2.9
v 0.3 0.7 -3
v 6.2 0.7 -3
v -10 0.8 10
v 10 0.8 10
v 0.3 0.8 3
v 6.2 0.8 3
v -5.7 0.8 2.1
v -2.1 0.8 2.1
v -2.1 0.8 1.5
v 0.3 0.8 1.5
v 6.2 0.8 0.8
v 10 0.8 0.8
v 6.2 0.8 -0.8
v 10 0.8 -0.8
v -2.2 0.8 -1.4
v 0.3 0.8 -1.4
v -5.7 0.8 -2.2
v -2.2 0.8 -2.2
v 0.3 0.8 -3
v 6.2 0.8 -3
v -10 0.8 -10
v 10 0.8 -10

# faces
f 3/1/1 2/1/1 1/1/1
f 4/1/1 2/1/1 3/1/1
f 5/2/1 4/2/1 3/2/1
f 6/2/1 4/2/1 5/2/1
f 9/1/1 8/1/1 7/1/1
f 10/1/1 8/1/1 9/1/1
f 13/1/1 12/1/1 11/1/1
f 14/1/1 12/1/1 13/1/1
f 17/2/1 16/2/1 15/2/1
f 18/2/1 16/2/1 17/2/1
f 21/2/1 20/2/1 19/2/1
f 22/2/1 20/2/1 21/2/1
f 27/1/1 24/1/1 23/1/1
f 28/1/1 24/1/1 27/1/1
f 29/1/1 26/1/1 25/1/1
f 30/1/1 26/1/1 29/1/1
f 35/2/1 32/2/1 31/2/1
f 36/2/1 32/2/1 35/2/1
f 37/2/1 34/2/1 33/2/1
f 38/2/1 34/2/1 37/2/1
f 39/2/2 40/2/2 41/2/2
f 41/2/2 40/2/2 42/2/2
f 43/1/2 44/1/2 45/1/2
f 45/1/2 44/1/2 46/1/2
f 47/2/2 48/2/2 51/2/2
f 51/2/2 48/2/2 52/2/2
f 49/2/2 50/2/2 53/2/2
f 53/2/2 50/2/2 54/2/2
f 55/1/2 56/1/2 59/1/2
f 59/1/2 56/1/2 60/1/2
f 57/1/2 58/1/2 61/1/2
f 61/1/2 58/1/2 62/1/2
f 63/1/2 64/1/2 67/1/2
f 67/1/2 64/1/2 68/1/2
f 65/1/2 66/1/2 69/1/2
f 69/1/2 66/1/2 70/1/2
f 67/2/2 68/2/2 71/2/2
f 71/2/2 68/2/2 72/2/2
f 69/2/2 70/2/2 73/2/2
f 73/2/2 70/2/2 74/2/2
f 78/1/3 76/1/3 75/1/3
f 79/2/3 77/2/3 76/2/3
f 79/1/3 76/1/3 78/1/3
f 80/2/3 77/2/3 79/2/3
f 83/1/3 82/1/3 81/1/3
f 85/1/3 83/1/3 81/1/3
f 86/2/3 84/2/3 83/2/3
f 86/1/3 83/1/3 85/1/3
f 87/2/3 84/2/3 86/2/3
f 90/1/3 89/1/3 88/1/3
f 91/1/3 89/1/3 90/1/3
f 94/2/3 93/2/3 92/2/3
f 95/2/3 93/2/3 94/2/3
f 98/1/3 97/1/3 96/1/3
f 99/1/3 97/1/3 98/1/3
f 102/2/3 101/2/3 100/2/3
f 103/2/3 101/2/3 102/2/3
f 106/1/3 105/1/3 104/1/3
f 107/1/3 105/1/3 106/1/3
f 110/2/3 109/2/3 108/2/3
f 111/2/3 109/2/3 110/2/3
f 112/2/4 113/2/4 114/2/4
f 114/2/4 113/2/4 115/2/4
f 116/1/4 117/1/4 118/1/4
f 118/1/4 117/1/4 119/1/4
f 120/2/4 121/2/4 122/2/4
f 122/2/4 121/2/4 123/2/4
f 124/1/4 125/1/4 126/1/4
f 126/1/4 125/1/4 127/1/4
f 128/2/4 129/2/4 130/2/4
f 130/2/4 129/2/4 131/2/4
f 132/1/4 133/1/4 134/1/4
f 134/1/4 133/1/4 135/1/4
f 136/1/4 137/1/4 138/1/4
f 136/1/4 138/1/4 140/1/4
f 138/2/4 139/2/4 141/2/4
f 140/1/4 138/1/4 141/1/4
f 141/2/4 139/2/4 142/2/4
f 143/1/4 144/1/4 146/1/4
f 144/2/4 145/2/4 147/2/4
f 146/1/4 144/1/4 147/1/4
f 147/2/4 145/2/4 148/2/4
f 151/1/5 150/1/5 149/1/5
f 152/1/5 150/1/5 151/1/5
f 153/1/5 151/1/5 149/1/5
f 154/1/5 151/1/5 153/1/5
f 155/1/5 151/1/5 154/1/5
f 156/1/5 151/1/5 155/1/5
f 157/1/5 150/1/5 152/1/5
f 158/1/5 150/1/5 157/1/5
f 163/1/5 153/1/5 149/1/5
f 164/1/5 162/1/5 161/1/5
f 165/1/5 162/1/5 164/1/5
f 165/1/5 164/1/5 163/1/5
f 166/1/5 160/1/5 159/1/5
f 167/1/5 163/1/5 149/1/5
f 167/1/5 166/1/5 165/1/5
f 167/1/5 165/1/5 163/1/5
f 168/1/5 160/1/5 166/1/5
f 168/1/5 166/1/5 167/1/5
f 169/1/6 170/1/6 171/1/6
f 171/1/6 170/1/6 172/1/6
f 173/1/6 174/1/6 175/1/6
f 175/1/6 174/1/6 176/1/6
f 176/1/6 174/1/6 177/1/6
f 169/1/6 171/1/6 178/1/6
f 176/1/6 177/1/6 179/1/6
f 177/1/6 178/1/6 179/1/6
f 178/1/6 171/1/6 180/1/6
f 179/1/6 178/1/6 180/1/6
f 172/1/6 170/1/6 181/1/6
f 181/1/6 170/1/6 182/1/6
f 185/1/6 186/1/6 187/1/6
f 187/1/6 186/1/6 188/1/6
f 173/1/6 175/1/6 189/1/6
f 185/1/6 187/1/6 190/1/6
f 173/1/6 189/1/6 191/1/6
f 189/1/6 190/1/6 191/1/6
f 190/1/6 187/1/6 192/1/6
f 191/1/6 190/1/6 192/1/6
f 188/1/6 186/1/6 193/1/6
f 183/1/6 184/1/6 194/1/6
f 188/1/6 193/1/6 195/1/6
f 193/1/6 194/1/6 195/1/6
f 194/1/6 184/1/6 196/1/6
f 195/1/6 194/1/6 196/1/6
f 197/2/6 198/2/6 199/2/6
f 199/2/6 198/2/6 200/2/6
f 197/2/6 199/2/6 201/2/6
f 201/2/6 199/2/6 202/2/6
f 202/2/6 199/2/6 203/2/6
f 203/2/6 199/2/6 204/2/6
f 200/2/6 198/2/6 205/2/6
f 205/2/6 198/2/6 206/2/6
f 197/2/6 201/2/6 211/2/6
f 209/2/6 210/2/6 212/2/6
f 212/2/6 210/2/6 213/2/6
f 211/2/6 212/2/6 213/2/6
f 207/2/6 208/2/6 214/2/6
f 197/2/6 211/2/6 215/2/6
f 213/2/6 214/2/6 215/2/6
f 211/2/6 213/2/6 215/2/6
f 214/2/6 208/2/6 216/2/6
f 215/2/6 214/2/6 216/2/6
