# MagicaVoxel @ Ephtracy

# group
o 

# material
mtllib Flower.mtl
usemtl palette

# normals
vn -1 0 0
vn 1 0 0
vn 0 0 1
vn 0 0 -1
vn 0 -1 0
vn 0 1 0

# texcoords
vt 0.0175781 0.5
vt 0.888672 0.5
vt 0.958984 0.5

# verts
v -0.5 0.3 0.4
v -0.5 0.3 0.3
v -0.5 0.4 0.4
v -0.5 0.4 0.3
v -0.4 0 0.4
v -0.4 0 0.3
v -0.4 0.3 0.5
v -0.4 0.3 0.4
v -0.4 0.3 0.3
v -0.4 0.3 0.2
v -0.4 0.4 0.5
v -0.4 0.4 0.4
v -0.4 0.4 0.3
v -0.4 0.4 0.2
v -0.2 0.2 0.6
v -0.2 0.2 0.5
v -0.2 0.3 0.6
v -0.2 0.3 0.5
v -0.1 0 0.6
v -0.1 0 0.5
v -0.1 0.2 0.7
v -0.1 0.2 0.6
v -0.1 0.2 0.5
v -0.1 0.2 0.4
v -0.1 0.3 0.7
v -0.1 0.3 0.6
v -0.1 0.3 0.5
v -0.1 0.3 0.4
v -0.1 0.3 0.3
v -0.1 0.3 0.2
v -0.1 0.4 0.3
v -0.1 0.4 0.2
v 0 0 0.3
v 0 0 0.2
v 0 0.3 0.4
v 0 0.3 0.3
v 0 0.3 0.2
v 0 0.3 0.1
v 0 0.4 0.4
v 0 0.4 0.3
v 0 0.4 0.2
v 0 0.4 0.1
v -0.3 0 0.4
v -0.3 0 0.3
v -0.3 0.3 0.5
v -0.3 0.3 0.4
v -0.3 0.3 0.3
v -0.3 0.3 0.2
v -0.3 0.4 0.5
v -0.3 0.4 0.4
v -0.3 0.4 0.3
v -0.3 0.4 0.2
v -0.2 0.3 0.4
v -0.2 0.3 0.3
v -0.2 0.4 0.4
v -0.2 0.4 0.3
v 0 0 0.6
v 0 0 0.5
v 0 0.2 0.7
v 0 0.2 0.6
v 0 0.2 0.5
v 0 0.2 0.4
v 0 0.3 0.7
v 0 0.3 0.6
v 0 0.3 0.5
v 0 0.3 0.4
v 0.1 0 0.3
v 0.1 0 0.2
v 0.1 0.2 0.6
v 0.1 0.2 0.5
v 0.1 0.3 0.6
v 0.1 0.3 0.5
v 0.1 0.3 0.4
v 0.1 0.3 0.3
v 0.1 0.3 0.2
v 0.1 0.3 0.1
v 0.1 0.4 0.4
v 0.1 0.4 0.3
v 0.1 0.4 0.2
v 0.1 0.4 0.1
v 0.2 0.3 0.3
v 0.2 0.3 0.2
v 0.2 0.4 0.3
v 0.2 0.4 0.2
v -0.1 0.2 0.7
v -0.1 0.3 0.7
v 0 0.2 0.7
v 0 0.3 0.7
v -0.2 0.2 0.6
v -0.2 0.3 0.6
v -0.1 0 0.6
v -0.1 0.2 0.6
v -0.1 0.3 0.6
v 0 0 0.6
v 0 0.2 0.6
v 0 0.3 0.6
v 0.1 0.2 0.6
v 0.1 0.3 0.6
v -0.4 0.3 0.5
v -0.4 0.4 0.5
v -0.3 0.3 0.5
v -0.3 0.4 0.5
v -0.5 0.3 0.4
v -0.5 0.4 0.4
v -0.4 0 0.4
v -0.4 0.3 0.4
v -0.4 0.4 0.4
v -0.3 0 0.4
v -0.3 0.3 0.4
v -0.3 0.4 0.4
v -0.2 0.3 0.4
v -0.2 0.4 0.4
v 0 0.3 0.4
v 0 0.4 0.4
v 0.1 0.3 0.4
v 0.1 0.4 0.4
v -0.1 0.3 0.3
v -0.1 0.4 0.3
v 0 0 0.3
v 0 0.3 0.3
v 0 0.4 0.3
v 0.1 0 0.3
v 0.1 0.3 0.3
v 0.1 0.4 0.3
v 0.2 0.3 0.3
v 0.2 0.4 0.3
v -0.2 0.2 0.5
v -0.2 0.3 0.5
v -0.1 0 0.5
v -0.1 0.2 0.5
v -0.1 0.3 0.5
v 0 0 0.5
v 0 0.2 0.5
v 0 0.3 0.5
v 0.1 0.2 0.5
v 0.1 0.3 0.5
v -0.1 0.2 0.4
v -0.1 0.3 0.4
v 0 0.2 0.4
v 0 0.3 0.4
v -0.5 0.3 0.3
v -0.5 0.4 0.3
v -0.4 0 0.3
v -0.4 0.3 0.3
v -0.4 0.4 0.3
v -0.3 0 0.3
v -0.3 0.3 0.3
v -0.3 0.4 0.3
v -0.2 0.3 0.3
v -0.2 0.4 0.3
v -0.4 0.3 0.2
v -0.4 0.4 0.2
v -0.3 0.3 0.2
v -0.3 0.4 0.2
v -0.1 0.3 0.2
v -0.1 0.4 0.2
v 0 0 0.2
v 0 0.3 0.2
v 0 0.4 0.2
v 0.1 0 0.2
v 0.1 0.3 0.2
v 0.1 0.4 0.2
v 0.2 0.3 0.2
v 0.2 0.4 0.2
v 0 0.3 0.1
v 0 0.4 0.1
v 0.1 0.3 0.1
v 0.1 0.4 0.1
v -0.1 0 0.6
v 0 0 0.6
v -0.1 0 0.5
v 0 0 0.5
v -0.4 0 0.4
v -0.3 0 0.4
v -0.4 0 0.3
v -0.3 0 0.3
v 0 0 0.3
v 0.1 0 0.3
v 0 0 0.2
v 0.1 0 0.2
v -0.1 0.2 0.7
v 0 0.2 0.7
v -0.2 0.2 0.6
v -0.1 0.2 0.6
v 0 0.2 0.6
v 0.1 0.2 0.6
v -0.2 0.2 0.5
v -0.1 0.2 0.5
v 0 0.2 0.5
v 0.1 0.2 0.5
v -0.1 0.2 0.4
v 0 0.2 0.4
v -0.4 0.3 0.5
v -0.3 0.3 0.5
v -0.5 0.3 0.4
v -0.4 0.3 0.4
v -0.3 0.3 0.4
v -0.2 0.3 0.4
v 0 0.3 0.4
v 0.1 0.3 0.4
v -0.5 0.3 0.3
v -0.4 0.3 0.3
v -0.3 0.3 0.3
v -0.2 0.3 0.3
v -0.1 0.3 0.3
v 0 0.3 0.3
v 0.1 0.3 0.3
v 0.2 0.3 0.3
v -0.4 0.3 0.2
v -0.3 0.3 0.2
v -0.1 0.3 0.2
v 0 0.3 0.2
v 0.1 0.3 0.2
v 0.2 0.3 0.2
v 0 0.3 0.1
v 0.1 0.3 0.1
v -0.1 0.3 0.7
v 0 0.3 0.7
v -0.2 0.3 0.6
v -0.1 0.3 0.6
v 0 0.3 0.6
v 0.1 0.3 0.6
v -0.2 0.3 0.5
v -0.1 0.3 0.5
v 0 0.3 0.5
v 0.1 0.3 0.5
v -0.1 0.3 0.4
v 0 0.3 0.4
v -0.4 0.4 0.5
v -0.3 0.4 0.5
v -0.5 0.4 0.4
v -0.4 0.4 0.4
v -0.3 0.4 0.4
v -0.2 0.4 0.4
v 0 0.4 0.4
v 0.1 0.4 0.4
v -0.5 0.4 0.3
v -0.4 0.4 0.3
v -0.3 0.4 0.3
v -0.2 0.4 0.3
v -0.1 0.4 0.3
v 0 0.4 0.3
v 0.1 0.4 0.3
v 0.2 0.4 0.3
v -0.4 0.4 0.2
v -0.3 0.4 0.2
v -0.1 0.4 0.2
v 0 0.4 0.2
v 0.1 0.4 0.2
v 0.2 0.4 0.2
v 0 0.4 0.1
v 0.1 0.4 0.1

# faces
f 3/3/1 2/3/1 1/3/1
f 4/3/1 2/3/1 3/3/1
f 8/2/1 6/2/1 5/2/1
f 9/2/1 6/2/1 8/2/1
f 11/3/1 8/3/1 7/3/1
f 12/3/1 8/3/1 11/3/1
f 13/3/1 10/3/1 9/3/1
f 14/3/1 10/3/1 13/3/1
f 17/3/1 16/3/1 15/3/1
f 18/3/1 16/3/1 17/3/1
f 22/2/1 20/2/1 19/2/1
f 23/2/1 20/2/1 22/2/1
f 25/3/1 22/3/1 21/3/1
f 26/3/1 22/3/1 25/3/1
f 27/3/1 24/3/1 23/3/1
f 28/3/1 24/3/1 27/3/1
f 31/3/1 30/3/1 29/3/1
f 32/3/1 30/3/1 31/3/1
f 36/2/1 34/2/1 33/2/1
f 37/2/1 34/2/1 36/2/1
f 39/3/1 36/3/1 35/3/1
f 40/3/1 36/3/1 39/3/1
f 41/3/1 38/3/1 37/3/1
f 42/3/1 38/3/1 41/3/1
f 43/2/2 44/2/2 46/2/2
f 46/2/2 44/2/2 47/2/2
f 45/3/2 46/3/2 49/3/2
f 49/3/2 46/3/2 50/3/2
f 47/3/2 48/3/2 51/3/2
f 51/3/2 48/3/2 52/3/2
f 53/3/2 54/3/2 55/3/2
f 55/3/2 54/3/2 56/3/2
f 57/2/2 58/2/2 60/2/2
f 60/2/2 58/2/2 61/2/2
f 59/3/2 60/3/2 63/3/2
f 63/3/2 60/3/2 64/3/2
f 61/3/2 62/3/2 65/3/2
f 65/3/2 62/3/2 66/3/2
f 69/3/2 70/3/2 71/3/2
f 71/3/2 70/3/2 72/3/2
f 67/2/2 68/2/2 74/2/2
f 74/2/2 68/2/2 75/2/2
f 73/3/2 74/3/2 77/3/2
f 77/3/2 74/3/2 78/3/2
f 75/3/2 76/3/2 79/3/2
f 79/3/2 76/3/2 80/3/2
f 81/3/2 82/3/2 83/3/2
f 83/3/2 82/3/2 84/3/2
f 87/3/3 86/3/3 85/3/3
f 88/3/3 86/3/3 87/3/3
f 92/3/3 90/3/3 89/3/3
f 93/3/3 90/3/3 92/3/3
f 94/2/3 92/2/3 91/2/3
f 95/2/3 92/2/3 94/2/3
f 97/3/3 96/3/3 95/3/3
f 98/3/3 96/3/3 97/3/3
f 101/3/3 100/3/3 99/3/3
f 102/3/3 100/3/3 101/3/3
f 106/3/3 104/3/3 103/3/3
f 107/3/3 104/3/3 106/3/3
f 108/2/3 106/2/3 105/2/3
f 109/2/3 106/2/3 108/2/3
f 111/3/3 110/3/3 109/3/3
f 112/3/3 110/3/3 111/3/3
f 115/3/3 114/3/3 113/3/3
f 116/3/3 114/3/3 115/3/3
f 120/3/3 118/3/3 117/3/3
f 121/3/3 118/3/3 120/3/3
f 122/2/3 120/2/3 119/2/3
f 123/2/3 120/2/3 122/2/3
f 125/3/3 124/3/3 123/3/3
f 126/3/3 124/3/3 125/3/3
f 127/3/4 128/3/4 130/3/4
f 130/3/4 128/3/4 131/3/4
f 129/2/4 130/2/4 132/2/4
f 132/2/4 130/2/4 133/2/4
f 133/3/4 134/3/4 135/3/4
f 135/3/4 134/3/4 136/3/4
f 137/3/4 138/3/4 139/3/4
f 139/3/4 138/3/4 140/3/4
f 141/3/4 142/3/4 144/3/4
f 144/3/4 142/3/4 145/3/4
f 143/2/4 144/2/4 146/2/4
f 146/2/4 144/2/4 147/2/4
f 147/3/4 148/3/4 149/3/4
f 149/3/4 148/3/4 150/3/4
f 151/3/4 152/3/4 153/3/4
f 153/3/4 152/3/4 154/3/4
f 155/3/4 156/3/4 158/3/4
f 158/3/4 156/3/4 159/3/4
f 157/2/4 158/2/4 160/2/4
f 160/2/4 158/2/4 161/2/4
f 161/3/4 162/3/4 163/3/4
f 163/3/4 162/3/4 164/3/4
f 165/3/4 166/3/4 167/3/4
f 167/3/4 166/3/4 168/3/4
f 171/2/5 170/2/5 169/2/5
f 172/2/5 170/2/5 171/2/5
f 175/2/5 174/2/5 173/2/5
f 176/2/5 174/2/5 175/2/5
f 179/2/5 178/2/5 177/2/5
f 180/2/5 178/2/5 179/2/5
f 184/3/5 182/3/5 181/3/5
f 185/3/5 182/3/5 184/3/5
f 187/3/5 184/3/5 183/3/5
f 188/3/5 184/3/5 187/3/5
f 189/3/5 186/3/5 185/3/5
f 190/3/5 186/3/5 189/3/5
f 191/3/5 189/3/5 188/3/5
f 192/3/5 189/3/5 191/3/5
f 196/3/5 194/3/5 193/3/5
f 197/3/5 194/3/5 196/3/5
f 201/3/5 196/3/5 195/3/5
f 202/3/5 196/3/5 201/3/5
f 203/3/5 198/3/5 197/3/5
f 204/3/5 198/3/5 203/3/5
f 206/3/5 200/3/5 199/3/5
f 207/3/5 200/3/5 206/3/5
f 209/3/5 203/3/5 202/3/5
f 210/3/5 203/3/5 209/3/5
f 211/3/5 206/3/5 205/3/5
f 212/3/5 206/3/5 211/3/5
f 213/3/5 208/3/5 207/3/5
f 214/3/5 208/3/5 213/3/5
f 215/3/5 213/3/5 212/3/5
f 216/3/5 213/3/5 215/3/5
f 217/3/6 218/3/6 220/3/6
f 220/3/6 218/3/6 221/3/6
f 219/3/6 220/3/6 223/3/6
f 220/1/6 221/1/6 224/1/6
f 223/3/6 220/3/6 224/3/6
f 221/3/6 222/3/6 225/3/6
f 224/1/6 221/1/6 225/1/6
f 225/3/6 222/3/6 226/3/6
f 224/3/6 225/3/6 227/3/6
f 227/3/6 225/3/6 228/3/6
f 229/3/6 230/3/6 232/3/6
f 232/3/6 230/3/6 233/3/6
f 231/3/6 232/3/6 237/3/6
f 232/1/6 233/1/6 238/1/6
f 237/3/6 232/3/6 238/3/6
f 233/3/6 234/3/6 239/3/6
f 238/1/6 233/1/6 239/1/6
f 239/3/6 234/3/6 240/3/6
f 235/3/6 236/3/6 242/3/6
f 242/3/6 236/3/6 243/3/6
f 238/3/6 239/3/6 245/3/6
f 245/3/6 239/3/6 246/3/6
f 241/3/6 242/3/6 247/3/6
f 242/1/6 243/1/6 248/1/6
f 247/3/6 242/3/6 248/3/6
f 243/3/6 244/3/6 249/3/6
f 248/1/6 243/1/6 249/1/6
f 249/3/6 244/3/6 250/3/6
f 248/3/6 249/3/6 251/3/6
f 251/3/6 249/3/6 252/3/6
