# MagicaVoxel @ Ephtracy

# group
o Stage4-B

# material
mtllib stage4-B-0-Stage4-B.mtl
usemtl palette

# normals
vn -1 0 0
vn 1 0 0
vn 0 0 1
vn 0 0 -1
vn 0 -1 0
vn 0 1 0

# texcoords
vt 0.0371094 0.5
vt 0.0683594 0.5

# verts
v -12.8 0 12.8
v -12.8 0 -12.8
v -12.8 1 12.8
v -12.8 1 -12.8
v -12.8 1.1 12.8
v -12.8 1.1 -12.8
v -12.2 0.1 2.2
v -12.2 0.1 1.6
v -12.2 0.1 1.5
v -12.2 0.1 -1.6
v -12.2 0.1 -1.7
v -12.2 0.1 -2.2
v -12.2 1 2.2
v -12.2 1 1.6
v -12.2 1 1.5
v -12.2 1 -1.6
v -12.2 1 -1.7
v -12.2 1 -2.2
v -3.2 0.1 2.2
v -3.2 0.1 1.6
v -3.2 0.1 -1.7
v -3.2 0.1 -2.2
v -3.2 1 2.2
v -3.2 1 1.6
v -3.2 1 -1.7
v -3.2 1 -2.2
v -2.6 0.1 7.9
v -2.6 0.1 7.4
v -2.6 0.1 7.3
v -2.6 0.1 1.6
v -2.6 0.1 -1.7
v -2.6 0.1 -7.3
v -2.6 0.1 -7.4
v -2.6 0.1 -7.9
v -2.6 1 7.9
v -2.6 1 7.4
v -2.6 1 7.3
v -2.6 1 1.6
v -2.6 1 -1.7
v -2.6 1 -7.3
v -2.6 1 -7.4
v -2.6 1 -7.9
v 12.1 0 7.3
v 12.1 0 -7.3
v 12.1 0.1 7.9
v 12.1 0.1 7.4
v 12.1 0.1 -7.4
v 12.1 0.1 -7.9
v 12.1 1 7.9
v 12.1 1 7.4
v 12.1 1 7.3
v 12.1 1 -7.3
v 12.1 1 -7.4
v 12.1 1 -7.5
v 12.1 1 -7.9
v 12.2 1 7.4
v 12.2 1 -7.5
v 12.2 1.1 7.4
v 12.2 1.1 -7.5
v 12.7 0.1 7.9
v 12.7 0.1 7.4
v 12.7 0.1 7.3
v 12.7 0.1 -7.3
v 12.7 0.1 -7.4
v 12.7 0.1 -7.9
v 12.7 1 7.9
v 12.7 1 7.4
v 12.7 1 7.3
v 12.7 1 -7.3
v 12.7 1 -7.4
v 12.7 1 -7.9
v -12.7 0.1 2.2
v -12.7 0.1 1.6
v -12.7 0.1 1.5
v -12.7 0.1 -1.6
v -12.7 0.1 -1.7
v -12.7 0.1 -2.2
v -12.7 1 2.2
v -12.7 1 1.6
v -12.7 1 1.5
v -12.7 1 -1.6
v -12.7 1 -1.7
v -12.7 1 -2.2
v -12.2 1 1.6
v -12.2 1 -1.7
v -12.2 1.1 1.6
v -12.2 1.1 -1.7
v -12.1 0 1.5
v -12.1 0 -1.6
v -12.1 0.1 2.2
v -12.1 0.1 1.6
v -12.1 0.1 -1.7
v -12.1 0.1 -2.2
v -12.1 1 2.2
v -12.1 1 1.6
v -12.1 1 1.5
v -12.1 1 -1.6
v -12.1 1 -1.7
v -12.1 1 -2.2
v -3.1 0.1 7.9
v -3.1 0.1 7.4
v -3.1 0.1 7.3
v -3.1 0.1 1.6
v -3.1 0.1 -1.7
v -3.1 0.1 -7.3
v -3.1 0.1 -7.4
v -3.1 0.1 -7.9
v -3.1 1 7.9
v -3.1 1 7.4
v -3.1 1 7.3
v -3.1 1 1.6
v -3.1 1 -1.7
v -3.1 1 -7.3
v -3.1 1 -7.4
v -3.1 1 -7.9
v -2.6 1 7.4
v -2.6 1 1.6
v -2.6 1 -1.7
v -2.6 1 -7.5
v -2.6 1.1 7.4
v -2.6 1.1 1.6
v -2.6 1.1 -1.7
v -2.6 1.1 -7.5
v -2.5 0 7.3
v -2.5 0 1.5
v -2.5 0 -1.6
v -2.5 0 -7.3
v -2.5 0.1 7.9
v -2.5 0.1 7.4
v -2.5 0.1 -7.4
v -2.5 0.1 -7.9
v -2.5 1 7.9
v -2.5 1 7.4
v -2.5 1 7.3
v -2.5 1 1.5
v -2.5 1 -1.6
v -2.5 1 -7.3
v -2.5 1 -7.4
v -2.5 1 -7.5
v -2.5 1 -7.9
v 12.2 0.1 7.9
v 12.2 0.1 7.4
v 12.2 0.1 7.3
v 12.2 0.1 -7.3
v 12.2 0.1 -7.4
v 12.2 0.1 -7.9
v 12.2 1 7.9
v 12.2 1 7.4
v 12.2 1 7.3
v 12.2 1 -7.3
v 12.2 1 -7.4
v 12.2 1 -7.9
v 12.8 0 12.8
v 12.8 0 -12.8
v 12.8 1 12.8
v 12.8 1 -12.8
v 12.8 1.1 12.8
v 12.8 1.1 -12.8
v -12.8 0 12.8
v -12.8 1 12.8
v -12.8 1.1 12.8
v 12.8 0 12.8
v 12.8 1 12.8
v 12.8 1.1 12.8
v -3.1 0.1 7.4
v -3.1 1 7.4
v -2.6 0.1 7.4
v -2.6 1 7.4
v -2.5 0.1 7.4
v -2.5 1 7.4
v 12.1 0.1 7.4
v 12.1 1 7.4
v 12.2 0.1 7.4
v 12.2 1 7.4
v 12.7 0.1 7.4
v 12.7 1 7.4
v -12.7 0.1 1.6
v -12.7 1 1.6
v -12.2 0.1 1.6
v -12.2 1 1.6
v -12.1 0.1 1.6
v -12.1 1 1.6
v -3.2 0.1 1.6
v -3.2 1 1.6
v -3.1 0.1 1.6
v -3.1 1 1.6
v -2.6 0.1 1.6
v -2.6 1 1.6
v -12.7 0.1 -1.6
v -12.7 1 -1.6
v -12.2 0.1 -1.6
v -12.2 1 -1.6
v -12.1 0 -1.6
v -12.1 1 -1.6
v -2.5 0 -1.6
v -2.5 1 -1.6
v -12.2 1 -1.7
v -12.2 1.1 -1.7
v -2.6 1 -1.7
v -2.6 1.1 -1.7
v -12.7 0.1 -2.2
v -12.7 1 -2.2
v -12.2 0.1 -2.2
v -12.2 1 -2.2
v -12.1 0.1 -2.2
v -12.1 1 -2.2
v -3.2 0.1 -2.2
v -3.2 1 -2.2
v -3.1 0.1 -7.3
v -3.1 1 -7.3
v -2.6 0.1 -7.3
v -2.6 1 -7.3
v -2.5 0 -7.3
v -2.5 1 -7.3
v 12.1 0 -7.3
v 12.1 1 -7.3
v 12.2 0.1 -7.3
v 12.2 1 -7.3
v 12.7 0.1 -7.3
v 12.7 1 -7.3
v -2.6 1 -7.5
v -2.6 1.1 -7.5
v -2.5 1 -7.5
v 12.1 1 -7.5
v 12.2 1 -7.5
v 12.2 1.1 -7.5
v -3.1 0.1 -7.9
v -3.1 1 -7.9
v -2.6 0.1 -7.9
v -2.6 1 -7.9
v -2.5 0.1 -7.9
v -2.5 1 -7.9
v 12.1 0.1 -7.9
v 12.1 1 -7.9
v 12.2 0.1 -7.9
v 12.2 1 -7.9
v 12.7 0.1 -7.9
v 12.7 1 -7.9
v -3.1 0.1 7.9
v -3.1 1 7.9
v -2.6 0.1 7.9
v -2.6 1 7.9
v -2.5 0.1 7.9
v -2.5 1 7.9
v 12.1 0.1 7.9
v 12.1 1 7.9
v 12.2 0.1 7.9
v 12.2 1 7.9
v 12.7 0.1 7.9
v 12.7 1 7.9
v -2.6 1 7.4
v -2.6 1.1 7.4
v 12.2 1 7.4
v 12.2 1.1 7.4
v -3.1 0.1 7.3
v -3.1 1 7.3
v -2.6 0.1 7.3
v -2.6 1 7.3
v -2.5 0 7.3
v -2.5 1 7.3
v 12.1 0 7.3
v 12.1 1 7.3
v 12.2 0.1 7.3
v 12.2 1 7.3
v 12.7 0.1 7.3
v 12.7 1 7.3
v -12.7 0.1 2.2
v -12.7 1 2.2
v -12.2 0.1 2.2
v -12.2 1 2.2
v -12.1 0.1 2.2
v -12.1 1 2.2
v -3.2 0.1 2.2
v -3.2 1 2.2
v -12.2 1 1.6
v -12.2 1.1 1.6
v -2.6 1 1.6
v -2.6 1.1 1.6
v -12.7 0.1 1.5
v -12.7 1 1.5
v -12.2 0.1 1.5
v -12.2 1 1.5
v -12.1 0 1.5
v -12.1 1 1.5
v -2.5 0 1.5
v -2.5 1 1.5
v -12.7 0.1 -1.7
v -12.7 1 -1.7
v -12.2 0.1 -1.7
v -12.2 1 -1.7
v -12.1 0.1 -1.7
v -12.1 1 -1.7
v -3.2 0.1 -1.7
v -3.2 1 -1.7
v -3.1 0.1 -1.7
v -3.1 1 -1.7
v -2.6 0.1 -1.7
v -2.6 1 -1.7
v -3.1 0.1 -7.4
v -3.1 1 -7.4
v -2.6 0.1 -7.4
v -2.6 1 -7.4
v -2.5 0.1 -7.4
v -2.5 1 -7.4
v 12.1 0.1 -7.4
v 12.1 1 -7.4
v 12.2 0.1 -7.4
v 12.2 1 -7.4
v 12.7 0.1 -7.4
v 12.7 1 -7.4
v -12.8 0 -12.8
v -12.8 1 -12.8
v -12.8 1.1 -12.8
v 12.8 0 -12.8
v 12.8 1 -12.8
v 12.8 1.1 -12.8
v -12.8 0 12.8
v 12.8 0 12.8
v -2.5 0 7.3
v 12.1 0 7.3
v -12.1 0 1.5
v -2.5 0 1.5
v -12.1 0 -1.6
v -2.5 0 -1.6
v -2.5 0 -7.3
v 12.1 0 -7.3
v -12.8 0 -12.8
v 12.8 0 -12.8
v -3.1 1 7.9
v -2.6 1 7.9
v -2.5 1 7.9
v 12.1 1 7.9
v 12.2 1 7.9
v 12.7 1 7.9
v -3.1 1 7.4
v -2.6 1 7.4
v -2.5 1 7.4
v 12.1 1 7.4
v 12.2 1 7.4
v 12.7 1 7.4
v -3.1 1 7.3
v -2.6 1 7.3
v 12.2 1 7.3
v 12.7 1 7.3
v -12.7 1 2.2
v -12.2 1 2.2
v -12.1 1 2.2
v -3.2 1 2.2
v -12.7 1 1.6
v -12.2 1 1.6
v -12.1 1 1.6
v -3.2 1 1.6
v -3.1 1 1.6
v -2.6 1 1.6
v -12.7 1 1.5
v -12.2 1 1.5
v -12.7 1 -1.6
v -12.2 1 -1.6
v -12.7 1 -1.7
v -12.2 1 -1.7
v -12.1 1 -1.7
v -3.2 1 -1.7
v -3.1 1 -1.7
v -2.6 1 -1.7
v -12.7 1 -2.2
v -12.2 1 -2.2
v -12.1 1 -2.2
v -3.2 1 -2.2
v -3.1 1 -7.3
v -2.6 1 -7.3
v 12.2 1 -7.3
v 12.7 1 -7.3
v -3.1 1 -7.4
v -2.6 1 -7.4
v 12.2 1 -7.4
v 12.7 1 -7.4
v -2.5 1 -7.5
v 12.1 1 -7.5
v -3.1 1 -7.9
v -2.6 1 -7.9
v -2.5 1 -7.9
v 12.1 1 -7.9
v 12.2 1 -7.9
v 12.7 1 -7.9
v -3.1 0.1 7.9
v -2.6 0.1 7.9
v -2.5 0.1 7.9
v 12.1 0.1 7.9
v 12.2 0.1 7.9
v 12.7 0.1 7.9
v -3.1 0.1 7.4
v -2.6 0.1 7.4
v -2.5 0.1 7.4
v 12.1 0.1 7.4
v 12.2 0.1 7.4
v 12.7 0.1 7.4
v -3.1 0.1 7.3
v -2.6 0.1 7.3
v 12.2 0.1 7.3
v 12.7 0.1 7.3
v -12.7 0.1 2.2
v -12.2 0.1 2.2
v -12.1 0.1 2.2
v -3.2 0.1 2.2
v -12.7 0.1 1.6
v -12.2 0.1 1.6
v -12.1 0.1 1.6
v -3.2 0.1 1.6
v -3.1 0.1 1.6
v -2.6 0.1 1.6
v -12.7 0.1 1.5
v -12.2 0.1 1.5
v -12.7 0.1 -1.6
v -12.2 0.1 -1.6
v -12.7 0.1 -1.7
v -12.2 0.1 -1.7
v -12.1 0.1 -1.7
v -3.2 0.1 -1.7
v -3.1 0.1 -1.7
v -2.6 0.1 -1.7
v -12.7 0.1 -2.2
v -12.2 0.1 -2.2
v -12.1 0.1 -2.2
v -3.2 0.1 -2.2
v -3.1 0.1 -7.3
v -2.6 0.1 -7.3
v 12.2 0.1 -7.3
v 12.7 0.1 -7.3
v -3.1 0.1 -7.4
v -2.6 0.1 -7.4
v -2.5 0.1 -7.4
v 12.1 0.1 -7.4
v 12.2 0.1 -7.4
v 12.7 0.1 -7.4
v -3.1 0.1 -7.9
v -2.6 0.1 -7.9
v -2.5 0.1 -7.9
v 12.1 0.1 -7.9
v 12.2 0.1 -7.9
v 12.7 0.1 -7.9
v -2.6 1 7.4
v 12.2 1 7.4
v -2.5 1 7.3
v 12.1 1 7.3
v -12.2 1 1.6
v -2.6 1 1.6
v -12.1 1 1.5
v -2.5 1 1.5
v -12.1 1 -1.6
v -2.5 1 -1.6
v -12.2 1 -1.7
v -2.6 1 -1.7
v -2.5 1 -7.3
v 12.1 1 -7.3
v -2.5 1 -7.4
v 12.1 1 -7.4
v -2.6 1 -7.5
v -2.5 1 -7.5
v 12.1 1 -7.5
v 12.2 1 -7.5
v -12.8 1.1 12.8
v 12.8 1.1 12.8
v -2.6 1.1 7.4
v 12.2 1.1 7.4
v -12.2 1.1 1.6
v -2.6 1.1 1.6
v -12.2 1.1 -1.7
v -2.6 1.1 -1.7
v -2.6 1.1 -7.5
v 12.2 1.1 -7.5
v -12.8 1.1 -12.8
v 12.8 1.1 -12.8

# faces
f 3/2/1 2/2/1 1/2/1
f 4/2/1 2/2/1 3/2/1
f 5/1/1 4/1/1 3/1/1
f 6/1/1 4/1/1 5/1/1
f 13/2/1 8/2/1 7/2/1
f 14/2/1 8/2/1 13/2/1
f 15/2/1 10/2/1 9/2/1
f 16/2/1 10/2/1 15/2/1
f 17/2/1 12/2/1 11/2/1
f 18/2/1 12/2/1 17/2/1
f 23/2/1 20/2/1 19/2/1
f 24/2/1 20/2/1 23/2/1
f 25/2/1 22/2/1 21/2/1
f 26/2/1 22/2/1 25/2/1
f 35/2/1 28/2/1 27/2/1
f 36/2/1 28/2/1 35/2/1
f 37/2/1 30/2/1 29/2/1
f 38/2/1 30/2/1 37/2/1
f 39/2/1 32/2/1 31/2/1
f 40/2/1 32/2/1 39/2/1
f 41/2/1 34/2/1 33/2/1
f 42/2/1 34/2/1 41/2/1
f 49/2/1 46/2/1 45/2/1
f 50/2/1 46/2/1 49/2/1
f 51/2/1 44/2/1 43/2/1
f 52/2/1 44/2/1 51/2/1
f 53/2/1 48/2/1 47/2/1
f 54/2/1 48/2/1 53/2/1
f 55/2/1 48/2/1 54/2/1
f 58/1/1 57/1/1 56/1/1
f 59/1/1 57/1/1 58/1/1
f 66/2/1 61/2/1 60/2/1
f 67/2/1 61/2/1 66/2/1
f 68/2/1 63/2/1 62/2/1
f 69/2/1 63/2/1 68/2/1
f 70/2/1 65/2/1 64/2/1
f 71/2/1 65/2/1 70/2/1
f 72/2/2 73/2/2 78/2/2
f 78/2/2 73/2/2 79/2/2
f 74/2/2 75/2/2 80/2/2
f 80/2/2 75/2/2 81/2/2
f 76/2/2 77/2/2 82/2/2
f 82/2/2 77/2/2 83/2/2
f 84/1/2 85/1/2 86/1/2
f 86/1/2 85/1/2 87/1/2
f 90/2/2 91/2/2 94/2/2
f 94/2/2 91/2/2 95/2/2
f 88/2/2 89/2/2 96/2/2
f 96/2/2 89/2/2 97/2/2
f 92/2/2 93/2/2 98/2/2
f 98/2/2 93/2/2 99/2/2
f 100/2/2 101/2/2 108/2/2
f 108/2/2 101/2/2 109/2/2
f 102/2/2 103/2/2 110/2/2
f 110/2/2 103/2/2 111/2/2
f 104/2/2 105/2/2 112/2/2
f 112/2/2 105/2/2 113/2/2
f 106/2/2 107/2/2 114/2/2
f 114/2/2 107/2/2 115/2/2
f 116/1/2 117/1/2 120/1/2
f 120/1/2 117/1/2 121/1/2
f 118/1/2 119/1/2 122/1/2
f 122/1/2 119/1/2 123/1/2
f 128/2/2 129/2/2 132/2/2
f 132/2/2 129/2/2 133/2/2
f 124/2/2 125/2/2 134/2/2
f 134/2/2 125/2/2 135/2/2
f 126/2/2 127/2/2 136/2/2
f 136/2/2 127/2/2 137/2/2
f 130/2/2 131/2/2 138/2/2
f 138/2/2 131/2/2 139/2/2
f 139/2/2 131/2/2 140/2/2
f 141/2/2 142/2/2 147/2/2
f 147/2/2 142/2/2 148/2/2
f 143/2/2 144/2/2 149/2/2
f 149/2/2 144/2/2 150/2/2
f 145/2/2 146/2/2 151/2/2
f 151/2/2 146/2/2 152/2/2
f 153/2/2 154/2/2 155/2/2
f 155/2/2 154/2/2 156/2/2
f 155/1/2 156/1/2 157/1/2
f 157/1/2 156/1/2 158/1/2
f 162/2/3 160/2/3 159/2/3
f 163/1/3 161/1/3 160/1/3
f 163/2/3 160/2/3 162/2/3
f 164/1/3 161/1/3 163/1/3
f 167/2/3 166/2/3 165/2/3
f 168/2/3 166/2/3 167/2/3
f 171/2/3 170/2/3 169/2/3
f 172/2/3 170/2/3 171/2/3
f 175/2/3 174/2/3 173/2/3
f 176/2/3 174/2/3 175/2/3
f 179/2/3 178/2/3 177/2/3
f 180/2/3 178/2/3 179/2/3
f 183/2/3 182/2/3 181/2/3
f 184/2/3 182/2/3 183/2/3
f 187/2/3 186/2/3 185/2/3
f 188/2/3 186/2/3 187/2/3
f 191/2/3 190/2/3 189/2/3
f 192/2/3 190/2/3 191/2/3
f 195/2/3 194/2/3 193/2/3
f 196/2/3 194/2/3 195/2/3
f 199/1/3 198/1/3 197/1/3
f 200/1/3 198/1/3 199/1/3
f 203/2/3 202/2/3 201/2/3
f 204/2/3 202/2/3 203/2/3
f 207/2/3 206/2/3 205/2/3
f 208/2/3 206/2/3 207/2/3
f 211/2/3 210/2/3 209/2/3
f 212/2/3 210/2/3 211/2/3
f 215/2/3 214/2/3 213/2/3
f 216/2/3 214/2/3 215/2/3
f 219/2/3 218/2/3 217/2/3
f 220/2/3 218/2/3 219/2/3
f 223/1/3 222/1/3 221/1/3
f 224/1/3 222/1/3 223/1/3
f 225/1/3 222/1/3 224/1/3
f 226/1/3 222/1/3 225/1/3
f 229/2/3 228/2/3 227/2/3
f 230/2/3 228/2/3 229/2/3
f 233/2/3 232/2/3 231/2/3
f 234/2/3 232/2/3 233/2/3
f 237/2/3 236/2/3 235/2/3
f 238/2/3 236/2/3 237/2/3
f 239/2/4 240/2/4 241/2/4
f 241/2/4 240/2/4 242/2/4
f 243/2/4 244/2/4 245/2/4
f 245/2/4 244/2/4 246/2/4
f 247/2/4 248/2/4 249/2/4
f 249/2/4 248/2/4 250/2/4
f 251/1/4 252/1/4 253/1/4
f 253/1/4 252/1/4 254/1/4
f 255/2/4 256/2/4 257/2/4
f 257/2/4 256/2/4 258/2/4
f 259/2/4 260/2/4 261/2/4
f 261/2/4 260/2/4 262/2/4
f 263/2/4 264/2/4 265/2/4
f 265/2/4 264/2/4 266/2/4
f 267/2/4 268/2/4 269/2/4
f 269/2/4 268/2/4 270/2/4
f 271/2/4 272/2/4 273/2/4
f 273/2/4 272/2/4 274/2/4
f 275/1/4 276/1/4 277/1/4
f 277/1/4 276/1/4 278/1/4
f 279/2/4 280/2/4 281/2/4
f 281/2/4 280/2/4 282/2/4
f 283/2/4 284/2/4 285/2/4
f 285/2/4 284/2/4 286/2/4
f 287/2/4 288/2/4 289/2/4
f 289/2/4 288/2/4 290/2/4
f 291/2/4 292/2/4 293/2/4
f 293/2/4 292/2/4 294/2/4
f 295/2/4 296/2/4 297/2/4
f 297/2/4 296/2/4 298/2/4
f 299/2/4 300/2/4 301/2/4
f 301/2/4 300/2/4 302/2/4
f 303/2/4 304/2/4 305/2/4
f 305/2/4 304/2/4 306/2/4
f 307/2/4 308/2/4 309/2/4
f 309/2/4 308/2/4 310/2/4
f 311/2/4 312/2/4 314/2/4
f 312/1/4 313/1/4 315/1/4
f 314/2/4 312/2/4 315/2/4
f 315/1/4 313/1/4 316/1/4
f 319/2/5 318/2/5 317/2/5
f 320/2/5 318/2/5 319/2/5
f 321/2/5 319/2/5 317/2/5
f 322/2/5 319/2/5 321/2/5
f 323/2/5 321/2/5 317/2/5
f 325/2/5 324/2/5 323/2/5
f 326/2/5 318/2/5 320/2/5
f 327/2/5 325/2/5 323/2/5
f 327/2/5 326/2/5 325/2/5
f 327/2/5 323/2/5 317/2/5
f 328/2/5 318/2/5 326/2/5
f 328/2/5 326/2/5 327/2/5
f 335/1/5 330/1/5 329/1/5
f 336/1/5 330/1/5 335/1/5
f 337/1/5 332/1/5 331/1/5
f 338/1/5 332/1/5 337/1/5
f 339/1/5 334/1/5 333/1/5
f 340/1/5 334/1/5 339/1/5
f 349/1/5 346/1/5 345/1/5
f 350/1/5 346/1/5 349/1/5
f 351/1/5 348/1/5 347/1/5
f 352/1/5 348/1/5 351/1/5
f 353/1/5 342/1/5 341/1/5
f 354/1/5 342/1/5 353/1/5
f 357/1/5 356/1/5 355/1/5
f 358/1/5 356/1/5 357/1/5
f 365/1/5 360/1/5 359/1/5
f 366/1/5 360/1/5 365/1/5
f 367/1/5 362/1/5 361/1/5
f 368/1/5 362/1/5 367/1/5
f 369/1/5 364/1/5 363/1/5
f 370/1/5 364/1/5 369/1/5
f 371/1/5 344/1/5 343/1/5
f 372/1/5 344/1/5 371/1/5
f 379/1/5 374/1/5 373/1/5
f 380/1/5 374/1/5 379/1/5
f 381/1/5 378/1/5 377/1/5
f 382/1/5 378/1/5 381/1/5
f 383/1/5 376/1/5 375/1/5
f 384/1/5 376/1/5 383/1/5
f 385/2/6 386/2/6 391/2/6
f 391/2/6 386/2/6 392/2/6
f 387/2/6 388/2/6 393/2/6
f 393/2/6 388/2/6 394/2/6
f 389/2/6 390/2/6 395/2/6
f 395/2/6 390/2/6 396/2/6
f 401/2/6 402/2/6 405/2/6
f 405/2/6 402/2/6 406/2/6
f 403/2/6 404/2/6 407/2/6
f 407/2/6 404/2/6 408/2/6
f 397/2/6 398/2/6 409/2/6
f 409/2/6 398/2/6 410/2/6
f 411/2/6 412/2/6 413/2/6
f 413/2/6 412/2/6 414/2/6
f 415/2/6 416/2/6 421/2/6
f 421/2/6 416/2/6 422/2/6
f 417/2/6 418/2/6 423/2/6
f 423/2/6 418/2/6 424/2/6
f 419/2/6 420/2/6 425/2/6
f 425/2/6 420/2/6 426/2/6
f 399/2/6 400/2/6 427/2/6
f 427/2/6 400/2/6 428/2/6
f 429/2/6 430/2/6 435/2/6
f 435/2/6 430/2/6 436/2/6
f 431/2/6 432/2/6 437/2/6
f 437/2/6 432/2/6 438/2/6
f 433/2/6 434/2/6 439/2/6
f 439/2/6 434/2/6 440/2/6
f 441/2/6 442/2/6 443/2/6
f 443/2/6 442/2/6 444/2/6
f 441/2/6 443/2/6 446/2/6
f 445/2/6 446/2/6 447/2/6
f 446/2/6 443/2/6 448/2/6
f 447/2/6 446/2/6 448/2/6
f 445/2/6 447/2/6 449/2/6
f 445/2/6 449/2/6 451/2/6
f 449/2/6 450/2/6 451/2/6
f 451/2/6 450/2/6 452/2/6
f 452/2/6 450/2/6 453/2/6
f 444/2/6 442/2/6 454/2/6
f 452/2/6 453/2/6 455/2/6
f 453/2/6 454/2/6 455/2/6
f 454/2/6 442/2/6 456/2/6
f 455/2/6 454/2/6 456/2/6
f 452/2/6 455/2/6 457/2/6
f 457/2/6 455/2/6 458/2/6
f 456/2/6 442/2/6 459/2/6
f 459/2/6 442/2/6 460/2/6
f 461/1/6 462/1/6 463/1/6
f 463/1/6 462/1/6 464/1/6
f 461/1/6 463/1/6 465/1/6
f 465/1/6 463/1/6 466/1/6
f 461/1/6 465/1/6 467/1/6
f 467/1/6 468/1/6 469/1/6
f 464/1/6 462/1/6 470/1/6
f 467/1/6 469/1/6 471/1/6
f 469/1/6 470/1/6 471/1/6
f 461/1/6 467/1/6 471/1/6
f 470/1/6 462/1/6 472/1/6
f 471/1/6 470/1/6 472/1/6
