# MagicaVoxel @ Ephtracy

# group
o Stage3-2

# material
mtllib Stage3-2-0-Stage3-2.mtl
usemtl palette

# normals
vn -1 0 0
vn 1 0 0
vn 0 0 1
vn 0 0 -1
vn 0 -1 0
vn 0 1 0

# texcoords
vt 0.0371094 0.5
vt 0.0683594 0.5

# verts
v -12.7 0 12.7
v -12.7 0 -12.8
v -12.7 1.4 12.7
v -12.7 1.4 -12.8
v -12.7 1.6 12.7
v -12.7 1.6 -12.8
v -11.7 0.1 12.6
v -11.7 0.1 -6.6
v -11.7 1.4 12.6
v -11.7 1.4 -6.6
v -11.7 1.5 12.6
v -11.7 1.5 -6.6
v -6.1 0 11.6
v -6.1 0 9.6
v -6.1 0 -0.5
v -6.1 0 -3.7
v -6.1 0.1 12.6
v -6.1 0.1 11.7
v -6.1 1.3 -0.5
v -6.1 1.3 -3.7
v -6.1 1.4 12.6
v -6.1 1.4 11.7
v -6.1 1.4 11.6
v -6.1 1.4 9.6
v -6.1 1.5 12.6
v -6.1 1.5 11.7
v -6.1 1.6 11.6
v -6.1 1.6 9.6
v -6.1 1.6 -0.5
v -6.1 1.6 -3.7
v -2 0.1 12.6
v -2 0.1 9.7
v -2 0.1 -0.6
v -2 0.1 -3.6
v -2 1.3 -0.6
v -2 1.3 -3.6
v -2 1.4 12.6
v -2 1.4 9.7
v -2 1.5 12.6
v -2 1.5 9.7
v -2 1.5 -0.6
v -2 1.5 -3.6
v -1.5 0.1 -6.7
v -1.5 0.1 -7.6
v -1.5 0.1 -7.7
v -1.5 0.1 -12.7
v -1.5 1.4 -6.7
v -1.5 1.4 -7.6
v -1.5 1.4 -7.7
v -1.5 1.4 -12.7
v -1.5 1.5 -6.7
v -1.5 1.5 -7.6
v -1.5 1.5 -7.7
v -1.5 1.5 -12.7
v 1.5 0 -6.6
v 1.5 0 -11.7
v 1.5 0.1 -11.8
v 1.5 0.1 -12.7
v 1.5 1.4 -6.6
v 1.5 1.4 -11.7
v 1.5 1.4 -11.8
v 1.5 1.4 -12.7
v 1.5 1.5 -11.8
v 1.5 1.5 -12.7
v 1.5 1.6 -6.6
v 1.5 1.6 -11.7
v 2 0 12.7
v 2 0 9.6
v 2 0 -0.5
v 2 0 -3.7
v 2 1.3 -0.5
v 2 1.3 -3.7
v 2 1.4 12.7
v 2 1.4 9.6
v 2 1.6 12.7
v 2 1.6 9.6
v 2 1.6 -0.5
v 2 1.6 -3.7
v 2.5 0.1 -7.7
v 2.5 0.1 -12.7
v 2.5 1.4 -7.7
v 2.5 1.4 -12.7
v 2.5 1.5 -7.7
v 2.5 1.5 -12.7
v 6.1 0.1 12.6
v 6.1 0.1 9.7
v 6.1 0.1 -0.6
v 6.1 0.1 -3.6
v 6.1 1.3 -0.6
v 6.1 1.3 -3.6
v 6.1 1.4 12.6
v 6.1 1.4 9.7
v 6.1 1.5 12.6
v 6.1 1.5 9.7
v 6.1 1.5 -0.6
v 6.1 1.5 -3.6
v 11.7 0 11.6
v 11.7 0 -6.6
v 11.7 0.1 12.6
v 11.7 0.1 11.7
v 11.7 1.4 12.6
v 11.7 1.4 11.7
v 11.7 1.4 11.6
v 11.7 1.4 -6.6
v 11.7 1.5 12.6
v 11.7 1.5 11.7
v 11.7 1.6 11.6
v 11.7 1.6 -6.6
v 12.7 0.1 12.6
v 12.7 0.1 -6.6
v 12.7 0.1 -6.7
v 12.7 0.1 -7.6
v 12.7 1.4 12.6
v 12.7 1.4 -6.6
v 12.7 1.4 -6.7
v 12.7 1.4 -7.6
v 12.7 1.5 12.6
v 12.7 1.5 -6.6
v 12.7 1.5 -6.7
v 12.7 1.5 -7.6
v -12.6 0.1 12.6
v -12.6 0.1 -6.6
v -12.6 0.1 -6.7
v -12.6 0.1 -7.6
v -12.6 1.4 12.6
v -12.6 1.4 -6.6
v -12.6 1.4 -6.7
v -12.6 1.4 -7.6
v -12.6 1.5 12.6
v -12.6 1.5 -6.6
v -12.6 1.5 -6.7
v -12.6 1.5 -7.6
v -11.6 0 11.6
v -11.6 0 -6.6
v -11.6 0.1 12.6
v -11.6 0.1 11.7
v -11.6 1.4 12.6
v -11.6 1.4 11.7
v -11.6 1.4 11.6
v -11.6 1.4 -6.6
v -11.6 1.5 12.6
v -11.6 1.5 11.7
v -11.6 1.6 11.6
v -11.6 1.6 -6.6
v -6 0.1 12.6
v -6 0.1 9.7
v -6 0.1 -0.6
v -6 0.1 -3.6
v -6 1.3 -0.6
v -6 1.3 -3.6
v -6 1.4 12.6
v -6 1.4 9.7
v -6 1.5 12.6
v -6 1.5 9.7
v -6 1.5 -0.6
v -6 1.5 -3.6
v -2.4 0.1 -7.7
v -2.4 0.1 -12.7
v -2.4 1.4 -7.7
v -2.4 1.4 -12.7
v -2.4 1.5 -7.7
v -2.4 1.5 -12.7
v -1.9 0 12.7
v -1.9 0 9.6
v -1.9 0 -0.5
v -1.9 0 -3.7
v -1.9 1.3 -0.5
v -1.9 1.3 -3.7
v -1.9 1.4 12.7
v -1.9 1.4 9.6
v -1.9 1.6 12.7
v -1.9 1.6 9.6
v -1.9 1.6 -0.5
v -1.9 1.6 -3.7
v -1.4 0 -6.6
v -1.4 0 -11.7
v -1.4 0.1 -11.8
v -1.4 0.1 -12.7
v -1.4 1.4 -6.6
v -1.4 1.4 -11.7
v -1.4 1.4 -11.8
v -1.4 1.4 -12.7
v -1.4 1.5 -11.8
v -1.4 1.5 -12.7
v -1.4 1.6 -6.6
v -1.4 1.6 -11.7
v 1.6 0.1 -6.7
v 1.6 0.1 -7.6
v 1.6 0.1 -7.7
v 1.6 0.1 -12.7
v 1.6 1.4 -6.7
v 1.6 1.4 -7.6
v 1.6 1.4 -7.7
v 1.6 1.4 -12.7
v 1.6 1.5 -6.7
v 1.6 1.5 -7.6
v 1.6 1.5 -7.7
v 1.6 1.5 -12.7
v 2.1 0.1 12.6
v 2.1 0.1 9.7
v 2.1 0.1 -0.6
v 2.1 0.1 -3.6
v 2.1 1.3 -0.6
v 2.1 1.3 -3.6
v 2.1 1.4 12.6
v 2.1 1.4 9.7
v 2.1 1.5 12.6
v 2.1 1.5 9.7
v 2.1 1.5 -0.6
v 2.1 1.5 -3.6
v 6.2 0 11.6
v 6.2 0 9.6
v 6.2 0 -0.5
v 6.2 0 -3.7
v 6.2 0.1 12.6
v 6.2 0.1 11.7
v 6.2 1.3 -0.5
v 6.2 1.3 -3.7
v 6.2 1.4 12.6
v 6.2 1.4 11.7
v 6.2 1.4 11.6
v 6.2 1.4 9.6
v 6.2 1.5 12.6
v 6.2 1.5 11.7
v 6.2 1.6 11.6
v 6.2 1.6 9.6
v 6.2 1.6 -0.5
v 6.2 1.6 -3.7
v 11.8 0.1 12.6
v 11.8 0.1 -6.6
v 11.8 1.4 12.6
v 11.8 1.4 -6.6
v 11.8 1.5 12.6
v 11.8 1.5 -6.6
v 12.8 0 12.7
v 12.8 0 -12.8
v 12.8 1.4 12.7
v 12.8 1.4 -12.8
v 12.8 1.6 12.7
v 12.8 1.6 -12.8
v -12.7 0 12.7
v -12.7 1.4 12.7
v -12.7 1.6 12.7
v -1.9 0 12.7
v -1.9 1.4 12.7
v -1.9 1.6 12.7
v 2 0 12.7
v 2 1.4 12.7
v 2 1.6 12.7
v 12.8 0 12.7
v 12.8 1.4 12.7
v 12.8 1.6 12.7
v -11.6 0.1 11.7
v -11.6 1.4 11.7
v -11.6 1.5 11.7
v -6.1 0.1 11.7
v -6.1 1.4 11.7
v -6.1 1.5 11.7
v 6.2 0.1 11.7
v 6.2 1.4 11.7
v 6.2 1.5 11.7
v 11.7 0.1 11.7
v 11.7 1.4 11.7
v 11.7 1.5 11.7
v -6 0.1 9.7
v -6 1.4 9.7
v -6 1.5 9.7
v -2 0.1 9.7
v -2 1.4 9.7
v -2 1.5 9.7
v 2.1 0.1 9.7
v 2.1 1.4 9.7
v 2.1 1.5 9.7
v 6.1 0.1 9.7
v 6.1 1.4 9.7
v 6.1 1.5 9.7
v -6.1 0 -0.5
v -6.1 1.3 -0.5
v -6.1 1.6 -0.5
v -1.9 0 -0.5
v -1.9 1.3 -0.5
v -1.9 1.6 -0.5
v 2 0 -0.5
v 2 1.3 -0.5
v 2 1.6 -0.5
v 6.2 0 -0.5
v 6.2 1.3 -0.5
v 6.2 1.6 -0.5
v -6 0.1 -3.6
v -6 1.3 -3.6
v -6 1.5 -3.6
v -2 0.1 -3.6
v -2 1.3 -3.6
v -2 1.5 -3.6
v 2.1 0.1 -3.6
v 2.1 1.3 -3.6
v 2.1 1.5 -3.6
v 6.1 0.1 -3.6
v 6.1 1.3 -3.6
v 6.1 1.5 -3.6
v -12.6 0.1 -6.6
v -12.6 1.4 -6.6
v -12.6 1.5 -6.6
v -11.7 0.1 -6.6
v -11.7 1.4 -6.6
v -11.7 1.5 -6.6
v -11.6 0 -6.6
v -11.6 1.4 -6.6
v -11.6 1.6 -6.6
v -1.4 0 -6.6
v -1.4 1.4 -6.6
v -1.4 1.6 -6.6
v 1.5 0 -6.6
v 1.5 1.4 -6.6
v 1.5 1.6 -6.6
v 11.7 0 -6.6
v 11.7 1.4 -6.6
v 11.7 1.6 -6.6
v 11.8 0.1 -6.6
v 11.8 1.4 -6.6
v 11.8 1.5 -6.6
v 12.7 0.1 -6.6
v 12.7 1.4 -6.6
v 12.7 1.5 -6.6
v -12.6 0.1 -7.6
v -12.6 1.4 -7.6
v -12.6 1.5 -7.6
v -1.5 0.1 -7.6
v -1.5 1.4 -7.6
v -1.5 1.5 -7.6
v 1.6 0.1 -7.6
v 1.6 1.4 -7.6
v 1.6 1.5 -7.6
v 12.7 0.1 -7.6
v 12.7 1.4 -7.6
v 12.7 1.5 -7.6
v -1.4 0 -11.7
v -1.4 1.4 -11.7
v -1.4 1.6 -11.7
v 1.5 0 -11.7
v 1.5 1.4 -11.7
v 1.5 1.6 -11.7
v -2.4 0.1 -12.7
v -2.4 1.4 -12.7
v -2.4 1.5 -12.7
v -1.5 0.1 -12.7
v -1.5 1.4 -12.7
v -1.5 1.5 -12.7
v -1.4 0.1 -12.7
v -1.4 1.4 -12.7
v -1.4 1.5 -12.7
v 1.5 0.1 -12.7
v 1.5 1.4 -12.7
v 1.5 1.5 -12.7
v 1.6 0.1 -12.7
v 1.6 1.4 -12.7
v 1.6 1.5 -12.7
v 2.5 0.1 -12.7
v 2.5 1.4 -12.7
v 2.5 1.5 -12.7
v -12.6 0.1 12.6
v -12.6 1.4 12.6
v -12.6 1.5 12.6
v -11.7 0.1 12.6
v -11.7 1.4 12.6
v -11.7 1.5 12.6
v -11.6 0.1 12.6
v -11.6 1.4 12.6
v -11.6 1.5 12.6
v -6.1 0.1 12.6
v -6.1 1.4 12.6
v -6.1 1.5 12.6
v -6 0.1 12.6
v -6 1.4 12.6
v -6 1.5 12.6
v -2 0.1 12.6
v -2 1.4 12.6
v -2 1.5 12.6
v 2.1 0.1 12.6
v 2.1 1.4 12.6
v 2.1 1.5 12.6
v 6.1 0.1 12.6
v 6.1 1.4 12.6
v 6.1 1.5 12.6
v 6.2 0.1 12.6
v 6.2 1.4 12.6
v 6.2 1.5 12.6
v 11.7 0.1 12.6
v 11.7 1.4 12.6
v 11.7 1.5 12.6
v 11.8 0.1 12.6
v 11.8 1.4 12.6
v 11.8 1.5 12.6
v 12.7 0.1 12.6
v 12.7 1.4 12.6
v 12.7 1.5 12.6
v -11.6 0 11.6
v -11.6 1.4 11.6
v -11.6 1.6 11.6
v -6.1 0 11.6
v -6.1 1.4 11.6
v -6.1 1.6 11.6
v 6.2 0 11.6
v 6.2 1.4 11.6
v 6.2 1.6 11.6
v 11.7 0 11.6
v 11.7 1.4 11.6
v 11.7 1.6 11.6
v -6.1 0 9.6
v -6.1 1.4 9.6
v -6.1 1.6 9.6
v -1.9 0 9.6
v -1.9 1.4 9.6
v -1.9 1.6 9.6
v 2 0 9.6
v 2 1.4 9.6
v 2 1.6 9.6
v 6.2 0 9.6
v 6.2 1.4 9.6
v 6.2 1.6 9.6
v -6 0.1 -0.6
v -6 1.3 -0.6
v -6 1.5 -0.6
v -2 0.1 -0.6
v -2 1.3 -0.6
v -2 1.5 -0.6
v 2.1 0.1 -0.6
v 2.1 1.3 -0.6
v 2.1 1.5 -0.6
v 6.1 0.1 -0.6
v 6.1 1.3 -0.6
v 6.1 1.5 -0.6
v -6.1 0 -3.7
v -6.1 1.3 -3.7
v -6.1 1.6 -3.7
v -1.9 0 -3.7
v -1.9 1.3 -3.7
v -1.9 1.6 -3.7
v 2 0 -3.7
v 2 1.3 -3.7
v 2 1.6 -3.7
v 6.2 0 -3.7
v 6.2 1.3 -3.7
v 6.2 1.6 -3.7
v -12.6 0.1 -6.7
v -12.6 1.4 -6.7
v -12.6 1.5 -6.7
v -1.5 0.1 -6.7
v -1.5 1.4 -6.7
v -1.5 1.5 -6.7
v 1.6 0.1 -6.7
v 1.6 1.4 -6.7
v 1.6 1.5 -6.7
v 12.7 0.1 -6.7
v 12.7 1.4 -6.7
v 12.7 1.5 -6.7
v -2.4 0.1 -7.7
v -2.4 1.4 -7.7
v -2.4 1.5 -7.7
v -1.5 0.1 -7.7
v -1.5 1.4 -7.7
v -1.5 1.5 -7.7
v 1.6 0.1 -7.7
v 1.6 1.4 -7.7
v 1.6 1.5 -7.7
v 2.5 0.1 -7.7
v 2.5 1.4 -7.7
v 2.5 1.5 -7.7
v -1.4 0.1 -11.8
v -1.4 1.4 -11.8
v -1.4 1.5 -11.8
v 1.5 0.1 -11.8
v 1.5 1.4 -11.8
v 1.5 1.5 -11.8
v -12.7 0 -12.8
v -12.7 1.4 -12.8
v -12.7 1.6 -12.8
v 12.8 0 -12.8
v 12.8 1.4 -12.8
v 12.8 1.6 -12.8
v -12.7 0 12.7
v -1.9 0 12.7
v 2 0 12.7
v 12.8 0 12.7
v -11.6 0 11.6
v -6.1 0 11.6
v 6.2 0 11.6
v 11.7 0 11.6
v -6.1 0 9.6
v -1.9 0 9.6
v 2 0 9.6
v 6.2 0 9.6
v -6.1 0 -0.5
v -1.9 0 -0.5
v 2 0 -0.5
v 6.2 0 -0.5
v -6.1 0 -3.7
v -1.9 0 -3.7
v 2 0 -3.7
v 6.2 0 -3.7
v -11.6 0 -6.6
v -1.4 0 -6.6
v 1.5 0 -6.6
v 11.7 0 -6.6
v -1.4 0 -11.7
v 1.5 0 -11.7
v -12.7 0 -12.8
v 12.8 0 -12.8
v -12.6 1.5 12.6
v -11.7 1.5 12.6
v -11.6 1.5 12.6
v -6.1 1.5 12.6
v -6 1.5 12.6
v -2 1.5 12.6
v 2.1 1.5 12.6
v 6.1 1.5 12.6
v 6.2 1.5 12.6
v 11.7 1.5 12.6
v 11.8 1.5 12.6
v 12.7 1.5 12.6
v -11.6 1.5 11.7
v -6.1 1.5 11.7
v 6.2 1.5 11.7
v 11.7 1.5 11.7
v -6 1.5 9.7
v -2 1.5 9.7
v 2.1 1.5 9.7
v 6.1 1.5 9.7
v -6 1.5 -0.6
v -2 1.5 -0.6
v 2.1 1.5 -0.6
v 6.1 1.5 -0.6
v -6 1.5 -3.6
v -2 1.5 -3.6
v 2.1 1.5 -3.6
v 6.1 1.5 -3.6
v -12.6 1.5 -6.6
v -11.7 1.5 -6.6
v 11.8 1.5 -6.6
v 12.7 1.5 -6.6
v -12.6 1.5 -6.7
v -1.5 1.5 -6.7
v 1.6 1.5 -6.7
v 12.7 1.5 -6.7
v -12.6 1.5 -7.6
v -1.5 1.5 -7.6
v 1.6 1.5 -7.6
v 12.7 1.5 -7.6
v -2.4 1.5 -7.7
v -1.5 1.5 -7.7
v 1.6 1.5 -7.7
v 2.5 1.5 -7.7
v -1.4 1.5 -11.8
v 1.5 1.5 -11.8
v -2.4 1.5 -12.7
v -1.5 1.5 -12.7
v -1.4 1.5 -12.7
v 1.5 1.5 -12.7
v 1.6 1.5 -12.7
v 2.5 1.5 -12.7
v -12.6 0.1 12.6
v -11.7 0.1 12.6
v -11.6 0.1 12.6
v -6.1 0.1 12.6
v -6 0.1 12.6
v -2 0.1 12.6
v 2.1 0.1 12.6
v 6.1 0.1 12.6
v 6.2 0.1 12.6
v 11.7 0.1 12.6
v 11.8 0.1 12.6
v 12.7 0.1 12.6
v -11.6 0.1 11.7
v -6.1 0.1 11.7
v 6.2 0.1 11.7
v 11.7 0.1 11.7
v -6 0.1 9.7
v -2 0.1 9.7
v 2.1 0.1 9.7
v 6.1 0.1 9.7
v -6 0.1 -0.6
v -2 0.1 -0.6
v 2.1 0.1 -0.6
v 6.1 0.1 -0.6
v -6 0.1 -3.6
v -2 0.1 -3.6
v 2.1 0.1 -3.6
v 6.1 0.1 -3.6
v -12.6 0.1 -6.6
v -11.7 0.1 -6.6
v 11.8 0.1 -6.6
v 12.7 0.1 -6.6
v -12.6 0.1 -6.7
v -1.5 0.1 -6.7
v 1.6 0.1 -6.7
v 12.7 0.1 -6.7
v -12.6 0.1 -7.6
v -1.5 0.1 -7.6
v 1.6 0.1 -7.6
v 12.7 0.1 -7.6
v -2.4 0.1 -7.7
v -1.5 0.1 -7.7
v 1.6 0.1 -7.7
v 2.5 0.1 -7.7
v -1.4 0.1 -11.8
v 1.5 0.1 -11.8
v -2.4 0.1 -12.7
v -1.5 0.1 -12.7
v -1.4 0.1 -12.7
v 1.5 0.1 -12.7
v 1.6 0.1 -12.7
v 2.5 0.1 -12.7
v -12.7 1.6 12.7
v -1.9 1.6 12.7
v 2 1.6 12.7
v 12.8 1.6 12.7
v -11.6 1.6 11.6
v -6.1 1.6 11.6
v 6.2 1.6 11.6
v 11.7 1.6 11.6
v -6.1 1.6 9.6
v -1.9 1.6 9.6
v 2 1.6 9.6
v 6.2 1.6 9.6
v -6.1 1.6 -0.5
v -1.9 1.6 -0.5
v 2 1.6 -0.5
v 6.2 1.6 -0.5
v -6.1 1.6 -3.7
v -1.9 1.6 -3.7
v 2 1.6 -3.7
v 6.2 1.6 -3.7
v -11.6 1.6 -6.6
v -1.4 1.6 -6.6
v 1.5 1.6 -6.6
v 11.7 1.6 -6.6
v -1.4 1.6 -11.7
v 1.5 1.6 -11.7
v -12.7 1.6 -12.8
v 12.8 1.6 -12.8

# faces
f 3/2/1 2/2/1 1/2/1
f 4/2/1 2/2/1 3/2/1
f 5/1/1 4/1/1 3/1/1
f 6/1/1 4/1/1 5/1/1
f 9/2/1 8/2/1 7/2/1
f 10/2/1 8/2/1 9/2/1
f 11/1/1 10/1/1 9/1/1
f 12/1/1 10/1/1 11/1/1
f 19/2/1 16/2/1 15/2/1
f 20/2/1 16/2/1 19/2/1
f 21/2/1 18/2/1 17/2/1
f 22/2/1 18/2/1 21/2/1
f 23/2/1 14/2/1 13/2/1
f 24/2/1 14/2/1 23/2/1
f 25/1/1 22/1/1 21/1/1
f 26/1/1 22/1/1 25/1/1
f 27/1/1 24/1/1 23/1/1
f 28/1/1 24/1/1 27/1/1
f 29/1/1 20/1/1 19/1/1
f 30/1/1 20/1/1 29/1/1
f 35/2/1 34/2/1 33/2/1
f 36/2/1 34/2/1 35/2/1
f 37/2/1 32/2/1 31/2/1
f 38/2/1 32/2/1 37/2/1
f 39/1/1 38/1/1 37/1/1
f 40/1/1 38/1/1 39/1/1
f 41/1/1 36/1/1 35/1/1
f 42/1/1 36/1/1 41/1/1
f 47/2/1 44/2/1 43/2/1
f 48/2/1 44/2/1 47/2/1
f 49/2/1 46/2/1 45/2/1
f 50/2/1 46/2/1 49/2/1
f 51/1/1 48/1/1 47/1/1
f 52/1/1 48/1/1 51/1/1
f 53/1/1 50/1/1 49/1/1
f 54/1/1 50/1/1 53/1/1
f 59/2/1 56/2/1 55/2/1
f 60/2/1 56/2/1 59/2/1
f 61/2/1 58/2/1 57/2/1
f 62/2/1 58/2/1 61/2/1
f 63/1/1 62/1/1 61/1/1
f 64/1/1 62/1/1 63/1/1
f 65/1/1 60/1/1 59/1/1
f 66/1/1 60/1/1 65/1/1
f 71/2/1 70/2/1 69/2/1
f 72/2/1 70/2/1 71/2/1
f 73/2/1 68/2/1 67/2/1
f 74/2/1 68/2/1 73/2/1
f 75/1/1 74/1/1 73/1/1
f 76/1/1 74/1/1 75/1/1
f 77/1/1 72/1/1 71/1/1
f 78/1/1 72/1/1 77/1/1
f 81/2/1 80/2/1 79/2/1
f 82/2/1 80/2/1 81/2/1
f 83/1/1 82/1/1 81/1/1
f 84/1/1 82/1/1 83/1/1
f 89/2/1 88/2/1 87/2/1
f 90/2/1 88/2/1 89/2/1
f 91/2/1 86/2/1 85/2/1
f 92/2/1 86/2/1 91/2/1
f 93/1/1 92/1/1 91/1/1
f 94/1/1 92/1/1 93/1/1
f 95/1/1 90/1/1 89/1/1
f 96/1/1 90/1/1 95/1/1
f 101/2/1 100/2/1 99/2/1
f 102/2/1 100/2/1 101/2/1
f 103/2/1 98/2/1 97/2/1
f 104/2/1 98/2/1 103/2/1
f 105/1/1 102/1/1 101/1/1
f 106/1/1 102/1/1 105/1/1
f 107/1/1 104/1/1 103/1/1
f 108/1/1 104/1/1 107/1/1
f 113/2/1 110/2/1 109/2/1
f 114/2/1 110/2/1 113/2/1
f 115/2/1 112/2/1 111/2/1
f 116/2/1 112/2/1 115/2/1
f 117/1/1 114/1/1 113/1/1
f 118/1/1 114/1/1 117/1/1
f 119/1/1 116/1/1 115/1/1
f 120/1/1 116/1/1 119/1/1
f 121/2/2 122/2/2 125/2/2
f 125/2/2 122/2/2 126/2/2
f 123/2/2 124/2/2 127/2/2
f 127/2/2 124/2/2 128/2/2
f 125/1/2 126/1/2 129/1/2
f 129/1/2 126/1/2 130/1/2
f 127/1/2 128/1/2 131/1/2
f 131/1/2 128/1/2 132/1/2
f 135/2/2 136/2/2 137/2/2
f 137/2/2 136/2/2 138/2/2
f 133/2/2 134/2/2 139/2/2
f 139/2/2 134/2/2 140/2/2
f 137/1/2 138/1/2 141/1/2
f 141/1/2 138/1/2 142/1/2
f 139/1/2 140/1/2 143/1/2
f 143/1/2 140/1/2 144/1/2
f 147/2/2 148/2/2 149/2/2
f 149/2/2 148/2/2 150/2/2
f 145/2/2 146/2/2 151/2/2
f 151/2/2 146/2/2 152/2/2
f 151/1/2 152/1/2 153/1/2
f 153/1/2 152/1/2 154/1/2
f 149/1/2 150/1/2 155/1/2
f 155/1/2 150/1/2 156/1/2
f 157/2/2 158/2/2 159/2/2
f 159/2/2 158/2/2 160/2/2
f 159/1/2 160/1/2 161/1/2
f 161/1/2 160/1/2 162/1/2
f 165/2/2 166/2/2 167/2/2
f 167/2/2 166/2/2 168/2/2
f 163/2/2 164/2/2 169/2/2
f 169/2/2 164/2/2 170/2/2
f 169/1/2 170/1/2 171/1/2
f 171/1/2 170/1/2 172/1/2
f 167/1/2 168/1/2 173/1/2
f 173/1/2 168/1/2 174/1/2
f 175/2/2 176/2/2 179/2/2
f 179/2/2 176/2/2 180/2/2
f 177/2/2 178/2/2 181/2/2
f 181/2/2 178/2/2 182/2/2
f 181/1/2 182/1/2 183/1/2
f 183/1/2 182/1/2 184/1/2
f 179/1/2 180/1/2 185/1/2
f 185/1/2 180/1/2 186/1/2
f 187/2/2 188/2/2 191/2/2
f 191/2/2 188/2/2 192/2/2
f 189/2/2 190/2/2 193/2/2
f 193/2/2 190/2/2 194/2/2
f 191/1/2 192/1/2 195/1/2
f 195/1/2 192/1/2 196/1/2
f 193/1/2 194/1/2 197/1/2
f 197/1/2 194/1/2 198/1/2
f 201/2/2 202/2/2 203/2/2
f 203/2/2 202/2/2 204/2/2
f 199/2/2 200/2/2 205/2/2
f 205/2/2 200/2/2 206/2/2
f 205/1/2 206/1/2 207/1/2
f 207/1/2 206/1/2 208/1/2
f 203/1/2 204/1/2 209/1/2
f 209/1/2 204/1/2 210/1/2
f 213/2/2 214/2/2 217/2/2
f 217/2/2 214/2/2 218/2/2
f 215/2/2 216/2/2 219/2/2
f 219/2/2 216/2/2 220/2/2
f 211/2/2 212/2/2 221/2/2
f 221/2/2 212/2/2 222/2/2
f 219/1/2 220/1/2 223/1/2
f 223/1/2 220/1/2 224/1/2
f 221/1/2 222/1/2 225/1/2
f 225/1/2 222/1/2 226/1/2
f 217/1/2 218/1/2 227/1/2
f 227/1/2 218/1/2 228/1/2
f 229/2/2 230/2/2 231/2/2
f 231/2/2 230/2/2 232/2/2
f 231/1/2 232/1/2 233/1/2
f 233/1/2 232/1/2 234/1/2
f 235/2/2 236/2/2 237/2/2
f 237/2/2 236/2/2 238/2/2
f 237/1/2 238/1/2 239/1/2
f 239/1/2 238/1/2 240/1/2
f 244/2/3 242/2/3 241/2/3
f 245/1/3 243/1/3 242/1/3
f 245/2/3 242/2/3 244/2/3
f 246/1/3 243/1/3 245/1/3
f 250/2/3 248/2/3 247/2/3
f 251/1/3 249/1/3 248/1/3
f 251/2/3 248/2/3 250/2/3
f 252/1/3 249/1/3 251/1/3
f 256/2/3 254/2/3 253/2/3
f 257/1/3 255/1/3 254/1/3
f 257/2/3 254/2/3 256/2/3
f 258/1/3 255/1/3 257/1/3
f 262/2/3 260/2/3 259/2/3
f 263/1/3 261/1/3 260/1/3
f 263/2/3 260/2/3 262/2/3
f 264/1/3 261/1/3 263/1/3
f 268/2/3 266/2/3 265/2/3
f 269/1/3 267/1/3 266/1/3
f 269/2/3 266/2/3 268/2/3
f 270/1/3 267/1/3 269/1/3
f 274/2/3 272/2/3 271/2/3
f 275/1/3 273/1/3 272/1/3
f 275/2/3 272/2/3 274/2/3
f 276/1/3 273/1/3 275/1/3
f 280/2/3 278/2/3 277/2/3
f 281/1/3 279/1/3 278/1/3
f 281/2/3 278/2/3 280/2/3
f 282/1/3 279/1/3 281/1/3
f 286/2/3 284/2/3 283/2/3
f 287/1/3 285/1/3 284/1/3
f 287/2/3 284/2/3 286/2/3
f 288/1/3 285/1/3 287/1/3
f 292/2/3 290/2/3 289/2/3
f 293/1/3 291/1/3 290/1/3
f 293/2/3 290/2/3 292/2/3
f 294/1/3 291/1/3 293/1/3
f 298/2/3 296/2/3 295/2/3
f 299/1/3 297/1/3 296/1/3
f 299/2/3 296/2/3 298/2/3
f 300/1/3 297/1/3 299/1/3
f 304/2/3 302/2/3 301/2/3
f 305/1/3 303/1/3 302/1/3
f 305/2/3 302/2/3 304/2/3
f 306/1/3 303/1/3 305/1/3
f 310/2/3 308/2/3 307/2/3
f 311/1/3 309/1/3 308/1/3
f 311/2/3 308/2/3 310/2/3
f 312/1/3 309/1/3 311/1/3
f 316/2/3 314/2/3 313/2/3
f 317/1/3 315/1/3 314/1/3
f 317/2/3 314/2/3 316/2/3
f 318/1/3 315/1/3 317/1/3
f 322/2/3 320/2/3 319/2/3
f 323/1/3 321/1/3 320/1/3
f 323/2/3 320/2/3 322/2/3
f 324/1/3 321/1/3 323/1/3
f 328/2/3 326/2/3 325/2/3
f 329/1/3 327/1/3 326/1/3
f 329/2/3 326/2/3 328/2/3
f 330/1/3 327/1/3 329/1/3
f 334/2/3 332/2/3 331/2/3
f 335/1/3 333/1/3 332/1/3
f 335/2/3 332/2/3 334/2/3
f 336/1/3 333/1/3 335/1/3
f 340/2/3 338/2/3 337/2/3
f 341/1/3 339/1/3 338/1/3
f 341/2/3 338/2/3 340/2/3
f 342/1/3 339/1/3 341/1/3
f 346/2/3 344/2/3 343/2/3
f 347/1/3 345/1/3 344/1/3
f 347/2/3 344/2/3 346/2/3
f 348/1/3 345/1/3 347/1/3
f 352/2/3 350/2/3 349/2/3
f 353/1/3 351/1/3 350/1/3
f 353/2/3 350/2/3 352/2/3
f 354/1/3 351/1/3 353/1/3
f 358/2/3 356/2/3 355/2/3
f 359/1/3 357/1/3 356/1/3
f 359/2/3 356/2/3 358/2/3
f 360/1/3 357/1/3 359/1/3
f 361/2/4 362/2/4 364/2/4
f 362/1/4 363/1/4 365/1/4
f 364/2/4 362/2/4 365/2/4
f 365/1/4 363/1/4 366/1/4
f 367/2/4 368/2/4 370/2/4
f 368/1/4 369/1/4 371/1/4
f 370/2/4 368/2/4 371/2/4
f 371/1/4 369/1/4 372/1/4
f 373/2/4 374/2/4 376/2/4
f 374/1/4 375/1/4 377/1/4
f 376/2/4 374/2/4 377/2/4
f 377/1/4 375/1/4 378/1/4
f 379/2/4 380/2/4 382/2/4
f 380/1/4 381/1/4 383/1/4
f 382/2/4 380/2/4 383/2/4
f 383/1/4 381/1/4 384/1/4
f 385/2/4 386/2/4 388/2/4
f 386/1/4 387/1/4 389/1/4
f 388/2/4 386/2/4 389/2/4
f 389/1/4 387/1/4 390/1/4
f 391/2/4 392/2/4 394/2/4
f 392/1/4 393/1/4 395/1/4
f 394/2/4 392/2/4 395/2/4
f 395/1/4 393/1/4 396/1/4
f 397/2/4 398/2/4 400/2/4
f 398/1/4 399/1/4 401/1/4
f 400/2/4 398/2/4 401/2/4
f 401/1/4 399/1/4 402/1/4
f 403/2/4 404/2/4 406/2/4
f 404/1/4 405/1/4 407/1/4
f 406/2/4 404/2/4 407/2/4
f 407/1/4 405/1/4 408/1/4
f 409/2/4 410/2/4 412/2/4
f 410/1/4 411/1/4 413/1/4
f 412/2/4 410/2/4 413/2/4
f 413/1/4 411/1/4 414/1/4
f 415/2/4 416/2/4 418/2/4
f 416/1/4 417/1/4 419/1/4
f 418/2/4 416/2/4 419/2/4
f 419/1/4 417/1/4 420/1/4
f 421/2/4 422/2/4 424/2/4
f 422/1/4 423/1/4 425/1/4
f 424/2/4 422/2/4 425/2/4
f 425/1/4 423/1/4 426/1/4
f 427/2/4 428/2/4 430/2/4
f 428/1/4 429/1/4 431/1/4
f 430/2/4 428/2/4 431/2/4
f 431/1/4 429/1/4 432/1/4
f 433/2/4 434/2/4 436/2/4
f 434/1/4 435/1/4 437/1/4
f 436/2/4 434/2/4 437/2/4
f 437/1/4 435/1/4 438/1/4
f 439/2/4 440/2/4 442/2/4
f 440/1/4 441/1/4 443/1/4
f 442/2/4 440/2/4 443/2/4
f 443/1/4 441/1/4 444/1/4
f 445/2/4 446/2/4 448/2/4
f 446/1/4 447/1/4 449/1/4
f 448/2/4 446/2/4 449/2/4
f 449/1/4 447/1/4 450/1/4
f 451/2/4 452/2/4 454/2/4
f 452/1/4 453/1/4 455/1/4
f 454/2/4 452/2/4 455/2/4
f 455/1/4 453/1/4 456/1/4
f 457/2/4 458/2/4 460/2/4
f 458/1/4 459/1/4 461/1/4
f 460/2/4 458/2/4 461/2/4
f 461/1/4 459/1/4 462/1/4
f 463/2/4 464/2/4 466/2/4
f 464/1/4 465/1/4 467/1/4
f 466/2/4 464/2/4 467/2/4
f 467/1/4 465/1/4 468/1/4
f 469/2/4 470/2/4 472/2/4
f 470/1/4 471/1/4 473/1/4
f 472/2/4 470/2/4 473/2/4
f 473/1/4 471/1/4 474/1/4
f 475/2/4 476/2/4 478/2/4
f 476/1/4 477/1/4 479/1/4
f 478/2/4 476/2/4 479/2/4
f 479/1/4 477/1/4 480/1/4
f 485/2/5 482/2/5 481/2/5
f 486/2/5 482/2/5 485/2/5
f 487/2/5 484/2/5 483/2/5
f 488/2/5 484/2/5 487/2/5
f 489/2/5 482/2/5 486/2/5
f 490/2/5 482/2/5 489/2/5
f 491/2/5 487/2/5 483/2/5
f 492/2/5 487/2/5 491/2/5
f 497/2/5 494/2/5 493/2/5
f 498/2/5 494/2/5 497/2/5
f 499/2/5 496/2/5 495/2/5
f 500/2/5 496/2/5 499/2/5
f 501/2/5 485/2/5 481/2/5
f 504/2/5 484/2/5 488/2/5
f 505/2/5 502/2/5 501/2/5
f 506/2/5 504/2/5 503/2/5
f 507/2/5 505/2/5 501/2/5
f 507/2/5 506/2/5 505/2/5
f 507/2/5 501/2/5 481/2/5
f 508/2/5 504/2/5 506/2/5
f 508/2/5 506/2/5 507/2/5
f 508/2/5 484/2/5 504/2/5
f 521/1/5 512/1/5 511/1/5
f 522/1/5 512/1/5 521/1/5
f 523/1/5 518/1/5 517/1/5
f 524/1/5 518/1/5 523/1/5
f 525/1/5 514/1/5 513/1/5
f 526/1/5 514/1/5 525/1/5
f 527/1/5 516/1/5 515/1/5
f 528/1/5 516/1/5 527/1/5
f 533/1/5 530/1/5 529/1/5
f 534/1/5 530/1/5 533/1/5
f 535/1/5 532/1/5 531/1/5
f 536/1/5 532/1/5 535/1/5
f 537/1/5 510/1/5 509/1/5
f 538/1/5 510/1/5 537/1/5
f 539/1/5 520/1/5 519/1/5
f 540/1/5 520/1/5 539/1/5
f 545/1/5 542/1/5 541/1/5
f 546/1/5 542/1/5 545/1/5
f 547/1/5 544/1/5 543/1/5
f 548/1/5 544/1/5 547/1/5
f 555/1/5 550/1/5 549/1/5
f 556/1/5 550/1/5 555/1/5
f 557/1/5 554/1/5 553/1/5
f 558/1/5 554/1/5 557/1/5
f 559/1/5 552/1/5 551/1/5
f 560/1/5 552/1/5 559/1/5
f 563/2/6 564/2/6 573/2/6
f 573/2/6 564/2/6 574/2/6
f 569/2/6 570/2/6 575/2/6
f 575/2/6 570/2/6 576/2/6
f 565/2/6 566/2/6 577/2/6
f 577/2/6 566/2/6 578/2/6
f 567/2/6 568/2/6 579/2/6
f 579/2/6 568/2/6 580/2/6
f 581/2/6 582/2/6 585/2/6
f 585/2/6 582/2/6 586/2/6
f 583/2/6 584/2/6 587/2/6
f 587/2/6 584/2/6 588/2/6
f 561/2/6 562/2/6 589/2/6
f 589/2/6 562/2/6 590/2/6
f 571/2/6 572/2/6 591/2/6
f 591/2/6 572/2/6 592/2/6
f 593/2/6 594/2/6 597/2/6
f 597/2/6 594/2/6 598/2/6
f 595/2/6 596/2/6 599/2/6
f 599/2/6 596/2/6 600/2/6
f 601/2/6 602/2/6 607/2/6
f 607/2/6 602/2/6 608/2/6
f 605/2/6 606/2/6 609/2/6
f 609/2/6 606/2/6 610/2/6
f 603/2/6 604/2/6 611/2/6
f 611/2/6 604/2/6 612/2/6
f 613/1/6 614/1/6 617/1/6
f 617/1/6 614/1/6 618/1/6
f 615/1/6 616/1/6 619/1/6
f 619/1/6 616/1/6 620/1/6
f 618/1/6 614/1/6 621/1/6
f 621/1/6 614/1/6 622/1/6
f 615/1/6 619/1/6 623/1/6
f 623/1/6 619/1/6 624/1/6
f 625/1/6 626/1/6 629/1/6
f 629/1/6 626/1/6 630/1/6
f 627/1/6 628/1/6 631/1/6
f 631/1/6 628/1/6 632/1/6
f 613/1/6 617/1/6 633/1/6
f 620/1/6 616/1/6 636/1/6
f 633/1/6 634/1/6 637/1/6
f 635/1/6 636/1/6 638/1/6
f 633/1/6 637/1/6 639/1/6
f 637/1/6 638/1/6 639/1/6
f 613/1/6 633/1/6 639/1/6
f 638/1/6 636/1/6 640/1/6
f 639/1/6 638/1/6 640/1/6
f 636/1/6 616/1/6 640/1/6
