# MagicaVoxel @ Ephtracy

# group
o Stage1-B

# material
mtllib stage1-B-0-Stage1-B.mtl
usemtl palette

# normals
vn -1 0 0
vn 1 0 0
vn 0 0 1
vn 0 0 -1
vn 0 -1 0
vn 0 1 0

# texcoords
vt 0.373047 0.5
vt 0.896484 0.5

# verts
v -12.8 0 12.8
v -12.8 0 -12.8
v -12.8 1.4 12.8
v -12.8 1.4 -12.8
v -12.8 1.5 12.8
v -12.8 1.5 -12.8
v -9.1 0.1 9
v -9.1 0.1 -9
v -9.1 1.4 9
v -9.1 1.4 -9
v 9 0 9
v 9 0 -9
v 9 1.4 9
v 9 1.4 -9
v 9 1.5 9
v 9 1.5 -9
v 9.9 0.1 9.9
v 9.9 0.1 9.1
v 9.9 0.1 9
v 9.9 0.1 -9
v 9.9 0.1 -9.1
v 9.9 0.1 -9.9
v 9.9 1.4 9.9
v 9.9 1.4 9.1
v 9.9 1.4 9
v 9.9 1.4 -9
v 9.9 1.4 -9.1
v 9.9 1.4 -9.9
v -9.9 0.1 9.9
v -9.9 0.1 9.1
v -9.9 0.1 9
v -9.9 0.1 -9
v -9.9 0.1 -9.1
v -9.9 0.1 -9.9
v -9.9 1.4 9.9
v -9.9 1.4 9.1
v -9.9 1.4 9
v -9.9 1.4 -9
v -9.9 1.4 -9.1
v -9.9 1.4 -9.9
v -9 0 9
v -9 0 -9
v -9 1.4 9
v -9 1.4 -9
v -9 1.5 9
v -9 1.5 -9
v 9.1 0.1 9
v 9.1 0.1 -9
v 9.1 1.4 9
v 9.1 1.4 -9
v 12.8 0 12.8
v 12.8 0 -12.8
v 12.8 1.4 12.8
v 12.8 1.4 -12.8
v 12.8 1.5 12.8
v 12.8 1.5 -12.8
v -12.8 0 12.8
v -12.8 1.4 12.8
v -12.8 1.5 12.8
v 12.8 0 12.8
v 12.8 1.4 12.8
v 12.8 1.5 12.8
v -9.9 0.1 9.1
v -9.9 1.4 9.1
v 9.9 0.1 9.1
v 9.9 1.4 9.1
v -9.9 0.1 -9
v -9.9 1.4 -9
v -9.1 0.1 -9
v -9.1 1.4 -9
v -9 0 -9
v -9 1.4 -9
v -9 1.5 -9
v 9 0 -9
v 9 1.4 -9
v 9 1.5 -9
v 9.1 0.1 -9
v 9.1 1.4 -9
v 9.9 0.1 -9
v 9.9 1.4 -9
v -9.9 0.1 -9.9
v -9.9 1.4 -9.9
v 9.9 0.1 -9.9
v 9.9 1.4 -9.9
v -9.9 0.1 9.9
v -9.9 1.4 9.9
v 9.9 0.1 9.9
v 9.9 1.4 9.9
v -9.9 0.1 9
v -9.9 1.4 9
v -9.1 0.1 9
v -9.1 1.4 9
v -9 0 9
v -9 1.4 9
v -9 1.5 9
v 9 0 9
v 9 1.4 9
v 9 1.5 9
v 9.1 0.1 9
v 9.1 1.4 9
v 9.9 0.1 9
v 9.9 1.4 9
v -9.9 0.1 -9.1
v -9.9 1.4 -9.1
v 9.9 0.1 -9.1
v 9.9 1.4 -9.1
v -12.8 0 -12.8
v -12.8 1.4 -12.8
v -12.8 1.5 -12.8
v 12.8 0 -12.8
v 12.8 1.4 -12.8
v 12.8 1.5 -12.8
v -12.8 0 12.8
v 12.8 0 12.8
v -9 0 9
v 9 0 9
v -9 0 -9
v 9 0 -9
v -12.8 0 -12.8
v 12.8 0 -12.8
v -9.9 1.4 9.9
v 9.9 1.4 9.9
v -9.9 1.4 9.1
v 9.9 1.4 9.1
v -9.9 1.4 9
v -9.1 1.4 9
v 9.1 1.4 9
v 9.9 1.4 9
v -9.9 1.4 -9
v -9.1 1.4 -9
v 9.1 1.4 -9
v 9.9 1.4 -9
v -9.9 1.4 -9.1
v 9.9 1.4 -9.1
v -9.9 1.4 -9.9
v 9.9 1.4 -9.9
v -9.9 0.1 9.9
v 9.9 0.1 9.9
v -9.9 0.1 9.1
v 9.9 0.1 9.1
v -9.9 0.1 9
v -9.1 0.1 9
v 9.1 0.1 9
v 9.9 0.1 9
v -9.9 0.1 -9
v -9.1 0.1 -9
v 9.1 0.1 -9
v 9.9 0.1 -9
v -9.9 0.1 -9.1
v 9.9 0.1 -9.1
v -9.9 0.1 -9.9
v 9.9 0.1 -9.9
v -12.8 1.5 12.8
v 12.8 1.5 12.8
v -9 1.5 9
v 9 1.5 9
v -9 1.5 -9
v 9 1.5 -9
v -12.8 1.5 -12.8
v 12.8 1.5 -12.8

# faces
f 3/1/1 2/1/1 1/1/1
f 4/1/1 2/1/1 3/1/1
f 5/2/1 4/2/1 3/2/1
f 6/2/1 4/2/1 5/2/1
f 9/1/1 8/1/1 7/1/1
f 10/1/1 8/1/1 9/1/1
f 13/1/1 12/1/1 11/1/1
f 14/1/1 12/1/1 13/1/1
f 15/2/1 14/2/1 13/2/1
f 16/2/1 14/2/1 15/2/1
f 23/1/1 18/1/1 17/1/1
f 24/1/1 18/1/1 23/1/1
f 25/1/1 20/1/1 19/1/1
f 26/1/1 20/1/1 25/1/1
f 27/1/1 22/1/1 21/1/1
f 28/1/1 22/1/1 27/1/1
f 29/1/2 30/1/2 35/1/2
f 35/1/2 30/1/2 36/1/2
f 31/1/2 32/1/2 37/1/2
f 37/1/2 32/1/2 38/1/2
f 33/1/2 34/1/2 39/1/2
f 39/1/2 34/1/2 40/1/2
f 41/1/2 42/1/2 43/1/2
f 43/1/2 42/1/2 44/1/2
f 43/2/2 44/2/2 45/2/2
f 45/2/2 44/2/2 46/2/2
f 47/1/2 48/1/2 49/1/2
f 49/1/2 48/1/2 50/1/2
f 51/1/2 52/1/2 53/1/2
f 53/1/2 52/1/2 54/1/2
f 53/2/2 54/2/2 55/2/2
f 55/2/2 54/2/2 56/2/2
f 60/1/3 58/1/3 57/1/3
f 61/2/3 59/2/3 58/2/3
f 61/1/3 58/1/3 60/1/3
f 62/2/3 59/2/3 61/2/3
f 65/1/3 64/1/3 63/1/3
f 66/1/3 64/1/3 65/1/3
f 69/1/3 68/1/3 67/1/3
f 70/1/3 68/1/3 69/1/3
f 74/1/3 72/1/3 71/1/3
f 75/2/3 73/2/3 72/2/3
f 75/1/3 72/1/3 74/1/3
f 76/2/3 73/2/3 75/2/3
f 79/1/3 78/1/3 77/1/3
f 80/1/3 78/1/3 79/1/3
f 83/1/3 82/1/3 81/1/3
f 84/1/3 82/1/3 83/1/3
f 85/1/4 86/1/4 87/1/4
f 87/1/4 86/1/4 88/1/4
f 89/1/4 90/1/4 91/1/4
f 91/1/4 90/1/4 92/1/4
f 93/1/4 94/1/4 96/1/4
f 94/2/4 95/2/4 97/2/4
f 96/1/4 94/1/4 97/1/4
f 97/2/4 95/2/4 98/2/4
f 99/1/4 100/1/4 101/1/4
f 101/1/4 100/1/4 102/1/4
f 103/1/4 104/1/4 105/1/4
f 105/1/4 104/1/4 106/1/4
f 107/1/4 108/1/4 110/1/4
f 108/2/4 109/2/4 111/2/4
f 110/1/4 108/1/4 111/1/4
f 111/2/4 109/2/4 112/2/4
f 115/1/5 114/1/5 113/1/5
f 116/1/5 114/1/5 115/1/5
f 117/1/5 115/1/5 113/1/5
f 118/1/5 114/1/5 116/1/5
f 119/1/5 117/1/5 113/1/5
f 119/1/5 118/1/5 117/1/5
f 120/1/5 114/1/5 118/1/5
f 120/1/5 118/1/5 119/1/5
f 123/2/5 122/2/5 121/2/5
f 124/2/5 122/2/5 123/2/5
f 129/2/5 126/2/5 125/2/5
f 130/2/5 126/2/5 129/2/5
f 131/2/5 128/2/5 127/2/5
f 132/2/5 128/2/5 131/2/5
f 135/2/5 134/2/5 133/2/5
f 136/2/5 134/2/5 135/2/5
f 137/1/6 138/1/6 139/1/6
f 139/1/6 138/1/6 140/1/6
f 141/1/6 142/1/6 145/1/6
f 145/1/6 142/1/6 146/1/6
f 143/1/6 144/1/6 147/1/6
f 147/1/6 144/1/6 148/1/6
f 149/1/6 150/1/6 151/1/6
f 151/1/6 150/1/6 152/1/6
f 153/2/6 154/2/6 155/2/6
f 155/2/6 154/2/6 156/2/6
f 153/2/6 155/2/6 157/2/6
f 156/2/6 154/2/6 158/2/6
f 153/2/6 157/2/6 159/2/6
f 157/2/6 158/2/6 159/2/6
f 158/2/6 154/2/6 160/2/6
f 159/2/6 158/2/6 160/2/6
