# MagicaVoxel @ Ephtracy

# group
o Stage1-2

# material
mtllib stage1-2-0-Stage1-2.mtl
usemtl palette

# normals
vn 0 0 1
vn 0 0 -1
vn 1 0 0
vn -1 0 0
vn 0 -1 0
vn 0 1 0

# texcoords
vt 0.373047 0.5
vt 0.896484 0.5

# verts
v 10 0 10
v -10 0 10
v 10 0.7 10
v -10 0.7 10
v 10 0.8 10
v -10 0.8 10
v 4.6 0.1 4.7
v -4.6 0.1 4.7
v 4.6 0.7 4.7
v -4.6 0.7 4.7
v 5 0.1 1.5
v 4.7 0.1 1.5
v -4.7 0.1 1.5
v -5 0.1 1.5
v 5 0.7 1.5
v 4.7 0.7 1.5
v -4.7 0.7 1.5
v -5 0.7 1.5
v 10 0 -1.3
v 4.6 0 -1.3
v -4.6 0 -1.3
v -10 0 -1.3
v 10 0.7 -1.3
v 4.6 0.7 -1.3
v -4.6 0.7 -1.3
v -10 0.7 -1.3
v 10 0.7 -1.4
v 4.7 0.7 -1.4
v -4.7 0.7 -1.4
v -10 0.7 -1.4
v 10 0.8 -1.4
v 4.7 0.8 -1.4
v -4.7 0.8 -1.4
v -10 0.8 -1.4
v 8.3 0.1 -1.7
v 5.1 0.1 -1.7
v -5.1 0.1 -1.7
v -8.3 0.1 -1.7
v 8.3 0.7 -1.7
v 5.1 0.7 -1.7
v -5.1 0.7 -1.7
v -8.3 0.7 -1.7
v 4.6 0 -4.5
v -4.6 0 -4.5
v 4.6 0.7 -4.5
v -4.6 0.7 -4.5
v 4.7 0.7 -4.6
v -4.7 0.7 -4.6
v 4.7 0.8 -4.6
v -4.7 0.8 -4.6
v 5 0.1 -5
v 4.7 0.1 -5
v 4.6 0.1 -5
v -4.6 0.1 -5
v -4.7 0.1 -5
v -5 0.1 -5
v 5 0.7 -5
v 4.7 0.7 -5
v 4.6 0.7 -5
v -4.6 0.7 -5
v -4.7 0.7 -5
v -5 0.7 -5
v 5 0.1 5.1
v 4.7 0.1 5.1
v 4.6 0.1 5.1
v -4.6 0.1 5.1
v -4.7 0.1 5.1
v -5 0.1 5.1
v 5 0.7 5.1
v 4.7 0.7 5.1
v 4.6 0.7 5.1
v -4.6 0.7 5.1
v -4.7 0.7 5.1
v -5 0.7 5.1
v 4.7 0.7 4.7
v -4.7 0.7 4.7
v 4.7 0.8 4.7
v -4.7 0.8 4.7
v 4.6 0 4.6
v -4.6 0 4.6
v 4.6 0.7 4.6
v -4.6 0.7 4.6
v 10 0.7 1.5
v 4.7 0.7 1.5
v -4.7 0.7 1.5
v -10 0.7 1.5
v 10 0.8 1.5
v 4.7 0.8 1.5
v -4.7 0.8 1.5
v -10 0.8 1.5
v 10 0 1.4
v 4.6 0 1.4
v -4.6 0 1.4
v -10 0 1.4
v 10 0.7 1.4
v 4.6 0.7 1.4
v -4.6 0.7 1.4
v -10 0.7 1.4
v 8.3 0.1 -1.4
v 5.1 0.1 -1.4
v 5 0.1 -1.4
v 4.7 0.1 -1.4
v -4.7 0.1 -1.4
v -5 0.1 -1.4
v -5.1 0.1 -1.4
v -8.3 0.1 -1.4
v 8.3 0.7 -1.4
v 5.1 0.7 -1.4
v 5 0.7 -1.4
v 4.7 0.7 -1.4
v -4.7 0.7 -1.4
v -5 0.7 -1.4
v -5.1 0.7 -1.4
v -8.3 0.7 -1.4
v 4.6 0.1 -4.6
v -4.6 0.1 -4.6
v 4.6 0.7 -4.6
v -4.6 0.7 -4.6
v 10 0 -10
v -10 0 -10
v 10 0.7 -10
v -10 0.7 -10
v 10 0.8 -10
v -10 0.8 -10
v 10 0 10
v 10 0.7 10
v 10 0.8 10
v 10 0.7 1.5
v 10 0.8 1.5
v 10 0 1.4
v 10 0.7 1.4
v 10 0 -1.3
v 10 0.7 -1.3
v 10 0.7 -1.4
v 10 0.8 -1.4
v 10 0 -10
v 10 0.7 -10
v 10 0.8 -10
v 5.1 0.1 -1.4
v 5.1 0.7 -1.4
v 5.1 0.1 -1.7
v 5.1 0.7 -1.7
v 4.7 0.1 5.1
v 4.7 0.7 5.1
v 4.7 0.1 1.5
v 4.7 0.7 1.5
v 4.7 0.1 -1.4
v 4.7 0.7 -1.4
v 4.7 0.1 -5
v 4.7 0.7 -5
v -4.6 0.1 5.1
v -4.6 0.7 5.1
v -4.6 0.1 4.7
v -4.6 0.7 4.7
v -4.6 0 4.6
v -4.6 0.7 4.6
v -4.6 0 1.4
v -4.6 0.7 1.4
v -4.6 0 -1.3
v -4.6 0.7 -1.3
v -4.6 0 -4.5
v -4.6 0.7 -4.5
v -4.6 0.1 -4.6
v -4.6 0.7 -4.6
v -4.6 0.1 -5
v -4.6 0.7 -5
v -4.7 0.7 4.7
v -4.7 0.8 4.7
v -4.7 0.7 1.5
v -4.7 0.8 1.5
v -4.7 0.7 -1.4
v -4.7 0.8 -1.4
v -4.7 0.7 -4.6
v -4.7 0.8 -4.6
v -5 0.1 5.1
v -5 0.7 5.1
v -5 0.1 1.5
v -5 0.7 1.5
v -5 0.1 -1.4
v -5 0.7 -1.4
v -5 0.1 -5
v -5 0.7 -5
v -8.3 0.1 -1.4
v -8.3 0.7 -1.4
v -8.3 0.1 -1.7
v -8.3 0.7 -1.7
v 8.3 0.1 -1.4
v 8.3 0.7 -1.4
v 8.3 0.1 -1.7
v 8.3 0.7 -1.7
v 5 0.1 5.1
v 5 0.7 5.1
v 5 0.1 1.5
v 5 0.7 1.5
v 5 0.1 -1.4
v 5 0.7 -1.4
v 5 0.1 -5
v 5 0.7 -5
v 4.7 0.7 4.7
v 4.7 0.8 4.7
v 4.7 0.7 1.5
v 4.7 0.8 1.5
v 4.7 0.7 -1.4
v 4.7 0.8 -1.4
v 4.7 0.7 -4.6
v 4.7 0.8 -4.6
v 4.6 0.1 5.1
v 4.6 0.7 5.1
v 4.6 0.1 4.7
v 4.6 0.7 4.7
v 4.6 0 4.6
v 4.6 0.7 4.6
v 4.6 0 1.4
v 4.6 0.7 1.4
v 4.6 0 -1.3
v 4.6 0.7 -1.3
v 4.6 0 -4.5
v 4.6 0.7 -4.5
v 4.6 0.1 -4.6
v 4.6 0.7 -4.6
v 4.6 0.1 -5
v 4.6 0.7 -5
v -4.7 0.1 5.1
v -4.7 0.7 5.1
v -4.7 0.1 1.5
v -4.7 0.7 1.5
v -4.7 0.1 -1.4
v -4.7 0.7 -1.4
v -4.7 0.1 -5
v -4.7 0.7 -5
v -5.1 0.1 -1.4
v -5.1 0.7 -1.4
v -5.1 0.1 -1.7
v -5.1 0.7 -1.7
v -10 0 10
v -10 0.7 10
v -10 0.8 10
v -10 0.7 1.5
v -10 0.8 1.5
v -10 0 1.4
v -10 0.7 1.4
v -10 0 -1.3
v -10 0.7 -1.3
v -10 0.7 -1.4
v -10 0.8 -1.4
v -10 0 -10
v -10 0.7 -10
v -10 0.8 -10
v 10 0 10
v 10 0 1.4
v 10 0 -1.3
v 10 0 -10
v 4.6 0 4.6
v 4.6 0 1.4
v 4.6 0 -1.3
v 4.6 0 -4.5
v -4.6 0 4.6
v -4.6 0 1.4
v -4.6 0 -1.3
v -4.6 0 -4.5
v -10 0 10
v -10 0 1.4
v -10 0 -1.3
v -10 0 -10
v 8.3 0.7 -1.4
v 8.3 0.7 -1.7
v 5.1 0.7 -1.4
v 5.1 0.7 -1.7
v 5 0.7 5.1
v 5 0.7 1.5
v 5 0.7 -1.4
v 5 0.7 -5
v 4.7 0.7 5.1
v 4.7 0.7 1.5
v 4.7 0.7 -1.4
v 4.7 0.7 -5
v 4.6 0.7 5.1
v 4.6 0.7 4.7
v 4.6 0.7 -4.6
v 4.6 0.7 -5
v -4.6 0.7 5.1
v -4.6 0.7 4.7
v -4.6 0.7 -4.6
v -4.6 0.7 -5
v -4.7 0.7 5.1
v -4.7 0.7 1.5
v -4.7 0.7 -1.4
v -4.7 0.7 -5
v -5 0.7 5.1
v -5 0.7 1.5
v -5 0.7 -1.4
v -5 0.7 -5
v -5.1 0.7 -1.4
v -5.1 0.7 -1.7
v -8.3 0.7 -1.4
v -8.3 0.7 -1.7
v 8.3 0.1 -1.4
v 8.3 0.1 -1.7
v 5.1 0.1 -1.4
v 5.1 0.1 -1.7
v 5 0.1 5.1
v 5 0.1 1.5
v 5 0.1 -1.4
v 5 0.1 -5
v 4.7 0.1 5.1
v 4.7 0.1 1.5
v 4.7 0.1 -1.4
v 4.7 0.1 -5
v 4.6 0.1 5.1
v 4.6 0.1 4.7
v 4.6 0.1 -4.6
v 4.6 0.1 -5
v -4.6 0.1 5.1
v -4.6 0.1 4.7
v -4.6 0.1 -4.6
v -4.6 0.1 -5
v -4.7 0.1 5.1
v -4.7 0.1 1.5
v -4.7 0.1 -1.4
v -4.7 0.1 -5
v -5 0.1 5.1
v -5 0.1 1.5
v -5 0.1 -1.4
v -5 0.1 -5
v -5.1 0.1 -1.4
v -5.1 0.1 -1.7
v -8.3 0.1 -1.4
v -8.3 0.1 -1.7
v 10 0.7 1.5
v 10 0.7 1.4
v 10 0.7 -1.3
v 10 0.7 -1.4
v 4.7 0.7 4.7
v 4.7 0.7 1.5
v 4.7 0.7 -1.4
v 4.7 0.7 -4.6
v 4.6 0.7 4.6
v 4.6 0.7 1.4
v 4.6 0.7 -1.3
v 4.6 0.7 -4.5
v -4.6 0.7 4.6
v -4.6 0.7 1.4
v -4.6 0.7 -1.3
v -4.6 0.7 -4.5
v -4.7 0.7 4.7
v -4.7 0.7 1.5
v -4.7 0.7 -1.4
v -4.7 0.7 -4.6
v -10 0.7 1.5
v -10 0.7 1.4
v -10 0.7 -1.3
v -10 0.7 -1.4
v 10 0.8 10
v 10 0.8 1.5
v 10 0.8 -1.4
v 10 0.8 -10
v 4.7 0.8 4.7
v 4.7 0.8 1.5
v 4.7 0.8 -1.4
v 4.7 0.8 -4.6
v -4.7 0.8 4.7
v -4.7 0.8 1.5
v -4.7 0.8 -1.4
v -4.7 0.8 -4.6
v -10 0.8 10
v -10 0.8 1.5
v -10 0.8 -1.4
v -10 0.8 -10

# faces
f 3/1/1 2/1/1 1/1/1
f 4/1/1 2/1/1 3/1/1
f 5/2/1 4/2/1 3/2/1
f 6/2/1 4/2/1 5/2/1
f 9/1/1 8/1/1 7/1/1
f 10/1/1 8/1/1 9/1/1
f 15/1/1 12/1/1 11/1/1
f 16/1/1 12/1/1 15/1/1
f 17/1/1 14/1/1 13/1/1
f 18/1/1 14/1/1 17/1/1
f 23/1/1 20/1/1 19/1/1
f 24/1/1 20/1/1 23/1/1
f 25/1/1 22/1/1 21/1/1
f 26/1/1 22/1/1 25/1/1
f 31/2/1 28/2/1 27/2/1
f 32/2/1 28/2/1 31/2/1
f 33/2/1 30/2/1 29/2/1
f 34/2/1 30/2/1 33/2/1
f 39/1/1 36/1/1 35/1/1
f 40/1/1 36/1/1 39/1/1
f 41/1/1 38/1/1 37/1/1
f 42/1/1 38/1/1 41/1/1
f 45/1/1 44/1/1 43/1/1
f 46/1/1 44/1/1 45/1/1
f 49/2/1 48/2/1 47/2/1
f 50/2/1 48/2/1 49/2/1
f 57/1/1 52/1/1 51/1/1
f 58/1/1 52/1/1 57/1/1
f 59/1/1 54/1/1 53/1/1
f 60/1/1 54/1/1 59/1/1
f 61/1/1 56/1/1 55/1/1
f 62/1/1 56/1/1 61/1/1
f 63/1/2 64/1/2 69/1/2
f 69/1/2 64/1/2 70/1/2
f 65/1/2 66/1/2 71/1/2
f 71/1/2 66/1/2 72/1/2
f 67/1/2 68/1/2 73/1/2
f 73/1/2 68/1/2 74/1/2
f 75/2/2 76/2/2 77/2/2
f 77/2/2 76/2/2 78/2/2
f 79/1/2 80/1/2 81/1/2
f 81/1/2 80/1/2 82/1/2
f 83/2/2 84/2/2 87/2/2
f 87/2/2 84/2/2 88/2/2
f 85/2/2 86/2/2 89/2/2
f 89/2/2 86/2/2 90/2/2
f 91/1/2 92/1/2 95/1/2
f 95/1/2 92/1/2 96/1/2
f 93/1/2 94/1/2 97/1/2
f 97/1/2 94/1/2 98/1/2
f 99/1/2 100/1/2 107/1/2
f 107/1/2 100/1/2 108/1/2
f 101/1/2 102/1/2 109/1/2
f 109/1/2 102/1/2 110/1/2
f 103/1/2 104/1/2 111/1/2
f 111/1/2 104/1/2 112/1/2
f 105/1/2 106/1/2 113/1/2
f 113/1/2 106/1/2 114/1/2
f 115/1/2 116/1/2 117/1/2
f 117/1/2 116/1/2 118/1/2
f 119/1/2 120/1/2 121/1/2
f 121/1/2 120/1/2 122/1/2
f 121/2/2 122/2/2 123/2/2
f 123/2/2 122/2/2 124/2/2
f 128/1/3 126/1/3 125/1/3
f 128/2/3 127/2/3 126/2/3
f 129/2/3 127/2/3 128/2/3
f 130/1/3 128/1/3 125/1/3
f 131/1/3 128/1/3 130/1/3
f 134/1/3 133/1/3 132/1/3
f 136/1/3 134/1/3 132/1/3
f 137/2/3 135/2/3 134/2/3
f 137/1/3 134/1/3 136/1/3
f 138/2/3 135/2/3 137/2/3
f 141/1/3 140/1/3 139/1/3
f 142/1/3 140/1/3 141/1/3
f 145/1/3 144/1/3 143/1/3
f 146/1/3 144/1/3 145/1/3
f 149/1/3 148/1/3 147/1/3
f 150/1/3 148/1/3 149/1/3
f 153/1/3 152/1/3 151/1/3
f 154/1/3 152/1/3 153/1/3
f 157/1/3 156/1/3 155/1/3
f 158/1/3 156/1/3 157/1/3
f 161/1/3 160/1/3 159/1/3
f 162/1/3 160/1/3 161/1/3
f 165/1/3 164/1/3 163/1/3
f 166/1/3 164/1/3 165/1/3
f 169/2/3 168/2/3 167/2/3
f 170/2/3 168/2/3 169/2/3
f 173/2/3 172/2/3 171/2/3
f 174/2/3 172/2/3 173/2/3
f 177/1/3 176/1/3 175/1/3
f 178/1/3 176/1/3 177/1/3
f 181/1/3 180/1/3 179/1/3
f 182/1/3 180/1/3 181/1/3
f 185/1/3 184/1/3 183/1/3
f 186/1/3 184/1/3 185/1/3
f 187/1/4 188/1/4 189/1/4
f 189/1/4 188/1/4 190/1/4
f 191/1/4 192/1/4 193/1/4
f 193/1/4 192/1/4 194/1/4
f 195/1/4 196/1/4 197/1/4
f 197/1/4 196/1/4 198/1/4
f 199/2/4 200/2/4 201/2/4
f 201/2/4 200/2/4 202/2/4
f 203/2/4 204/2/4 205/2/4
f 205/2/4 204/2/4 206/2/4
f 207/1/4 208/1/4 209/1/4
f 209/1/4 208/1/4 210/1/4
f 211/1/4 212/1/4 213/1/4
f 213/1/4 212/1/4 214/1/4
f 215/1/4 216/1/4 217/1/4
f 217/1/4 216/1/4 218/1/4
f 219/1/4 220/1/4 221/1/4
f 221/1/4 220/1/4 222/1/4
f 223/1/4 224/1/4 225/1/4
f 225/1/4 224/1/4 226/1/4
f 227/1/4 228/1/4 229/1/4
f 229/1/4 228/1/4 230/1/4
f 231/1/4 232/1/4 233/1/4
f 233/1/4 232/1/4 234/1/4
f 235/1/4 236/1/4 238/1/4
f 236/2/4 237/2/4 238/2/4
f 238/2/4 237/2/4 239/2/4
f 235/1/4 238/1/4 240/1/4
f 240/1/4 238/1/4 241/1/4
f 242/1/4 243/1/4 244/1/4
f 242/1/4 244/1/4 246/1/4
f 244/2/4 245/2/4 247/2/4
f 246/1/4 244/1/4 247/1/4
f 247/2/4 245/2/4 248/2/4
f 253/1/5 250/1/5 249/1/5
f 254/1/5 250/1/5 253/1/5
f 255/1/5 252/1/5 251/1/5
f 256/1/5 252/1/5 255/1/5
f 257/1/5 253/1/5 249/1/5
f 260/1/5 252/1/5 256/1/5
f 261/1/5 258/1/5 257/1/5
f 261/1/5 257/1/5 249/1/5
f 262/1/5 258/1/5 261/1/5
f 263/1/5 260/1/5 259/1/5
f 264/1/5 252/1/5 260/1/5
f 264/1/5 260/1/5 263/1/5
f 267/2/5 266/2/5 265/2/5
f 268/2/5 266/2/5 267/2/5
f 273/2/5 270/2/5 269/2/5
f 274/2/5 270/2/5 273/2/5
f 275/2/5 272/2/5 271/2/5
f 276/2/5 272/2/5 275/2/5
f 281/2/5 278/2/5 277/2/5
f 282/2/5 278/2/5 281/2/5
f 283/2/5 280/2/5 279/2/5
f 284/2/5 280/2/5 283/2/5
f 289/2/5 286/2/5 285/2/5
f 290/2/5 286/2/5 289/2/5
f 291/2/5 288/2/5 287/2/5
f 292/2/5 288/2/5 291/2/5
f 295/2/5 294/2/5 293/2/5
f 296/2/5 294/2/5 295/2/5
f 297/1/6 298/1/6 299/1/6
f 299/1/6 298/1/6 300/1/6
f 301/1/6 302/1/6 305/1/6
f 305/1/6 302/1/6 306/1/6
f 303/1/6 304/1/6 307/1/6
f 307/1/6 304/1/6 308/1/6
f 309/1/6 310/1/6 313/1/6
f 313/1/6 310/1/6 314/1/6
f 311/1/6 312/1/6 315/1/6
f 315/1/6 312/1/6 316/1/6
f 317/1/6 318/1/6 321/1/6
f 321/1/6 318/1/6 322/1/6
f 319/1/6 320/1/6 323/1/6
f 323/1/6 320/1/6 324/1/6
f 325/1/6 326/1/6 327/1/6
f 327/1/6 326/1/6 328/1/6
f 329/1/6 330/1/6 334/1/6
f 331/1/6 332/1/6 335/1/6
f 333/1/6 334/1/6 337/1/6
f 334/1/6 330/1/6 338/1/6
f 337/1/6 334/1/6 338/1/6
f 335/1/6 336/1/6 339/1/6
f 331/1/6 335/1/6 339/1/6
f 339/1/6 336/1/6 340/1/6
f 333/1/6 337/1/6 341/1/6
f 340/1/6 336/1/6 344/1/6
f 341/1/6 342/1/6 345/1/6
f 333/1/6 341/1/6 345/1/6
f 345/1/6 342/1/6 346/1/6
f 343/1/6 344/1/6 347/1/6
f 344/1/6 336/1/6 348/1/6
f 347/1/6 344/1/6 348/1/6
f 346/1/6 342/1/6 349/1/6
f 349/1/6 342/1/6 350/1/6
f 343/1/6 347/1/6 351/1/6
f 351/1/6 347/1/6 352/1/6
f 353/2/6 354/2/6 357/2/6
f 357/2/6 354/2/6 358/2/6
f 355/2/6 356/2/6 359/2/6
f 359/2/6 356/2/6 360/2/6
f 353/2/6 357/2/6 361/2/6
f 360/2/6 356/2/6 364/2/6
f 361/2/6 362/2/6 365/2/6
f 353/2/6 361/2/6 365/2/6
f 365/2/6 362/2/6 366/2/6
f 363/2/6 364/2/6 367/2/6
f 364/2/6 356/2/6 368/2/6
f 367/2/6 364/2/6 368/2/6
