# MagicaVoxel @ Ephtracy

# group
o Stage5-2

# material
mtllib Stage5-2-0-Stage5-2.mtl
usemtl palette

# normals
vn -1 0 0
vn 1 0 0
vn 0 0 1
vn 0 0 -1
vn 0 -1 0
vn 0 1 0

# texcoords
vt 0.279297 0.5
vt 0.396484 0.5

# verts
v -12.8 0 12.8
v -12.8 0 -12.8
v -12.8 1.5 12.8
v -12.8 1.5 -12.8
v -12.8 1.6 12.8
v -12.8 1.6 -12.8
v -11.8 0.1 12.7
v -11.8 0.1 11.8
v -11.8 0.1 11.7
v -11.8 0.1 -11.7
v -11.8 0.1 -11.8
v -11.8 0.1 -12.7
v -11.8 1.5 12.7
v -11.8 1.5 11.8
v -11.8 1.5 11.7
v -11.8 1.5 -11.7
v -11.8 1.5 -11.8
v -11.8 1.5 -12.7
v -5.7 0 11.7
v -5.7 0 -6.7
v -5.7 1.5 11.8
v -5.7 1.5 11.7
v -5.7 1.5 -6.6
v -5.7 1.5 -6.7
v -5.7 1.6 11.8
v -5.7 1.6 -6.6
v -2.6 0.1 11.7
v -2.6 0.1 -6.6
v -2.6 1.5 11.7
v -2.6 1.5 -6.6
v 3.5 0 6.7
v 3.5 0 -11.7
v 3.5 1.5 6.7
v 3.5 1.5 -11.7
v 3.6 1.5 6.6
v 3.6 1.5 -11.8
v 3.6 1.5 -11.9
v 3.6 1.6 6.6
v 3.6 1.6 -11.9
v 6.6 0.1 6.6
v 6.6 0.1 -11.7
v 6.6 1.5 6.6
v 6.6 1.5 -11.7
v 11.7 0 11.7
v 11.7 0 -11.7
v 11.7 0.1 12.7
v 11.7 0.1 11.8
v 11.7 0.1 -11.8
v 11.7 0.1 -12.7
v 11.7 1.5 12.7
v 11.7 1.5 11.8
v 11.7 1.5 11.7
v 11.7 1.5 -11.7
v 11.7 1.5 -11.8
v 11.7 1.5 -11.9
v 11.7 1.5 -12.7
v 11.8 1.5 11.8
v 11.8 1.5 -11.9
v 11.8 1.6 11.8
v 11.8 1.6 -11.9
v 12.7 0.1 12.7
v 12.7 0.1 11.8
v 12.7 0.1 11.7
v 12.7 0.1 -11.7
v 12.7 0.1 -11.8
v 12.7 0.1 -12.7
v 12.7 1.5 12.7
v 12.7 1.5 11.8
v 12.7 1.5 11.7
v 12.7 1.5 -11.7
v 12.7 1.5 -11.8
v 12.7 1.5 -12.7
v -12.7 0.1 12.7
v -12.7 0.1 11.8
v -12.7 0.1 11.7
v -12.7 0.1 -11.7
v -12.7 0.1 -11.8
v -12.7 0.1 -12.7
v -12.7 1.5 12.7
v -12.7 1.5 11.8
v -12.7 1.5 11.7
v -12.7 1.5 -11.7
v -12.7 1.5 -11.8
v -12.7 1.5 -12.7
v -11.8 1.5 11.8
v -11.8 1.5 -11.9
v -11.8 1.6 11.8
v -11.8 1.6 -11.9
v -11.7 0 11.7
v -11.7 0 -11.7
v -11.7 0.1 12.7
v -11.7 0.1 11.8
v -11.7 0.1 -11.8
v -11.7 0.1 -12.7
v -11.7 1.5 12.7
v -11.7 1.5 11.8
v -11.7 1.5 11.7
v -11.7 1.5 -11.7
v -11.7 1.5 -11.8
v -11.7 1.5 -11.9
v -11.7 1.5 -12.7
v -5.6 0.1 11.7
v -5.6 0.1 -6.6
v -5.6 1.5 11.7
v -5.6 1.5 -6.6
v -2.6 1.5 11.8
v -2.6 1.5 -6.6
v -2.6 1.6 11.8
v -2.6 1.6 -6.6
v -2.5 0 11.7
v -2.5 0 -6.7
v -2.5 1.5 11.7
v -2.5 1.5 -6.7
v 3.6 0.1 6.6
v 3.6 0.1 -11.7
v 3.6 1.5 6.6
v 3.6 1.5 -11.7
v 6.6 1.5 6.6
v 6.6 1.5 -11.8
v 6.6 1.5 -11.9
v 6.6 1.6 6.6
v 6.6 1.6 -11.9
v 6.7 0 6.7
v 6.7 0 -11.7
v 6.7 1.5 6.7
v 6.7 1.5 -11.7
v 11.8 0.1 12.7
v 11.8 0.1 11.8
v 11.8 0.1 11.7
v 11.8 0.1 -11.7
v 11.8 0.1 -11.8
v 11.8 0.1 -12.7
v 11.8 1.5 12.7
v 11.8 1.5 11.8
v 11.8 1.5 11.7
v 11.8 1.5 -11.7
v 11.8 1.5 -11.8
v 11.8 1.5 -12.7
v 12.8 0 12.8
v 12.8 0 -12.8
v 12.8 1.5 12.8
v 12.8 1.5 -12.8
v 12.8 1.6 12.8
v 12.8 1.6 -12.8
v -12.8 0 12.8
v -12.8 1.5 12.8
v -12.8 1.6 12.8
v 12.8 0 12.8
v 12.8 1.5 12.8
v 12.8 1.6 12.8
v -12.7 0.1 11.8
v -12.7 1.5 11.8
v -11.8 0.1 11.8
v -11.8 1.5 11.8
v -11.7 0.1 11.8
v -11.7 1.5 11.8
v 11.7 0.1 11.8
v 11.7 1.5 11.8
v 11.8 0.1 11.8
v 11.8 1.5 11.8
v 12.7 0.1 11.8
v 12.7 1.5 11.8
v 3.5 0 6.7
v 3.5 1.5 6.7
v 6.7 0 6.7
v 6.7 1.5 6.7
v 3.6 1.5 6.6
v 3.6 1.6 6.6
v 6.6 1.5 6.6
v 6.6 1.6 6.6
v -5.6 0.1 -6.6
v -5.6 1.5 -6.6
v -2.6 0.1 -6.6
v -2.6 1.5 -6.6
v -12.7 0.1 -11.7
v -12.7 1.5 -11.7
v -11.8 0.1 -11.7
v -11.8 1.5 -11.7
v -11.7 0 -11.7
v -11.7 1.5 -11.7
v 3.5 0 -11.7
v 3.5 1.5 -11.7
v 3.6 0.1 -11.7
v 3.6 1.5 -11.7
v 6.6 0.1 -11.7
v 6.6 1.5 -11.7
v 6.7 0 -11.7
v 6.7 1.5 -11.7
v 11.7 0 -11.7
v 11.7 1.5 -11.7
v 11.8 0.1 -11.7
v 11.8 1.5 -11.7
v 12.7 0.1 -11.7
v 12.7 1.5 -11.7
v -11.8 1.5 -11.9
v -11.8 1.6 -11.9
v -11.7 1.5 -11.9
v 3.6 1.5 -11.9
v 3.6 1.6 -11.9
v 6.6 1.5 -11.9
v 6.6 1.6 -11.9
v 11.7 1.5 -11.9
v 11.8 1.5 -11.9
v 11.8 1.6 -11.9
v -12.7 0.1 -12.7
v -12.7 1.5 -12.7
v -11.8 0.1 -12.7
v -11.8 1.5 -12.7
v -11.7 0.1 -12.7
v -11.7 1.5 -12.7
v 11.7 0.1 -12.7
v 11.7 1.5 -12.7
v 11.8 0.1 -12.7
v 11.8 1.5 -12.7
v 12.7 0.1 -12.7
v 12.7 1.5 -12.7
v -12.7 0.1 12.7
v -12.7 1.5 12.7
v -11.8 0.1 12.7
v -11.8 1.5 12.7
v -11.7 0.1 12.7
v -11.7 1.5 12.7
v 11.7 0.1 12.7
v 11.7 1.5 12.7
v 11.8 0.1 12.7
v 11.8 1.5 12.7
v 12.7 0.1 12.7
v 12.7 1.5 12.7
v -11.8 1.5 11.8
v -11.8 1.6 11.8
v -5.7 1.5 11.8
v -5.7 1.6 11.8
v -2.6 1.5 11.8
v -2.6 1.6 11.8
v 11.8 1.5 11.8
v 11.8 1.6 11.8
v -12.7 0.1 11.7
v -12.7 1.5 11.7
v -11.8 0.1 11.7
v -11.8 1.5 11.7
v -11.7 0 11.7
v -11.7 1.5 11.7
v -5.7 0 11.7
v -5.7 1.5 11.7
v -5.6 0.1 11.7
v -5.6 1.5 11.7
v -2.6 0.1 11.7
v -2.6 1.5 11.7
v -2.5 0 11.7
v -2.5 1.5 11.7
v 11.7 0 11.7
v 11.7 1.5 11.7
v 11.8 0.1 11.7
v 11.8 1.5 11.7
v 12.7 0.1 11.7
v 12.7 1.5 11.7
v 3.6 0.1 6.6
v 3.6 1.5 6.6
v 6.6 0.1 6.6
v 6.6 1.5 6.6
v -5.7 1.5 -6.6
v -5.7 1.6 -6.6
v -2.6 1.5 -6.6
v -2.6 1.6 -6.6
v -5.7 0 -6.7
v -5.7 1.5 -6.7
v -2.5 0 -6.7
v -2.5 1.5 -6.7
v -12.7 0.1 -11.8
v -12.7 1.5 -11.8
v -11.8 0.1 -11.8
v -11.8 1.5 -11.8
v -11.7 0.1 -11.8
v -11.7 1.5 -11.8
v 3.6 1.5 -11.8
v 6.6 1.5 -11.8
v 11.7 0.1 -11.8
v 11.7 1.5 -11.8
v 11.8 0.1 -11.8
v 11.8 1.5 -11.8
v 12.7 0.1 -11.8
v 12.7 1.5 -11.8
v -12.8 0 -12.8
v -12.8 1.5 -12.8
v -12.8 1.6 -12.8
v 12.8 0 -12.8
v 12.8 1.5 -12.8
v 12.8 1.6 -12.8
v -12.8 0 12.8
v 12.8 0 12.8
v -11.7 0 11.7
v -5.7 0 11.7
v -2.5 0 11.7
v 11.7 0 11.7
v 3.5 0 6.7
v 6.7 0 6.7
v -5.7 0 -6.7
v -2.5 0 -6.7
v -11.7 0 -11.7
v 3.5 0 -11.7
v 6.7 0 -11.7
v 11.7 0 -11.7
v -12.8 0 -12.8
v 12.8 0 -12.8
v -12.7 1.5 12.7
v -11.8 1.5 12.7
v -11.7 1.5 12.7
v 11.7 1.5 12.7
v 11.8 1.5 12.7
v 12.7 1.5 12.7
v -12.7 1.5 11.8
v -11.8 1.5 11.8
v -11.7 1.5 11.8
v 11.7 1.5 11.8
v 11.8 1.5 11.8
v 12.7 1.5 11.8
v -12.7 1.5 11.7
v -11.8 1.5 11.7
v -5.6 1.5 11.7
v -2.6 1.5 11.7
v 11.8 1.5 11.7
v 12.7 1.5 11.7
v 3.6 1.5 6.6
v 6.6 1.5 6.6
v -5.6 1.5 -6.6
v -2.6 1.5 -6.6
v -12.7 1.5 -11.7
v -11.8 1.5 -11.7
v 3.6 1.5 -11.7
v 6.6 1.5 -11.7
v 11.8 1.5 -11.7
v 12.7 1.5 -11.7
v -12.7 1.5 -11.8
v -11.8 1.5 -11.8
v 3.6 1.5 -11.8
v 6.6 1.5 -11.8
v 11.8 1.5 -11.8
v 12.7 1.5 -11.8
v -11.7 1.5 -11.9
v 3.6 1.5 -11.9
v 6.6 1.5 -11.9
v 11.7 1.5 -11.9
v -12.7 1.5 -12.7
v -11.8 1.5 -12.7
v -11.7 1.5 -12.7
v 11.7 1.5 -12.7
v 11.8 1.5 -12.7
v 12.7 1.5 -12.7
v -12.7 0.1 12.7
v -11.8 0.1 12.7
v -11.7 0.1 12.7
v 11.7 0.1 12.7
v 11.8 0.1 12.7
v 12.7 0.1 12.7
v -12.7 0.1 11.8
v -11.8 0.1 11.8
v -11.7 0.1 11.8
v 11.7 0.1 11.8
v 11.8 0.1 11.8
v 12.7 0.1 11.8
v -12.7 0.1 11.7
v -11.8 0.1 11.7
v -5.6 0.1 11.7
v -2.6 0.1 11.7
v 11.8 0.1 11.7
v 12.7 0.1 11.7
v 3.6 0.1 6.6
v 6.6 0.1 6.6
v -5.6 0.1 -6.6
v -2.6 0.1 -6.6
v -12.7 0.1 -11.7
v -11.8 0.1 -11.7
v 3.6 0.1 -11.7
v 6.6 0.1 -11.7
v 11.8 0.1 -11.7
v 12.7 0.1 -11.7
v -12.7 0.1 -11.8
v -11.8 0.1 -11.8
v -11.7 0.1 -11.8
v 11.7 0.1 -11.8
v 11.8 0.1 -11.8
v 12.7 0.1 -11.8
v -12.7 0.1 -12.7
v -11.8 0.1 -12.7
v -11.7 0.1 -12.7
v 11.7 0.1 -12.7
v 11.8 0.1 -12.7
v 12.7 0.1 -12.7
v -11.8 1.5 11.8
v -5.7 1.5 11.8
v -2.6 1.5 11.8
v 11.8 1.5 11.8
v -11.7 1.5 11.7
v -5.7 1.5 11.7
v -2.5 1.5 11.7
v 11.7 1.5 11.7
v 3.5 1.5 6.7
v 6.7 1.5 6.7
v 3.6 1.5 6.6
v 6.6 1.5 6.6
v -5.7 1.5 -6.6
v -2.6 1.5 -6.6
v -5.7 1.5 -6.7
v -2.5 1.5 -6.7
v -11.7 1.5 -11.7
v 3.5 1.5 -11.7
v 6.7 1.5 -11.7
v 11.7 1.5 -11.7
v -11.7 1.5 -11.8
v 3.6 1.5 -11.8
v 6.6 1.5 -11.8
v 11.7 1.5 -11.8
v -11.8 1.5 -11.9
v -11.7 1.5 -11.9
v 11.7 1.5 -11.9
v 11.8 1.5 -11.9
v -12.8 1.6 12.8
v 12.8 1.6 12.8
v -11.8 1.6 11.8
v -5.7 1.6 11.8
v -2.6 1.6 11.8
v 11.8 1.6 11.8
v 3.6 1.6 6.6
v 6.6 1.6 6.6
v -5.7 1.6 -6.6
v -2.6 1.6 -6.6
v -11.8 1.6 -11.9
v 3.6 1.6 -11.9
v 6.6 1.6 -11.9
v 11.8 1.6 -11.9
v -12.8 1.6 -12.8
v 12.8 1.6 -12.8

# faces
f 3/2/1 2/2/1 1/2/1
f 4/2/1 2/2/1 3/2/1
f 5/1/1 4/1/1 3/1/1
f 6/1/1 4/1/1 5/1/1
f 13/2/1 8/2/1 7/2/1
f 14/2/1 8/2/1 13/2/1
f 15/2/1 10/2/1 9/2/1
f 16/2/1 10/2/1 15/2/1
f 17/2/1 12/2/1 11/2/1
f 18/2/1 12/2/1 17/2/1
f 22/2/1 20/2/1 19/2/1
f 23/2/1 20/2/1 22/2/1
f 24/2/1 20/2/1 23/2/1
f 25/1/1 22/1/1 21/1/1
f 25/1/1 23/1/1 22/1/1
f 26/1/1 23/1/1 25/1/1
f 29/2/1 28/2/1 27/2/1
f 30/2/1 28/2/1 29/2/1
f 33/2/1 32/2/1 31/2/1
f 34/2/1 32/2/1 33/2/1
f 38/1/1 36/1/1 35/1/1
f 38/1/1 37/1/1 36/1/1
f 39/1/1 37/1/1 38/1/1
f 42/2/1 41/2/1 40/2/1
f 43/2/1 41/2/1 42/2/1
f 50/2/1 47/2/1 46/2/1
f 51/2/1 47/2/1 50/2/1
f 52/2/1 45/2/1 44/2/1
f 53/2/1 45/2/1 52/2/1
f 54/2/1 49/2/1 48/2/1
f 55/2/1 49/2/1 54/2/1
f 56/2/1 49/2/1 55/2/1
f 59/1/1 58/1/1 57/1/1
f 60/1/1 58/1/1 59/1/1
f 67/2/1 62/2/1 61/2/1
f 68/2/1 62/2/1 67/2/1
f 69/2/1 64/2/1 63/2/1
f 70/2/1 64/2/1 69/2/1
f 71/2/1 66/2/1 65/2/1
f 72/2/1 66/2/1 71/2/1
f 73/2/2 74/2/2 79/2/2
f 79/2/2 74/2/2 80/2/2
f 75/2/2 76/2/2 81/2/2
f 81/2/2 76/2/2 82/2/2
f 77/2/2 78/2/2 83/2/2
f 83/2/2 78/2/2 84/2/2
f 85/1/2 86/1/2 87/1/2
f 87/1/2 86/1/2 88/1/2
f 91/2/2 92/2/2 95/2/2
f 95/2/2 92/2/2 96/2/2
f 89/2/2 90/2/2 97/2/2
f 97/2/2 90/2/2 98/2/2
f 93/2/2 94/2/2 99/2/2
f 99/2/2 94/2/2 100/2/2
f 100/2/2 94/2/2 101/2/2
f 102/2/2 103/2/2 104/2/2
f 104/2/2 103/2/2 105/2/2
f 106/1/2 107/1/2 108/1/2
f 108/1/2 107/1/2 109/1/2
f 110/2/2 111/2/2 112/2/2
f 112/2/2 111/2/2 113/2/2
f 114/2/2 115/2/2 116/2/2
f 116/2/2 115/2/2 117/2/2
f 118/1/2 119/1/2 121/1/2
f 119/1/2 120/1/2 121/1/2
f 121/1/2 120/1/2 122/1/2
f 123/2/2 124/2/2 125/2/2
f 125/2/2 124/2/2 126/2/2
f 127/2/2 128/2/2 133/2/2
f 133/2/2 128/2/2 134/2/2
f 129/2/2 130/2/2 135/2/2
f 135/2/2 130/2/2 136/2/2
f 131/2/2 132/2/2 137/2/2
f 137/2/2 132/2/2 138/2/2
f 139/2/2 140/2/2 141/2/2
f 141/2/2 140/2/2 142/2/2
f 141/1/2 142/1/2 143/1/2
f 143/1/2 142/1/2 144/1/2
f 148/2/3 146/2/3 145/2/3
f 149/1/3 147/1/3 146/1/3
f 149/2/3 146/2/3 148/2/3
f 150/1/3 147/1/3 149/1/3
f 153/2/3 152/2/3 151/2/3
f 154/2/3 152/2/3 153/2/3
f 157/2/3 156/2/3 155/2/3
f 158/2/3 156/2/3 157/2/3
f 161/2/3 160/2/3 159/2/3
f 162/2/3 160/2/3 161/2/3
f 165/2/3 164/2/3 163/2/3
f 166/2/3 164/2/3 165/2/3
f 169/1/3 168/1/3 167/1/3
f 170/1/3 168/1/3 169/1/3
f 173/2/3 172/2/3 171/2/3
f 174/2/3 172/2/3 173/2/3
f 177/2/3 176/2/3 175/2/3
f 178/2/3 176/2/3 177/2/3
f 181/2/3 180/2/3 179/2/3
f 182/2/3 180/2/3 181/2/3
f 185/2/3 184/2/3 183/2/3
f 186/2/3 184/2/3 185/2/3
f 189/2/3 188/2/3 187/2/3
f 190/2/3 188/2/3 189/2/3
f 193/2/3 192/2/3 191/2/3
f 194/2/3 192/2/3 193/2/3
f 197/1/3 196/1/3 195/1/3
f 198/1/3 196/1/3 197/1/3
f 199/1/3 196/1/3 198/1/3
f 202/1/3 201/1/3 200/1/3
f 203/1/3 201/1/3 202/1/3
f 204/1/3 201/1/3 203/1/3
f 207/2/3 206/2/3 205/2/3
f 208/2/3 206/2/3 207/2/3
f 211/2/3 210/2/3 209/2/3
f 212/2/3 210/2/3 211/2/3
f 215/2/3 214/2/3 213/2/3
f 216/2/3 214/2/3 215/2/3
f 217/2/4 218/2/4 219/2/4
f 219/2/4 218/2/4 220/2/4
f 221/2/4 222/2/4 223/2/4
f 223/2/4 222/2/4 224/2/4
f 225/2/4 226/2/4 227/2/4
f 227/2/4 226/2/4 228/2/4
f 229/1/4 230/1/4 231/1/4
f 231/1/4 230/1/4 232/1/4
f 233/1/4 234/1/4 235/1/4
f 235/1/4 234/1/4 236/1/4
f 237/2/4 238/2/4 239/2/4
f 239/2/4 238/2/4 240/2/4
f 241/2/4 242/2/4 243/2/4
f 243/2/4 242/2/4 244/2/4
f 245/2/4 246/2/4 247/2/4
f 247/2/4 246/2/4 248/2/4
f 249/2/4 250/2/4 251/2/4
f 251/2/4 250/2/4 252/2/4
f 253/2/4 254/2/4 255/2/4
f 255/2/4 254/2/4 256/2/4
f 257/2/4 258/2/4 259/2/4
f 259/2/4 258/2/4 260/2/4
f 261/1/4 262/1/4 263/1/4
f 263/1/4 262/1/4 264/1/4
f 265/2/4 266/2/4 267/2/4
f 267/2/4 266/2/4 268/2/4
f 269/2/4 270/2/4 271/2/4
f 271/2/4 270/2/4 272/2/4
f 273/2/4 274/2/4 275/2/4
f 273/2/4 275/2/4 276/2/4
f 273/2/4 276/2/4 277/2/4
f 277/2/4 276/2/4 278/2/4
f 279/2/4 280/2/4 281/2/4
f 281/2/4 280/2/4 282/2/4
f 283/2/4 284/2/4 286/2/4
f 284/1/4 285/1/4 287/1/4
f 286/2/4 284/2/4 287/2/4
f 287/1/4 285/1/4 288/1/4
f 291/2/5 290/2/5 289/2/5
f 292/2/5 290/2/5 291/2/5
f 293/2/5 290/2/5 292/2/5
f 294/2/5 290/2/5 293/2/5
f 297/2/5 293/2/5 292/2/5
f 298/2/5 293/2/5 297/2/5
f 299/2/5 291/2/5 289/2/5
f 300/2/5 296/2/5 295/2/5
f 301/2/5 296/2/5 300/2/5
f 302/2/5 290/2/5 294/2/5
f 303/2/5 299/2/5 289/2/5
f 303/2/5 302/2/5 301/2/5
f 303/2/5 301/2/5 300/2/5
f 303/2/5 300/2/5 299/2/5
f 304/2/5 290/2/5 302/2/5
f 304/2/5 302/2/5 303/2/5
f 311/1/5 306/1/5 305/1/5
f 312/1/5 306/1/5 311/1/5
f 313/1/5 308/1/5 307/1/5
f 314/1/5 308/1/5 313/1/5
f 315/1/5 310/1/5 309/1/5
f 316/1/5 310/1/5 315/1/5
f 325/1/5 320/1/5 319/1/5
f 326/1/5 320/1/5 325/1/5
f 327/1/5 318/1/5 317/1/5
f 328/1/5 318/1/5 327/1/5
f 329/1/5 324/1/5 323/1/5
f 330/1/5 324/1/5 329/1/5
f 331/1/5 322/1/5 321/1/5
f 332/1/5 322/1/5 331/1/5
f 340/1/5 336/1/5 335/1/5
f 341/1/5 336/1/5 340/1/5
f 343/1/5 334/1/5 333/1/5
f 344/1/5 334/1/5 343/1/5
f 345/1/5 342/1/5 341/1/5
f 345/1/5 340/1/5 339/1/5
f 345/1/5 341/1/5 340/1/5
f 346/1/5 342/1/5 345/1/5
f 347/1/5 338/1/5 337/1/5
f 348/1/5 338/1/5 347/1/5
f 349/2/6 350/2/6 355/2/6
f 355/2/6 350/2/6 356/2/6
f 351/2/6 352/2/6 357/2/6
f 357/2/6 352/2/6 358/2/6
f 353/2/6 354/2/6 359/2/6
f 359/2/6 354/2/6 360/2/6
f 363/2/6 364/2/6 369/2/6
f 369/2/6 364/2/6 370/2/6
f 361/2/6 362/2/6 371/2/6
f 371/2/6 362/2/6 372/2/6
f 367/2/6 368/2/6 373/2/6
f 373/2/6 368/2/6 374/2/6
f 365/2/6 366/2/6 375/2/6
f 375/2/6 366/2/6 376/2/6
f 377/2/6 378/2/6 383/2/6
f 383/2/6 378/2/6 384/2/6
f 379/2/6 380/2/6 385/2/6
f 385/2/6 380/2/6 386/2/6
f 381/2/6 382/2/6 387/2/6
f 387/2/6 382/2/6 388/2/6
f 389/2/6 390/2/6 393/2/6
f 393/2/6 390/2/6 394/2/6
f 391/2/6 392/2/6 395/2/6
f 395/2/6 392/2/6 396/2/6
f 397/2/6 398/2/6 399/2/6
f 399/2/6 398/2/6 400/2/6
f 391/2/6 395/2/6 402/2/6
f 401/2/6 402/2/6 403/2/6
f 402/2/6 395/2/6 404/2/6
f 403/2/6 402/2/6 404/2/6
f 389/2/6 393/2/6 405/2/6
f 397/2/6 399/2/6 406/2/6
f 400/2/6 398/2/6 407/2/6
f 396/2/6 392/2/6 408/2/6
f 389/2/6 405/2/6 409/2/6
f 405/2/6 406/2/6 409/2/6
f 406/2/6 399/2/6 410/2/6
f 409/2/6 406/2/6 410/2/6
f 400/2/6 407/2/6 411/2/6
f 407/2/6 408/2/6 411/2/6
f 408/2/6 392/2/6 412/2/6
f 411/2/6 408/2/6 412/2/6
f 389/2/6 409/2/6 413/2/6
f 413/2/6 409/2/6 414/2/6
f 412/2/6 392/2/6 415/2/6
f 415/2/6 392/2/6 416/2/6
f 417/1/6 418/1/6 419/1/6
f 419/1/6 418/1/6 420/1/6
f 420/1/6 418/1/6 421/1/6
f 421/1/6 418/1/6 422/1/6
f 420/1/6 421/1/6 425/1/6
f 425/1/6 421/1/6 426/1/6
f 417/1/6 419/1/6 427/1/6
f 423/1/6 424/1/6 428/1/6
f 428/1/6 424/1/6 429/1/6
f 422/1/6 418/1/6 430/1/6
f 417/1/6 427/1/6 431/1/6
f 429/1/6 430/1/6 431/1/6
f 428/1/6 429/1/6 431/1/6
f 427/1/6 428/1/6 431/1/6
f 430/1/6 418/1/6 432/1/6
f 431/1/6 430/1/6 432/1/6
