# MagicaVoxel @ Ephtracy

# group
o Stage6-1

# material
mtllib stage6-1-0-Stage6-1.mtl
usemtl palette

# normals
vn -1 0 0
vn 1 0 0
vn 0 0 1
vn 0 0 -1
vn 0 -1 0
vn 0 1 0

# texcoords
vt 0.279297 0.5
vt 0.396484 0.5

# verts
v -12.8 0 12.8
v -12.8 0 -12.8
v -12.8 1.5 12.8
v -12.8 1.5 -12.8
v -12.8 1.6 12.8
v -12.8 1.6 -12.8
v -11.8 0.1 12.7
v -11.8 0.1 11.8
v -11.8 0.1 11.7
v -11.8 0.1 -11.7
v -11.8 0.1 -11.8
v -11.8 0.1 -12.7
v -11.8 1.5 12.7
v -11.8 1.5 11.8
v -11.8 1.5 11.7
v -11.8 1.5 -11.7
v -11.8 1.5 -11.8
v -11.8 1.5 -12.7
v -8.7 0 8.7
v -8.7 0 1.5
v -8.7 0 -1.5
v -8.7 0 -8.7
v -8.7 1.5 8.7
v -8.7 1.5 1.5
v -8.7 1.5 -1.5
v -8.7 1.5 -8.7
v -8.6 1.5 8.6
v -8.6 1.5 1.6
v -8.6 1.5 -1.6
v -8.6 1.5 -8.6
v -8.6 1.6 8.6
v -8.6 1.6 1.6
v -8.6 1.6 -1.6
v -8.6 1.6 -8.6
v -1.6 0.1 8.6
v -1.6 0.1 1.6
v -1.6 0.1 -1.6
v -1.6 0.1 -8.6
v -1.6 1.5 8.6
v -1.6 1.5 1.6
v -1.6 1.5 -1.6
v -1.6 1.5 -8.6
v 1.5 0 8.7
v 1.5 0 6.6
v 1.5 0 3.6
v 1.5 0 1.5
v 1.5 0 -1.5
v 1.5 0 -8.7
v 1.5 1.5 8.7
v 1.5 1.5 6.6
v 1.5 1.5 3.6
v 1.5 1.5 1.5
v 1.5 1.5 -1.5
v 1.5 1.5 -8.7
v 1.6 1.5 8.6
v 1.6 1.5 6.7
v 1.6 1.5 3.5
v 1.6 1.5 1.6
v 1.6 1.5 -1.6
v 1.6 1.5 -8.6
v 1.6 1.6 8.6
v 1.6 1.6 6.7
v 1.6 1.6 3.5
v 1.6 1.6 1.6
v 1.6 1.6 -1.6
v 1.6 1.6 -8.6
v 6.6 0 6.6
v 6.6 0 3.6
v 6.6 1.5 6.6
v 6.6 1.5 3.6
v 6.7 1.5 6.7
v 6.7 1.5 3.5
v 6.7 1.6 6.7
v 6.7 1.6 3.5
v 8.6 0.1 8.6
v 8.6 0.1 6.7
v 8.6 0.1 6.6
v 8.6 0.1 3.6
v 8.6 0.1 3.5
v 8.6 0.1 1.6
v 8.6 0.1 -1.6
v 8.6 0.1 -8.6
v 8.6 1.5 8.6
v 8.6 1.5 6.7
v 8.6 1.5 6.6
v 8.6 1.5 3.6
v 8.6 1.5 3.5
v 8.6 1.5 1.6
v 8.6 1.5 -1.6
v 8.6 1.5 -8.6
v 11.7 0 11.7
v 11.7 0 -11.7
v 11.7 0.1 12.7
v 11.7 0.1 11.8
v 11.7 0.1 -11.8
v 11.7 0.1 -12.7
v 11.7 1.5 12.7
v 11.7 1.5 11.8
v 11.7 1.5 11.7
v 11.7 1.5 -11.7
v 11.7 1.5 -11.8
v 11.7 1.5 -12.7
v 11.8 1.5 11.8
v 11.8 1.5 -11.8
v 11.8 1.6 11.8
v 11.8 1.6 -11.8
v 12.7 0.1 12.7
v 12.7 0.1 11.8
v 12.7 0.1 11.7
v 12.7 0.1 -11.7
v 12.7 0.1 -11.8
v 12.7 0.1 -12.7
v 12.7 1.5 12.7
v 12.7 1.5 11.8
v 12.7 1.5 11.7
v 12.7 1.5 -11.7
v 12.7 1.5 -11.8
v 12.7 1.5 -12.7
v -12.7 0.1 12.7
v -12.7 0.1 11.8
v -12.7 0.1 11.7
v -12.7 0.1 -11.7
v -12.7 0.1 -11.8
v -12.7 0.1 -12.7
v -12.7 1.5 12.7
v -12.7 1.5 11.8
v -12.7 1.5 11.7
v -12.7 1.5 -11.7
v -12.7 1.5 -11.8
v -12.7 1.5 -12.7
v -11.8 1.5 11.8
v -11.8 1.5 -11.8
v -11.8 1.6 11.8
v -11.8 1.6 -11.8
v -11.7 0 11.7
v -11.7 0 -11.7
v -11.7 0.1 12.7
v -11.7 0.1 11.8
v -11.7 0.1 -11.8
v -11.7 0.1 -12.7
v -11.7 1.5 12.7
v -11.7 1.5 11.8
v -11.7 1.5 11.7
v -11.7 1.5 -11.7
v -11.7 1.5 -11.8
v -11.7 1.5 -12.7
v -8.6 0.1 8.6
v -8.6 0.1 1.6
v -8.6 0.1 -1.6
v -8.6 0.1 -8.6
v -8.6 1.5 8.6
v -8.6 1.5 1.6
v -8.6 1.5 -1.6
v -8.6 1.5 -8.6
v -1.6 1.5 8.6
v -1.6 1.5 1.6
v -1.6 1.5 -1.6
v -1.6 1.5 -8.6
v -1.6 1.6 8.6
v -1.6 1.6 1.6
v -1.6 1.6 -1.6
v -1.6 1.6 -8.6
v -1.5 0 8.7
v -1.5 0 1.5
v -1.5 0 -1.5
v -1.5 0 -8.7
v -1.5 1.5 8.7
v -1.5 1.5 1.5
v -1.5 1.5 -1.5
v -1.5 1.5 -8.7
v 1.6 0.1 8.6
v 1.6 0.1 6.7
v 1.6 0.1 3.5
v 1.6 0.1 1.6
v 1.6 0.1 -1.6
v 1.6 0.1 -8.6
v 1.6 1.5 8.6
v 1.6 1.5 6.7
v 1.6 1.5 3.5
v 1.6 1.5 1.6
v 1.6 1.5 -1.6
v 1.6 1.5 -8.6
v 6.7 0.1 6.6
v 6.7 0.1 3.6
v 6.7 1.5 6.6
v 6.7 1.5 3.6
v 8.6 1.5 8.6
v 8.6 1.5 1.6
v 8.6 1.5 -1.6
v 8.6 1.5 -8.6
v 8.6 1.6 8.6
v 8.6 1.6 1.6
v 8.6 1.6 -1.6
v 8.6 1.6 -8.6
v 8.7 0 8.7
v 8.7 0 1.5
v 8.7 0 -1.5
v 8.7 0 -8.7
v 8.7 1.5 8.7
v 8.7 1.5 1.5
v 8.7 1.5 -1.5
v 8.7 1.5 -8.7
v 11.8 0.1 12.7
v 11.8 0.1 11.8
v 11.8 0.1 11.7
v 11.8 0.1 -11.7
v 11.8 0.1 -11.8
v 11.8 0.1 -12.7
v 11.8 1.5 12.7
v 11.8 1.5 11.8
v 11.8 1.5 11.7
v 11.8 1.5 -11.7
v 11.8 1.5 -11.8
v 11.8 1.5 -12.7
v 12.8 0 12.8
v 12.8 0 -12.8
v 12.8 1.5 12.8
v 12.8 1.5 -12.8
v 12.8 1.6 12.8
v 12.8 1.6 -12.8
v -12.8 0 12.8
v -12.8 1.5 12.8
v -12.8 1.6 12.8
v 12.8 0 12.8
v 12.8 1.5 12.8
v 12.8 1.6 12.8
v -12.7 0.1 11.8
v -12.7 1.5 11.8
v -11.8 0.1 11.8
v -11.8 1.5 11.8
v -11.7 0.1 11.8
v -11.7 1.5 11.8
v 11.7 0.1 11.8
v 11.7 1.5 11.8
v 11.8 0.1 11.8
v 11.8 1.5 11.8
v 12.7 0.1 11.8
v 12.7 1.5 11.8
v -8.7 0 8.7
v -8.7 1.5 8.7
v -1.5 0 8.7
v -1.5 1.5 8.7
v 1.5 0 8.7
v 1.5 1.5 8.7
v 8.7 0 8.7
v 8.7 1.5 8.7
v -8.6 1.5 8.6
v -8.6 1.6 8.6
v -1.6 1.5 8.6
v -1.6 1.6 8.6
v 1.6 1.5 8.6
v 1.6 1.6 8.6
v 8.6 1.5 8.6
v 8.6 1.6 8.6
v 1.6 0.1 6.7
v 1.6 1.5 6.7
v 8.6 0.1 6.7
v 8.6 1.5 6.7
v 1.5 0 3.6
v 1.5 1.5 3.6
v 6.6 0 3.6
v 6.6 1.5 3.6
v 6.7 0.1 3.6
v 6.7 1.5 3.6
v 8.6 0.1 3.6
v 8.6 1.5 3.6
v 1.6 1.5 3.5
v 1.6 1.6 3.5
v 6.7 1.5 3.5
v 6.7 1.6 3.5
v -8.6 0.1 1.6
v -8.6 1.5 1.6
v -1.6 0.1 1.6
v -1.6 1.5 1.6
v 1.6 0.1 1.6
v 1.6 1.5 1.6
v 8.6 0.1 1.6
v 8.6 1.5 1.6
v -8.7 0 -1.5
v -8.7 1.5 -1.5
v -1.5 0 -1.5
v -1.5 1.5 -1.5
v 1.5 0 -1.5
v 1.5 1.5 -1.5
v 8.7 0 -1.5
v 8.7 1.5 -1.5
v -8.6 1.5 -1.6
v -8.6 1.6 -1.6
v -1.6 1.5 -1.6
v -1.6 1.6 -1.6
v 1.6 1.5 -1.6
v 1.6 1.6 -1.6
v 8.6 1.5 -1.6
v 8.6 1.6 -1.6
v -8.6 0.1 -8.6
v -8.6 1.5 -8.6
v -1.6 0.1 -8.6
v -1.6 1.5 -8.6
v 1.6 0.1 -8.6
v 1.6 1.5 -8.6
v 8.6 0.1 -8.6
v 8.6 1.5 -8.6
v -12.7 0.1 -11.7
v -12.7 1.5 -11.7
v -11.8 0.1 -11.7
v -11.8 1.5 -11.7
v -11.7 0 -11.7
v -11.7 1.5 -11.7
v 11.7 0 -11.7
v 11.7 1.5 -11.7
v 11.8 0.1 -11.7
v 11.8 1.5 -11.7
v 12.7 0.1 -11.7
v 12.7 1.5 -11.7
v -11.8 1.5 -11.8
v -11.8 1.6 -11.8
v 11.8 1.5 -11.8
v 11.8 1.6 -11.8
v -12.7 0.1 -12.7
v -12.7 1.5 -12.7
v -11.8 0.1 -12.7
v -11.8 1.5 -12.7
v -11.7 0.1 -12.7
v -11.7 1.5 -12.7
v 11.7 0.1 -12.7
v 11.7 1.5 -12.7
v 11.8 0.1 -12.7
v 11.8 1.5 -12.7
v 12.7 0.1 -12.7
v 12.7 1.5 -12.7
v -12.7 0.1 12.7
v -12.7 1.5 12.7
v -11.8 0.1 12.7
v -11.8 1.5 12.7
v -11.7 0.1 12.7
v -11.7 1.5 12.7
v 11.7 0.1 12.7
v 11.7 1.5 12.7
v 11.8 0.1 12.7
v 11.8 1.5 12.7
v 12.7 0.1 12.7
v 12.7 1.5 12.7
v -11.8 1.5 11.8
v -11.8 1.6 11.8
v 11.8 1.5 11.8
v 11.8 1.6 11.8
v -12.7 0.1 11.7
v -12.7 1.5 11.7
v -11.8 0.1 11.7
v -11.8 1.5 11.7
v -11.7 0 11.7
v -11.7 1.5 11.7
v 11.7 0 11.7
v 11.7 1.5 11.7
v 11.8 0.1 11.7
v 11.8 1.5 11.7
v 12.7 0.1 11.7
v 12.7 1.5 11.7
v -8.6 0.1 8.6
v -8.6 1.5 8.6
v -1.6 0.1 8.6
v -1.6 1.5 8.6
v 1.6 0.1 8.6
v 1.6 1.5 8.6
v 8.6 0.1 8.6
v 8.6 1.5 8.6
v 1.6 1.5 6.7
v 1.6 1.6 6.7
v 6.7 1.5 6.7
v 6.7 1.6 6.7
v 1.5 0 6.6
v 1.5 1.5 6.6
v 6.6 0 6.6
v 6.6 1.5 6.6
v 6.7 0.1 6.6
v 6.7 1.5 6.6
v 8.6 0.1 6.6
v 8.6 1.5 6.6
v 1.6 0.1 3.5
v 1.6 1.5 3.5
v 8.6 0.1 3.5
v 8.6 1.5 3.5
v -8.6 1.5 1.6
v -8.6 1.6 1.6
v -1.6 1.5 1.6
v -1.6 1.6 1.6
v 1.6 1.5 1.6
v 1.6 1.6 1.6
v 8.6 1.5 1.6
v 8.6 1.6 1.6
v -8.7 0 1.5
v -8.7 1.5 1.5
v -1.5 0 1.5
v -1.5 1.5 1.5
v 1.5 0 1.5
v 1.5 1.5 1.5
v 8.7 0 1.5
v 8.7 1.5 1.5
v -8.6 0.1 -1.6
v -8.6 1.5 -1.6
v -1.6 0.1 -1.6
v -1.6 1.5 -1.6
v 1.6 0.1 -1.6
v 1.6 1.5 -1.6
v 8.6 0.1 -1.6
v 8.6 1.5 -1.6
v -8.6 1.5 -8.6
v -8.6 1.6 -8.6
v -1.6 1.5 -8.6
v -1.6 1.6 -8.6
v 1.6 1.5 -8.6
v 1.6 1.6 -8.6
v 8.6 1.5 -8.6
v 8.6 1.6 -8.6
v -8.7 0 -8.7
v -8.7 1.5 -8.7
v -1.5 0 -8.7
v -1.5 1.5 -8.7
v 1.5 0 -8.7
v 1.5 1.5 -8.7
v 8.7 0 -8.7
v 8.7 1.5 -8.7
v -12.7 0.1 -11.8
v -12.7 1.5 -11.8
v -11.8 0.1 -11.8
v -11.8 1.5 -11.8
v -11.7 0.1 -11.8
v -11.7 1.5 -11.8
v 11.7 0.1 -11.8
v 11.7 1.5 -11.8
v 11.8 0.1 -11.8
v 11.8 1.5 -11.8
v 12.7 0.1 -11.8
v 12.7 1.5 -11.8
v -12.8 0 -12.8
v -12.8 1.5 -12.8
v -12.8 1.6 -12.8
v 12.8 0 -12.8
v 12.8 1.5 -12.8
v 12.8 1.6 -12.8
v -12.8 0 12.8
v 12.8 0 12.8
v -11.7 0 11.7
v 11.7 0 11.7
v -8.7 0 8.7
v -1.5 0 8.7
v 1.5 0 8.7
v 8.7 0 8.7
v 1.5 0 6.6
v 6.6 0 6.6
v 1.5 0 3.6
v 6.6 0 3.6
v -8.7 0 1.5
v -1.5 0 1.5
v 1.5 0 1.5
v 8.7 0 1.5
v -8.7 0 -1.5
v -1.5 0 -1.5
v 1.5 0 -1.5
v 8.7 0 -1.5
v -8.7 0 -8.7
v -1.5 0 -8.7
v 1.5 0 -8.7
v 8.7 0 -8.7
v -11.7 0 -11.7
v 11.7 0 -11.7
v -12.8 0 -12.8
v 12.8 0 -12.8
v -12.7 1.5 12.7
v -11.8 1.5 12.7
v -11.7 1.5 12.7
v 11.7 1.5 12.7
v 11.8 1.5 12.7
v 12.7 1.5 12.7
v -12.7 1.5 11.8
v -11.8 1.5 11.8
v -11.7 1.5 11.8
v 11.7 1.5 11.8
v 11.8 1.5 11.8
v 12.7 1.5 11.8
v -12.7 1.5 11.7
v -11.8 1.5 11.7
v 11.8 1.5 11.7
v 12.7 1.5 11.7
v -8.6 1.5 8.6
v -1.6 1.5 8.6
v 1.6 1.5 8.6
v 8.6 1.5 8.6
v 1.6 1.5 6.7
v 8.6 1.5 6.7
v 6.7 1.5 6.6
v 8.6 1.5 6.6
v 6.7 1.5 3.6
v 8.6 1.5 3.6
v 1.6 1.5 3.5
v 8.6 1.5 3.5
v -8.6 1.5 1.6
v -1.6 1.5 1.6
v 1.6 1.5 1.6
v 8.6 1.5 1.6
v -8.6 1.5 -1.6
v -1.6 1.5 -1.6
v 1.6 1.5 -1.6
v 8.6 1.5 -1.6
v -8.6 1.5 -8.6
v -1.6 1.5 -8.6
v 1.6 1.5 -8.6
v 8.6 1.5 -8.6
v -12.7 1.5 -11.7
v -11.8 1.5 -11.7
v 11.8 1.5 -11.7
v 12.7 1.5 -11.7
v -12.7 1.5 -11.8
v -11.8 1.5 -11.8
v -11.7 1.5 -11.8
v 11.7 1.5 -11.8
v 11.8 1.5 -11.8
v 12.7 1.5 -11.8
v -12.7 1.5 -12.7
v -11.8 1.5 -12.7
v -11.7 1.5 -12.7
v 11.7 1.5 -12.7
v 11.8 1.5 -12.7
v 12.7 1.5 -12.7
v -12.7 0.1 12.7
v -11.8 0.1 12.7
v -11.7 0.1 12.7
v 11.7 0.1 12.7
v 11.8 0.1 12.7
v 12.7 0.1 12.7
v -12.7 0.1 11.8
v -11.8 0.1 11.8
v -11.7 0.1 11.8
v 11.7 0.1 11.8
v 11.8 0.1 11.8
v 12.7 0.1 11.8
v -12.7 0.1 11.7
v -11.8 0.1 11.7
v 11.8 0.1 11.7
v 12.7 0.1 11.7
v -8.6 0.1 8.6
v -1.6 0.1 8.6
v 1.6 0.1 8.6
v 8.6 0.1 8.6
v 1.6 0.1 6.7
v 8.6 0.1 6.7
v 6.7 0.1 6.6
v 8.6 0.1 6.6
v 6.7 0.1 3.6
v 8.6 0.1 3.6
v 1.6 0.1 3.5
v 8.6 0.1 3.5
v -8.6 0.1 1.6
v -1.6 0.1 1.6
v 1.6 0.1 1.6
v 8.6 0.1 1.6
v -8.6 0.1 -1.6
v -1.6 0.1 -1.6
v 1.6 0.1 -1.6
v 8.6 0.1 -1.6
v -8.6 0.1 -8.6
v -1.6 0.1 -8.6
v 1.6 0.1 -8.6
v 8.6 0.1 -8.6
v -12.7 0.1 -11.7
v -11.8 0.1 -11.7
v 11.8 0.1 -11.7
v 12.7 0.1 -11.7
v -12.7 0.1 -11.8
v -11.8 0.1 -11.8
v -11.7 0.1 -11.8
v 11.7 0.1 -11.8
v 11.8 0.1 -11.8
v 12.7 0.1 -11.8
v -12.7 0.1 -12.7
v -11.8 0.1 -12.7
v -11.7 0.1 -12.7
v 11.7 0.1 -12.7
v 11.8 0.1 -12.7
v 12.7 0.1 -12.7
v -11.8 1.5 11.8
v 11.8 1.5 11.8
v -11.7 1.5 11.7
v 11.7 1.5 11.7
v -8.7 1.5 8.7
v -1.5 1.5 8.7
v 1.5 1.5 8.7
v 8.7 1.5 8.7
v -8.6 1.5 8.6
v -1.6 1.5 8.6
v 1.6 1.5 8.6
v 8.6 1.5 8.6
v 1.6 1.5 6.7
v 6.7 1.5 6.7
v 1.5 1.5 6.6
v 6.6 1.5 6.6
v 1.5 1.5 3.6
v 6.6 1.5 3.6
v 1.6 1.5 3.5
v 6.7 1.5 3.5
v -8.6 1.5 1.6
v -1.6 1.5 1.6
v 1.6 1.5 1.6
v 8.6 1.5 1.6
v -8.7 1.5 1.5
v -1.5 1.5 1.5
v 1.5 1.5 1.5
v 8.7 1.5 1.5
v -8.7 1.5 -1.5
v -1.5 1.5 -1.5
v 1.5 1.5 -1.5
v 8.7 1.5 -1.5
v -8.6 1.5 -1.6
v -1.6 1.5 -1.6
v 1.6 1.5 -1.6
v 8.6 1.5 -1.6
v -8.6 1.5 -8.6
v -1.6 1.5 -8.6
v 1.6 1.5 -8.6
v 8.6 1.5 -8.6
v -8.7 1.5 -8.7
v -1.5 1.5 -8.7
v 1.5 1.5 -8.7
v 8.7 1.5 -8.7
v -11.7 1.5 -11.7
v 11.7 1.5 -11.7
v -11.8 1.5 -11.8
v 11.8 1.5 -11.8
v -12.8 1.6 12.8
v 12.8 1.6 12.8
v -11.8 1.6 11.8
v 11.8 1.6 11.8
v -8.6 1.6 8.6
v -1.6 1.6 8.6
v 1.6 1.6 8.6
v 8.6 1.6 8.6
v 1.6 1.6 6.7
v 6.7 1.6 6.7
v 1.6 1.6 3.5
v 6.7 1.6 3.5
v -8.6 1.6 1.6
v -1.6 1.6 1.6
v 1.6 1.6 1.6
v 8.6 1.6 1.6
v -8.6 1.6 -1.6
v -1.6 1.6 -1.6
v 1.6 1.6 -1.6
v 8.6 1.6 -1.6
v -8.6 1.6 -8.6
v -1.6 1.6 -8.6
v 1.6 1.6 -8.6
v 8.6 1.6 -8.6
v -11.8 1.6 -11.8
v 11.8 1.6 -11.8
v -12.8 1.6 -12.8
v 12.8 1.6 -12.8

# faces
f 3/2/1 2/2/1 1/2/1
f 4/2/1 2/2/1 3/2/1
f 5/1/1 4/1/1 3/1/1
f 6/1/1 4/1/1 5/1/1
f 13/2/1 8/2/1 7/2/1
f 14/2/1 8/2/1 13/2/1
f 15/2/1 10/2/1 9/2/1
f 16/2/1 10/2/1 15/2/1
f 17/2/1 12/2/1 11/2/1
f 18/2/1 12/2/1 17/2/1
f 23/2/1 20/2/1 19/2/1
f 24/2/1 20/2/1 23/2/1
f 25/2/1 22/2/1 21/2/1
f 26/2/1 22/2/1 25/2/1
f 31/1/1 28/1/1 27/1/1
f 32/1/1 28/1/1 31/1/1
f 33/1/1 30/1/1 29/1/1
f 34/1/1 30/1/1 33/1/1
f 39/2/1 36/2/1 35/2/1
f 40/2/1 36/2/1 39/2/1
f 41/2/1 38/2/1 37/2/1
f 42/2/1 38/2/1 41/2/1
f 49/2/1 44/2/1 43/2/1
f 50/2/1 44/2/1 49/2/1
f 51/2/1 46/2/1 45/2/1
f 52/2/1 46/2/1 51/2/1
f 53/2/1 48/2/1 47/2/1
f 54/2/1 48/2/1 53/2/1
f 61/1/1 56/1/1 55/1/1
f 62/1/1 56/1/1 61/1/1
f 63/1/1 58/1/1 57/1/1
f 64/1/1 58/1/1 63/1/1
f 65/1/1 60/1/1 59/1/1
f 66/1/1 60/1/1 65/1/1
f 69/2/1 68/2/1 67/2/1
f 70/2/1 68/2/1 69/2/1
f 73/1/1 72/1/1 71/1/1
f 74/1/1 72/1/1 73/1/1
f 83/2/1 76/2/1 75/2/1
f 84/2/1 76/2/1 83/2/1
f 85/2/1 78/2/1 77/2/1
f 86/2/1 78/2/1 85/2/1
f 87/2/1 80/2/1 79/2/1
f 88/2/1 80/2/1 87/2/1
f 89/2/1 82/2/1 81/2/1
f 90/2/1 82/2/1 89/2/1
f 97/2/1 94/2/1 93/2/1
f 98/2/1 94/2/1 97/2/1
f 99/2/1 92/2/1 91/2/1
f 100/2/1 92/2/1 99/2/1
f 101/2/1 96/2/1 95/2/1
f 102/2/1 96/2/1 101/2/1
f 105/1/1 104/1/1 103/1/1
f 106/1/1 104/1/1 105/1/1
f 113/2/1 108/2/1 107/2/1
f 114/2/1 108/2/1 113/2/1
f 115/2/1 110/2/1 109/2/1
f 116/2/1 110/2/1 115/2/1
f 117/2/1 112/2/1 111/2/1
f 118/2/1 112/2/1 117/2/1
f 119/2/2 120/2/2 125/2/2
f 125/2/2 120/2/2 126/2/2
f 121/2/2 122/2/2 127/2/2
f 127/2/2 122/2/2 128/2/2
f 123/2/2 124/2/2 129/2/2
f 129/2/2 124/2/2 130/2/2
f 131/1/2 132/1/2 133/1/2
f 133/1/2 132/1/2 134/1/2
f 137/2/2 138/2/2 141/2/2
f 141/2/2 138/2/2 142/2/2
f 135/2/2 136/2/2 143/2/2
f 143/2/2 136/2/2 144/2/2
f 139/2/2 140/2/2 145/2/2
f 145/2/2 140/2/2 146/2/2
f 147/2/2 148/2/2 151/2/2
f 151/2/2 148/2/2 152/2/2
f 149/2/2 150/2/2 153/2/2
f 153/2/2 150/2/2 154/2/2
f 155/1/2 156/1/2 159/1/2
f 159/1/2 156/1/2 160/1/2
f 157/1/2 158/1/2 161/1/2
f 161/1/2 158/1/2 162/1/2
f 163/2/2 164/2/2 167/2/2
f 167/2/2 164/2/2 168/2/2
f 165/2/2 166/2/2 169/2/2
f 169/2/2 166/2/2 170/2/2
f 171/2/2 172/2/2 177/2/2
f 177/2/2 172/2/2 178/2/2
f 173/2/2 174/2/2 179/2/2
f 179/2/2 174/2/2 180/2/2
f 175/2/2 176/2/2 181/2/2
f 181/2/2 176/2/2 182/2/2
f 183/2/2 184/2/2 185/2/2
f 185/2/2 184/2/2 186/2/2
f 187/1/2 188/1/2 191/1/2
f 191/1/2 188/1/2 192/1/2
f 189/1/2 190/1/2 193/1/2
f 193/1/2 190/1/2 194/1/2
f 195/2/2 196/2/2 199/2/2
f 199/2/2 196/2/2 200/2/2
f 197/2/2 198/2/2 201/2/2
f 201/2/2 198/2/2 202/2/2
f 203/2/2 204/2/2 209/2/2
f 209/2/2 204/2/2 210/2/2
f 205/2/2 206/2/2 211/2/2
f 211/2/2 206/2/2 212/2/2
f 207/2/2 208/2/2 213/2/2
f 213/2/2 208/2/2 214/2/2
f 215/2/2 216/2/2 217/2/2
f 217/2/2 216/2/2 218/2/2
f 217/1/2 218/1/2 219/1/2
f 219/1/2 218/1/2 220/1/2
f 224/2/3 222/2/3 221/2/3
f 225/1/3 223/1/3 222/1/3
f 225/2/3 222/2/3 224/2/3
f 226/1/3 223/1/3 225/1/3
f 229/2/3 228/2/3 227/2/3
f 230/2/3 228/2/3 229/2/3
f 233/2/3 232/2/3 231/2/3
f 234/2/3 232/2/3 233/2/3
f 237/2/3 236/2/3 235/2/3
f 238/2/3 236/2/3 237/2/3
f 241/2/3 240/2/3 239/2/3
f 242/2/3 240/2/3 241/2/3
f 245/2/3 244/2/3 243/2/3
f 246/2/3 244/2/3 245/2/3
f 249/1/3 248/1/3 247/1/3
f 250/1/3 248/1/3 249/1/3
f 253/1/3 252/1/3 251/1/3
f 254/1/3 252/1/3 253/1/3
f 257/2/3 256/2/3 255/2/3
f 258/2/3 256/2/3 257/2/3
f 261/2/3 260/2/3 259/2/3
f 262/2/3 260/2/3 261/2/3
f 265/2/3 264/2/3 263/2/3
f 266/2/3 264/2/3 265/2/3
f 269/1/3 268/1/3 267/1/3
f 270/1/3 268/1/3 269/1/3
f 273/2/3 272/2/3 271/2/3
f 274/2/3 272/2/3 273/2/3
f 277/2/3 276/2/3 275/2/3
f 278/2/3 276/2/3 277/2/3
f 281/2/3 280/2/3 279/2/3
f 282/2/3 280/2/3 281/2/3
f 285/2/3 284/2/3 283/2/3
f 286/2/3 284/2/3 285/2/3
f 289/1/3 288/1/3 287/1/3
f 290/1/3 288/1/3 289/1/3
f 293/1/3 292/1/3 291/1/3
f 294/1/3 292/1/3 293/1/3
f 297/2/3 296/2/3 295/2/3
f 298/2/3 296/2/3 297/2/3
f 301/2/3 300/2/3 299/2/3
f 302/2/3 300/2/3 301/2/3
f 305/2/3 304/2/3 303/2/3
f 306/2/3 304/2/3 305/2/3
f 309/2/3 308/2/3 307/2/3
f 310/2/3 308/2/3 309/2/3
f 313/2/3 312/2/3 311/2/3
f 314/2/3 312/2/3 313/2/3
f 317/1/3 316/1/3 315/1/3
f 318/1/3 316/1/3 317/1/3
f 321/2/3 320/2/3 319/2/3
f 322/2/3 320/2/3 321/2/3
f 325/2/3 324/2/3 323/2/3
f 326/2/3 324/2/3 325/2/3
f 329/2/3 328/2/3 327/2/3
f 330/2/3 328/2/3 329/2/3
f 331/2/4 332/2/4 333/2/4
f 333/2/4 332/2/4 334/2/4
f 335/2/4 336/2/4 337/2/4
f 337/2/4 336/2/4 338/2/4
f 339/2/4 340/2/4 341/2/4
f 341/2/4 340/2/4 342/2/4
f 343/1/4 344/1/4 345/1/4
f 345/1/4 344/1/4 346/1/4
f 347/2/4 348/2/4 349/2/4
f 349/2/4 348/2/4 350/2/4
f 351/2/4 352/2/4 353/2/4
f 353/2/4 352/2/4 354/2/4
f 355/2/4 356/2/4 357/2/4
f 357/2/4 356/2/4 358/2/4
f 359/2/4 360/2/4 361/2/4
f 361/2/4 360/2/4 362/2/4
f 363/2/4 364/2/4 365/2/4
f 365/2/4 364/2/4 366/2/4
f 367/1/4 368/1/4 369/1/4
f 369/1/4 368/1/4 370/1/4
f 371/2/4 372/2/4 373/2/4
f 373/2/4 372/2/4 374/2/4
f 375/2/4 376/2/4 377/2/4
f 377/2/4 376/2/4 378/2/4
f 379/2/4 380/2/4 381/2/4
f 381/2/4 380/2/4 382/2/4
f 383/1/4 384/1/4 385/1/4
f 385/1/4 384/1/4 386/1/4
f 387/1/4 388/1/4 389/1/4
f 389/1/4 388/1/4 390/1/4
f 391/2/4 392/2/4 393/2/4
f 393/2/4 392/2/4 394/2/4
f 395/2/4 396/2/4 397/2/4
f 397/2/4 396/2/4 398/2/4
f 399/2/4 400/2/4 401/2/4
f 401/2/4 400/2/4 402/2/4
f 403/2/4 404/2/4 405/2/4
f 405/2/4 404/2/4 406/2/4
f 407/1/4 408/1/4 409/1/4
f 409/1/4 408/1/4 410/1/4
f 411/1/4 412/1/4 413/1/4
f 413/1/4 412/1/4 414/1/4
f 415/2/4 416/2/4 417/2/4
f 417/2/4 416/2/4 418/2/4
f 419/2/4 420/2/4 421/2/4
f 421/2/4 420/2/4 422/2/4
f 423/2/4 424/2/4 425/2/4
f 425/2/4 424/2/4 426/2/4
f 427/2/4 428/2/4 429/2/4
f 429/2/4 428/2/4 430/2/4
f 431/2/4 432/2/4 433/2/4
f 433/2/4 432/2/4 434/2/4
f 435/2/4 436/2/4 438/2/4
f 436/1/4 437/1/4 439/1/4
f 438/2/4 436/2/4 439/2/4
f 439/1/4 437/1/4 440/1/4
f 443/2/5 442/2/5 441/2/5
f 444/2/5 442/2/5 443/2/5
f 449/2/5 448/2/5 447/2/5
f 450/2/5 448/2/5 449/2/5
f 452/2/5 448/2/5 450/2/5
f 453/2/5 446/2/5 445/2/5
f 454/2/5 446/2/5 453/2/5
f 455/2/5 452/2/5 451/2/5
f 456/2/5 448/2/5 452/2/5
f 456/2/5 452/2/5 455/2/5
f 461/2/5 458/2/5 457/2/5
f 462/2/5 458/2/5 461/2/5
f 463/2/5 460/2/5 459/2/5
f 464/2/5 460/2/5 463/2/5
f 465/2/5 443/2/5 441/2/5
f 466/2/5 442/2/5 444/2/5
f 467/2/5 465/2/5 441/2/5
f 467/2/5 466/2/5 465/2/5
f 468/2/5 442/2/5 466/2/5
f 468/2/5 466/2/5 467/2/5
f 475/1/5 470/1/5 469/1/5
f 476/1/5 470/1/5 475/1/5
f 477/1/5 472/1/5 471/1/5
f 478/1/5 472/1/5 477/1/5
f 479/1/5 474/1/5 473/1/5
f 480/1/5 474/1/5 479/1/5
f 489/1/5 488/1/5 487/1/5
f 490/1/5 488/1/5 489/1/5
f 493/1/5 492/1/5 491/1/5
f 494/1/5 492/1/5 493/1/5
f 497/1/5 486/1/5 485/1/5
f 498/1/5 486/1/5 497/1/5
f 499/1/5 496/1/5 495/1/5
f 500/1/5 496/1/5 499/1/5
f 505/1/5 502/1/5 501/1/5
f 506/1/5 502/1/5 505/1/5
f 507/1/5 504/1/5 503/1/5
f 508/1/5 504/1/5 507/1/5
f 509/1/5 482/1/5 481/1/5
f 510/1/5 482/1/5 509/1/5
f 511/1/5 484/1/5 483/1/5
f 512/1/5 484/1/5 511/1/5
f 519/1/5 514/1/5 513/1/5
f 520/1/5 514/1/5 519/1/5
f 521/1/5 516/1/5 515/1/5
f 522/1/5 516/1/5 521/1/5
f 523/1/5 518/1/5 517/1/5
f 524/1/5 518/1/5 523/1/5
f 525/2/6 526/2/6 531/2/6
f 531/2/6 526/2/6 532/2/6
f 527/2/6 528/2/6 533/2/6
f 533/2/6 528/2/6 534/2/6
f 529/2/6 530/2/6 535/2/6
f 535/2/6 530/2/6 536/2/6
f 543/2/6 544/2/6 545/2/6
f 545/2/6 544/2/6 546/2/6
f 547/2/6 548/2/6 549/2/6
f 549/2/6 548/2/6 550/2/6
f 541/2/6 542/2/6 553/2/6
f 553/2/6 542/2/6 554/2/6
f 551/2/6 552/2/6 555/2/6
f 555/2/6 552/2/6 556/2/6
f 557/2/6 558/2/6 561/2/6
f 561/2/6 558/2/6 562/2/6
f 559/2/6 560/2/6 563/2/6
f 563/2/6 560/2/6 564/2/6
f 537/2/6 538/2/6 565/2/6
f 565/2/6 538/2/6 566/2/6
f 539/2/6 540/2/6 567/2/6
f 567/2/6 540/2/6 568/2/6
f 569/2/6 570/2/6 575/2/6
f 575/2/6 570/2/6 576/2/6
f 571/2/6 572/2/6 577/2/6
f 577/2/6 572/2/6 578/2/6
f 573/2/6 574/2/6 579/2/6
f 579/2/6 574/2/6 580/2/6
f 581/2/6 582/2/6 583/2/6
f 583/2/6 582/2/6 584/2/6
f 585/2/6 586/2/6 589/2/6
f 589/2/6 586/2/6 590/2/6
f 587/2/6 588/2/6 591/2/6
f 591/2/6 588/2/6 592/2/6
f 587/2/6 591/2/6 593/2/6
f 587/2/6 593/2/6 595/2/6
f 593/2/6 594/2/6 595/2/6
f 595/2/6 594/2/6 596/2/6
f 596/2/6 594/2/6 598/2/6
f 597/2/6 598/2/6 599/2/6
f 598/2/6 594/2/6 600/2/6
f 599/2/6 598/2/6 600/2/6
f 585/2/6 589/2/6 601/2/6
f 590/2/6 586/2/6 602/2/6
f 597/2/6 599/2/6 603/2/6
f 592/2/6 588/2/6 604/2/6
f 585/2/6 601/2/6 605/2/6
f 601/2/6 602/2/6 605/2/6
f 602/2/6 586/2/6 606/2/6
f 605/2/6 602/2/6 606/2/6
f 603/2/6 604/2/6 607/2/6
f 597/2/6 603/2/6 607/2/6
f 604/2/6 588/2/6 608/2/6
f 607/2/6 604/2/6 608/2/6
f 609/2/6 610/2/6 613/2/6
f 613/2/6 610/2/6 614/2/6
f 611/2/6 612/2/6 615/2/6
f 615/2/6 612/2/6 616/2/6
f 609/2/6 613/2/6 617/2/6
f 614/2/6 610/2/6 618/2/6
f 611/2/6 615/2/6 619/2/6
f 616/2/6 612/2/6 620/2/6
f 609/2/6 617/2/6 621/2/6
f 617/2/6 618/2/6 621/2/6
f 618/2/6 610/2/6 622/2/6
f 621/2/6 618/2/6 622/2/6
f 619/2/6 620/2/6 623/2/6
f 611/2/6 619/2/6 623/2/6
f 620/2/6 612/2/6 624/2/6
f 623/2/6 620/2/6 624/2/6
f 581/2/6 583/2/6 625/2/6
f 584/2/6 582/2/6 626/2/6
f 581/2/6 625/2/6 627/2/6
f 625/2/6 626/2/6 627/2/6
f 626/2/6 582/2/6 628/2/6
f 627/2/6 626/2/6 628/2/6
f 629/1/6 630/1/6 631/1/6
f 631/1/6 630/1/6 632/1/6
f 635/1/6 636/1/6 637/1/6
f 637/1/6 636/1/6 638/1/6
f 638/1/6 636/1/6 640/1/6
f 633/1/6 634/1/6 641/1/6
f 641/1/6 634/1/6 642/1/6
f 639/1/6 640/1/6 643/1/6
f 640/1/6 636/1/6 644/1/6
f 643/1/6 640/1/6 644/1/6
f 645/1/6 646/1/6 649/1/6
f 649/1/6 646/1/6 650/1/6
f 647/1/6 648/1/6 651/1/6
f 651/1/6 648/1/6 652/1/6
f 629/1/6 631/1/6 653/1/6
f 632/1/6 630/1/6 654/1/6
f 629/1/6 653/1/6 655/1/6
f 653/1/6 654/1/6 655/1/6
f 654/1/6 630/1/6 656/1/6
f 655/1/6 654/1/6 656/1/6
