# MagicaVoxel @ Ephtracy

# group
o Stage5-B

# material
mtllib stage5-B-0-Stage5-B.mtl
usemtl palette

# normals
vn -1 0 0
vn 1 0 0
vn 0 0 1
vn 0 0 -1
vn 0 -1 0
vn 0 1 0

# texcoords
vt 0.279297 0.5
vt 0.396484 0.5

# verts
v -12.8 0 12.8
v -12.8 0 -12.8
v -12.8 1.5 12.8
v -12.8 1.5 -12.8
v -12.8 1.6 12.8
v -12.8 1.6 -12.8
v -11.8 0.1 12.7
v -11.8 0.1 11.8
v -11.8 0.1 11.7
v -11.8 0.1 -11.7
v -11.8 0.1 -11.8
v -11.8 0.1 -12.7
v -11.8 1.5 12.7
v -11.8 1.5 11.8
v -11.8 1.5 11.7
v -11.8 1.5 -11.7
v -11.8 1.5 -11.8
v -11.8 1.5 -12.7
v 11.7 0 11.7
v 11.7 0 -11.7
v 11.7 0.1 12.7
v 11.7 0.1 11.8
v 11.7 0.1 -11.8
v 11.7 0.1 -12.7
v 11.7 1.5 12.7
v 11.7 1.5 11.8
v 11.7 1.5 11.7
v 11.7 1.5 -11.7
v 11.7 1.5 -11.8
v 11.7 1.5 -12.7
v 11.8 1.5 11.8
v 11.8 1.5 -11.8
v 11.8 1.6 11.8
v 11.8 1.6 -11.8
v 12.7 0.1 12.7
v 12.7 0.1 11.8
v 12.7 0.1 11.7
v 12.7 0.1 -11.7
v 12.7 0.1 -11.8
v 12.7 0.1 -12.7
v 12.7 1.5 12.7
v 12.7 1.5 11.8
v 12.7 1.5 11.7
v 12.7 1.5 -11.7
v 12.7 1.5 -11.8
v 12.7 1.5 -12.7
v -12.7 0.1 12.7
v -12.7 0.1 11.8
v -12.7 0.1 11.7
v -12.7 0.1 -11.7
v -12.7 0.1 -11.8
v -12.7 0.1 -12.7
v -12.7 1.5 12.7
v -12.7 1.5 11.8
v -12.7 1.5 11.7
v -12.7 1.5 -11.7
v -12.7 1.5 -11.8
v -12.7 1.5 -12.7
v -11.8 1.5 11.8
v -11.8 1.5 -11.8
v -11.8 1.6 11.8
v -11.8 1.6 -11.8
v -11.7 0 11.7
v -11.7 0 -11.7
v -11.7 0.1 12.7
v -11.7 0.1 11.8
v -11.7 0.1 -11.8
v -11.7 0.1 -12.7
v -11.7 1.5 12.7
v -11.7 1.5 11.8
v -11.7 1.5 11.7
v -11.7 1.5 -11.7
v -11.7 1.5 -11.8
v -11.7 1.5 -12.7
v 11.8 0.1 12.7
v 11.8 0.1 11.8
v 11.8 0.1 11.7
v 11.8 0.1 -11.7
v 11.8 0.1 -11.8
v 11.8 0.1 -12.7
v 11.8 1.5 12.7
v 11.8 1.5 11.8
v 11.8 1.5 11.7
v 11.8 1.5 -11.7
v 11.8 1.5 -11.8
v 11.8 1.5 -12.7
v 12.8 0 12.8
v 12.8 0 -12.8
v 12.8 1.5 12.8
v 12.8 1.5 -12.8
v 12.8 1.6 12.8
v 12.8 1.6 -12.8
v -12.8 0 12.8
v -12.8 1.5 12.8
v -12.8 1.6 12.8
v 12.8 0 12.8
v 12.8 1.5 12.8
v 12.8 1.6 12.8
v -12.7 0.1 11.8
v -12.7 1.5 11.8
v -11.8 0.1 11.8
v -11.8 1.5 11.8
v -11.7 0.1 11.8
v -11.7 1.5 11.8
v 11.7 0.1 11.8
v 11.7 1.5 11.8
v 11.8 0.1 11.8
v 11.8 1.5 11.8
v 12.7 0.1 11.8
v 12.7 1.5 11.8
v -12.7 0.1 -11.7
v -12.7 1.5 -11.7
v -11.8 0.1 -11.7
v -11.8 1.5 -11.7
v -11.7 0 -11.7
v -11.7 1.5 -11.7
v 11.7 0 -11.7
v 11.7 1.5 -11.7
v 11.8 0.1 -11.7
v 11.8 1.5 -11.7
v 12.7 0.1 -11.7
v 12.7 1.5 -11.7
v -11.8 1.5 -11.8
v -11.8 1.6 -11.8
v 11.8 1.5 -11.8
v 11.8 1.6 -11.8
v -12.7 0.1 -12.7
v -12.7 1.5 -12.7
v -11.8 0.1 -12.7
v -11.8 1.5 -12.7
v -11.7 0.1 -12.7
v -11.7 1.5 -12.7
v 11.7 0.1 -12.7
v 11.7 1.5 -12.7
v 11.8 0.1 -12.7
v 11.8 1.5 -12.7
v 12.7 0.1 -12.7
v 12.7 1.5 -12.7
v -12.7 0.1 12.7
v -12.7 1.5 12.7
v -11.8 0.1 12.7
v -11.8 1.5 12.7
v -11.7 0.1 12.7
v -11.7 1.5 12.7
v 11.7 0.1 12.7
v 11.7 1.5 12.7
v 11.8 0.1 12.7
v 11.8 1.5 12.7
v 12.7 0.1 12.7
v 12.7 1.5 12.7
v -11.8 1.5 11.8
v -11.8 1.6 11.8
v 11.8 1.5 11.8
v 11.8 1.6 11.8
v -12.7 0.1 11.7
v -12.7 1.5 11.7
v -11.8 0.1 11.7
v -11.8 1.5 11.7
v -11.7 0 11.7
v -11.7 1.5 11.7
v 11.7 0 11.7
v 11.7 1.5 11.7
v 11.8 0.1 11.7
v 11.8 1.5 11.7
v 12.7 0.1 11.7
v 12.7 1.5 11.7
v -12.7 0.1 -11.8
v -12.7 1.5 -11.8
v -11.8 0.1 -11.8
v -11.8 1.5 -11.8
v -11.7 0.1 -11.8
v -11.7 1.5 -11.8
v 11.7 0.1 -11.8
v 11.7 1.5 -11.8
v 11.8 0.1 -11.8
v 11.8 1.5 -11.8
v 12.7 0.1 -11.8
v 12.7 1.5 -11.8
v -12.8 0 -12.8
v -12.8 1.5 -12.8
v -12.8 1.6 -12.8
v 12.8 0 -12.8
v 12.8 1.5 -12.8
v 12.8 1.6 -12.8
v -12.8 0 12.8
v 12.8 0 12.8
v -11.7 0 11.7
v 11.7 0 11.7
v -11.7 0 -11.7
v 11.7 0 -11.7
v -12.8 0 -12.8
v 12.8 0 -12.8
v -12.7 1.5 12.7
v -11.8 1.5 12.7
v -11.7 1.5 12.7
v 11.7 1.5 12.7
v 11.8 1.5 12.7
v 12.7 1.5 12.7
v -12.7 1.5 11.8
v -11.8 1.5 11.8
v -11.7 1.5 11.8
v 11.7 1.5 11.8
v 11.8 1.5 11.8
v 12.7 1.5 11.8
v -12.7 1.5 11.7
v -11.8 1.5 11.7
v 11.8 1.5 11.7
v 12.7 1.5 11.7
v -12.7 1.5 -11.7
v -11.8 1.5 -11.7
v 11.8 1.5 -11.7
v 12.7 1.5 -11.7
v -12.7 1.5 -11.8
v -11.8 1.5 -11.8
v -11.7 1.5 -11.8
v 11.7 1.5 -11.8
v 11.8 1.5 -11.8
v 12.7 1.5 -11.8
v -12.7 1.5 -12.7
v -11.8 1.5 -12.7
v -11.7 1.5 -12.7
v 11.7 1.5 -12.7
v 11.8 1.5 -12.7
v 12.7 1.5 -12.7
v -12.7 0.1 12.7
v -11.8 0.1 12.7
v -11.7 0.1 12.7
v 11.7 0.1 12.7
v 11.8 0.1 12.7
v 12.7 0.1 12.7
v -12.7 0.1 11.8
v -11.8 0.1 11.8
v -11.7 0.1 11.8
v 11.7 0.1 11.8
v 11.8 0.1 11.8
v 12.7 0.1 11.8
v -12.7 0.1 11.7
v -11.8 0.1 11.7
v 11.8 0.1 11.7
v 12.7 0.1 11.7
v -12.7 0.1 -11.7
v -11.8 0.1 -11.7
v 11.8 0.1 -11.7
v 12.7 0.1 -11.7
v -12.7 0.1 -11.8
v -11.8 0.1 -11.8
v -11.7 0.1 -11.8
v 11.7 0.1 -11.8
v 11.8 0.1 -11.8
v 12.7 0.1 -11.8
v -12.7 0.1 -12.7
v -11.8 0.1 -12.7
v -11.7 0.1 -12.7
v 11.7 0.1 -12.7
v 11.8 0.1 -12.7
v 12.7 0.1 -12.7
v -11.8 1.5 11.8
v 11.8 1.5 11.8
v -11.7 1.5 11.7
v 11.7 1.5 11.7
v -11.7 1.5 -11.7
v 11.7 1.5 -11.7
v -11.8 1.5 -11.8
v 11.8 1.5 -11.8
v -12.8 1.6 12.8
v 12.8 1.6 12.8
v -11.8 1.6 11.8
v 11.8 1.6 11.8
v -11.8 1.6 -11.8
v 11.8 1.6 -11.8
v -12.8 1.6 -12.8
v 12.8 1.6 -12.8

# faces
f 3/2/1 2/2/1 1/2/1
f 4/2/1 2/2/1 3/2/1
f 5/1/1 4/1/1 3/1/1
f 6/1/1 4/1/1 5/1/1
f 13/2/1 8/2/1 7/2/1
f 14/2/1 8/2/1 13/2/1
f 15/2/1 10/2/1 9/2/1
f 16/2/1 10/2/1 15/2/1
f 17/2/1 12/2/1 11/2/1
f 18/2/1 12/2/1 17/2/1
f 25/2/1 22/2/1 21/2/1
f 26/2/1 22/2/1 25/2/1
f 27/2/1 20/2/1 19/2/1
f 28/2/1 20/2/1 27/2/1
f 29/2/1 24/2/1 23/2/1
f 30/2/1 24/2/1 29/2/1
f 33/1/1 32/1/1 31/1/1
f 34/1/1 32/1/1 33/1/1
f 41/2/1 36/2/1 35/2/1
f 42/2/1 36/2/1 41/2/1
f 43/2/1 38/2/1 37/2/1
f 44/2/1 38/2/1 43/2/1
f 45/2/1 40/2/1 39/2/1
f 46/2/1 40/2/1 45/2/1
f 47/2/2 48/2/2 53/2/2
f 53/2/2 48/2/2 54/2/2
f 49/2/2 50/2/2 55/2/2
f 55/2/2 50/2/2 56/2/2
f 51/2/2 52/2/2 57/2/2
f 57/2/2 52/2/2 58/2/2
f 59/1/2 60/1/2 61/1/2
f 61/1/2 60/1/2 62/1/2
f 65/2/2 66/2/2 69/2/2
f 69/2/2 66/2/2 70/2/2
f 63/2/2 64/2/2 71/2/2
f 71/2/2 64/2/2 72/2/2
f 67/2/2 68/2/2 73/2/2
f 73/2/2 68/2/2 74/2/2
f 75/2/2 76/2/2 81/2/2
f 81/2/2 76/2/2 82/2/2
f 77/2/2 78/2/2 83/2/2
f 83/2/2 78/2/2 84/2/2
f 79/2/2 80/2/2 85/2/2
f 85/2/2 80/2/2 86/2/2
f 87/2/2 88/2/2 89/2/2
f 89/2/2 88/2/2 90/2/2
f 89/1/2 90/1/2 91/1/2
f 91/1/2 90/1/2 92/1/2
f 96/2/3 94/2/3 93/2/3
f 97/1/3 95/1/3 94/1/3
f 97/2/3 94/2/3 96/2/3
f 98/1/3 95/1/3 97/1/3
f 101/2/3 100/2/3 99/2/3
f 102/2/3 100/2/3 101/2/3
f 105/2/3 104/2/3 103/2/3
f 106/2/3 104/2/3 105/2/3
f 109/2/3 108/2/3 107/2/3
f 110/2/3 108/2/3 109/2/3
f 113/2/3 112/2/3 111/2/3
f 114/2/3 112/2/3 113/2/3
f 117/2/3 116/2/3 115/2/3
f 118/2/3 116/2/3 117/2/3
f 121/2/3 120/2/3 119/2/3
f 122/2/3 120/2/3 121/2/3
f 125/1/3 124/1/3 123/1/3
f 126/1/3 124/1/3 125/1/3
f 129/2/3 128/2/3 127/2/3
f 130/2/3 128/2/3 129/2/3
f 133/2/3 132/2/3 131/2/3
f 134/2/3 132/2/3 133/2/3
f 137/2/3 136/2/3 135/2/3
f 138/2/3 136/2/3 137/2/3
f 139/2/4 140/2/4 141/2/4
f 141/2/4 140/2/4 142/2/4
f 143/2/4 144/2/4 145/2/4
f 145/2/4 144/2/4 146/2/4
f 147/2/4 148/2/4 149/2/4
f 149/2/4 148/2/4 150/2/4
f 151/1/4 152/1/4 153/1/4
f 153/1/4 152/1/4 154/1/4
f 155/2/4 156/2/4 157/2/4
f 157/2/4 156/2/4 158/2/4
f 159/2/4 160/2/4 161/2/4
f 161/2/4 160/2/4 162/2/4
f 163/2/4 164/2/4 165/2/4
f 165/2/4 164/2/4 166/2/4
f 167/2/4 168/2/4 169/2/4
f 169/2/4 168/2/4 170/2/4
f 171/2/4 172/2/4 173/2/4
f 173/2/4 172/2/4 174/2/4
f 175/2/4 176/2/4 177/2/4
f 177/2/4 176/2/4 178/2/4
f 179/2/4 180/2/4 182/2/4
f 180/1/4 181/1/4 183/1/4
f 182/2/4 180/2/4 183/2/4
f 183/1/4 181/1/4 184/1/4
f 187/2/5 186/2/5 185/2/5
f 188/2/5 186/2/5 187/2/5
f 189/2/5 187/2/5 185/2/5
f 190/2/5 186/2/5 188/2/5
f 191/2/5 189/2/5 185/2/5
f 191/2/5 190/2/5 189/2/5
f 192/2/5 186/2/5 190/2/5
f 192/2/5 190/2/5 191/2/5
f 199/1/5 194/1/5 193/1/5
f 200/1/5 194/1/5 199/1/5
f 201/1/5 196/1/5 195/1/5
f 202/1/5 196/1/5 201/1/5
f 203/1/5 198/1/5 197/1/5
f 204/1/5 198/1/5 203/1/5
f 209/1/5 206/1/5 205/1/5
f 210/1/5 206/1/5 209/1/5
f 211/1/5 208/1/5 207/1/5
f 212/1/5 208/1/5 211/1/5
f 219/1/5 214/1/5 213/1/5
f 220/1/5 214/1/5 219/1/5
f 221/1/5 216/1/5 215/1/5
f 222/1/5 216/1/5 221/1/5
f 223/1/5 218/1/5 217/1/5
f 224/1/5 218/1/5 223/1/5
f 225/2/6 226/2/6 231/2/6
f 231/2/6 226/2/6 232/2/6
f 227/2/6 228/2/6 233/2/6
f 233/2/6 228/2/6 234/2/6
f 229/2/6 230/2/6 235/2/6
f 235/2/6 230/2/6 236/2/6
f 237/2/6 238/2/6 241/2/6
f 241/2/6 238/2/6 242/2/6
f 239/2/6 240/2/6 243/2/6
f 243/2/6 240/2/6 244/2/6
f 245/2/6 246/2/6 251/2/6
f 251/2/6 246/2/6 252/2/6
f 247/2/6 248/2/6 253/2/6
f 253/2/6 248/2/6 254/2/6
f 249/2/6 250/2/6 255/2/6
f 255/2/6 250/2/6 256/2/6
f 257/2/6 258/2/6 259/2/6
f 259/2/6 258/2/6 260/2/6
f 257/2/6 259/2/6 261/2/6
f 260/2/6 258/2/6 262/2/6
f 257/2/6 261/2/6 263/2/6
f 261/2/6 262/2/6 263/2/6
f 262/2/6 258/2/6 264/2/6
f 263/2/6 262/2/6 264/2/6
f 265/1/6 266/1/6 267/1/6
f 267/1/6 266/1/6 268/1/6
f 265/1/6 267/1/6 269/1/6
f 268/1/6 266/1/6 270/1/6
f 265/1/6 269/1/6 271/1/6
f 269/1/6 270/1/6 271/1/6
f 270/1/6 266/1/6 272/1/6
f 271/1/6 270/1/6 272/1/6
