# MagicaVoxel @ Ephtracy

# group
o Stage2-1

# material
mtllib stage2-1-0-Stage2-1.mtl
usemtl palette

# normals
vn 0 0 1
vn 0 0 -1
vn 1 0 0
vn -1 0 0
vn 0 -1 0
vn 0 1 0

# texcoords
vt 0.373047 0.5
vt 0.896484 0.5

# verts
v 12.8 0 12.8
v -12.8 0 12.8
v 12.8 0.8 12.8
v -12.8 0.8 12.8
v 12.8 0.9 12.8
v -12.8 0.9 12.8
v 7.7 0.1 5.6
v -4.4 0.1 5.6
v 7.7 0.8 5.6
v -4.4 0.8 5.6
v -3.9 0.1 2.1
v -4.4 0.1 2.1
v -3.9 0.8 2.1
v -4.4 0.8 2.1
v 9.9 0.1 1.5
v 7.8 0.1 1.5
v 7.7 0.1 1.5
v 7.2 0.1 1.5
v -3.9 0.1 1.5
v -9.3 0.1 1.5
v 9.9 0.8 1.5
v 7.8 0.8 1.5
v 7.7 0.8 1.5
v 7.2 0.8 1.5
v -3.9 0.8 1.5
v -9.3 0.8 1.5
v 12.8 0 -1.3
v 7.1 0 -1.3
v -3.8 0 -1.3
v -9.3 0 -1.3
v 12.8 0.8 -1.3
v 7.1 0.8 -1.3
v -3.8 0.8 -1.3
v -9.3 0.8 -1.3
v 12.8 0.8 -1.4
v 7.2 0.8 -1.4
v -3.9 0.8 -1.4
v -9.4 0.8 -1.4
v 12.8 0.9 -1.4
v 7.2 0.9 -1.4
v -3.9 0.9 -1.4
v -9.4 0.9 -1.4
v 9.9 0.1 -1.8
v 7.8 0.1 -1.8
v -3.9 0.1 -1.8
v -9.3 0.1 -1.8
v -9.4 0.1 -1.8
v -9.9 0.1 -1.8
v 9.9 0.8 -1.8
v 7.8 0.8 -1.8
v -3.9 0.8 -1.8
v -9.3 0.8 -1.8
v -9.4 0.8 -1.8
v -9.9 0.8 -1.8
v 7.1 0 -5.4
v -3.8 0 -5.4
v 7.7 0.1 -5.4
v 7.2 0.1 -5.4
v -3.9 0.1 -5.4
v -4.4 0.1 -5.4
v 7.7 0.8 -5.4
v 7.2 0.8 -5.4
v 7.1 0.8 -5.4
v -3.8 0.8 -5.4
v -3.9 0.8 -5.4
v -4.4 0.8 -5.4
v 7.2 0.8 -5.5
v -3.9 0.8 -5.5
v 7.2 0.9 -5.5
v -3.9 0.9 -5.5
v 7.7 0.1 -6
v -4.4 0.1 -6
v 7.7 0.8 -6
v -4.4 0.8 -6
v 7.7 0.1 6.1
v -4.4 0.1 6.1
v 7.7 0.8 6.1
v -4.4 0.8 6.1
v 7.2 0.8 5.6
v -3.9 0.8 5.6
v 7.2 0.9 5.6
v -3.9 0.9 5.6
v 7.1 0 5.5
v -3.8 0 5.5
v 7.7 0.1 5.5
v 7.2 0.1 5.5
v -3.9 0.1 5.5
v -4.4 0.1 5.5
v 7.7 0.8 5.5
v 7.2 0.8 5.5
v 7.1 0.8 5.5
v -3.8 0.8 5.5
v -3.9 0.8 5.5
v -4.4 0.8 5.5
v 9.9 0.1 2
v 7.8 0.1 2
v -3.9 0.1 2
v -9.3 0.1 2
v -9.4 0.1 2
v -9.9 0.1 2
v 9.9 0.8 2
v 7.8 0.8 2
v -3.9 0.8 2
v -9.3 0.8 2
v -9.4 0.8 2
v -9.9 0.8 2
v 12.8 0.8 1.5
v 7.2 0.8 1.5
v -3.9 0.8 1.5
v -9.4 0.8 1.5
v 12.8 0.9 1.5
v 7.2 0.9 1.5
v -3.9 0.9 1.5
v -9.4 0.9 1.5
v 12.8 0 1.4
v 7.1 0 1.4
v -3.8 0 1.4
v -9.3 0 1.4
v 12.8 0.8 1.4
v 7.1 0.8 1.4
v -3.8 0.8 1.4
v -9.3 0.8 1.4
v 9.9 0.1 -1.4
v 7.8 0.1 -1.4
v 7.7 0.1 -1.4
v 7.2 0.1 -1.4
v -3.9 0.1 -1.4
v -9.3 0.1 -1.4
v 9.9 0.8 -1.4
v 7.8 0.8 -1.4
v 7.7 0.8 -1.4
v 7.2 0.8 -1.4
v -3.9 0.8 -1.4
v -9.3 0.8 -1.4
v -3.9 0.1 -1.9
v -4.4 0.1 -1.9
v -3.9 0.8 -1.9
v -4.4 0.8 -1.9
v 7.7 0.1 -5.5
v -4.4 0.1 -5.5
v 7.7 0.8 -5.5
v -4.4 0.8 -5.5
v 12.8 0 -12.8
v -12.8 0 -12.8
v 12.8 0.8 -12.8
v -12.8 0.8 -12.8
v 12.8 0.9 -12.8
v -12.8 0.9 -12.8
v 12.8 0 12.8
v 12.8 0.8 12.8
v 12.8 0.9 12.8
v 12.8 0.8 1.5
v 12.8 0.9 1.5
v 12.8 0 1.4
v 12.8 0.8 1.4
v 12.8 0 -1.3
v 12.8 0.8 -1.3
v 12.8 0.8 -1.4
v 12.8 0.9 -1.4
v 12.8 0 -12.8
v 12.8 0.8 -12.8
v 12.8 0.9 -12.8
v 7.8 0.1 2
v 7.8 0.8 2
v 7.8 0.1 1.5
v 7.8 0.8 1.5
v 7.8 0.1 -1.4
v 7.8 0.8 -1.4
v 7.8 0.1 -1.8
v 7.8 0.8 -1.8
v 7.2 0.1 5.5
v 7.2 0.8 5.5
v 7.2 0.1 1.5
v 7.2 0.8 1.5
v 7.2 0.1 -1.4
v 7.2 0.8 -1.4
v 7.2 0.1 -5.4
v 7.2 0.8 -5.4
v -3.8 0 5.5
v -3.8 0.8 5.5
v -3.8 0 1.4
v -3.8 0.8 1.4
v -3.8 0 -1.3
v -3.8 0.8 -1.3
v -3.8 0 -5.4
v -3.8 0.8 -5.4
v -3.9 0.8 5.6
v -3.9 0.9 5.6
v -3.9 0.8 1.5
v -3.9 0.9 1.5
v -3.9 0.8 -1.4
v -3.9 0.9 -1.4
v -3.9 0.8 -5.5
v -3.9 0.9 -5.5
v -4.4 0.1 6.1
v -4.4 0.8 6.1
v -4.4 0.1 5.6
v -4.4 0.8 5.6
v -4.4 0.1 5.5
v -4.4 0.8 5.5
v -4.4 0.1 2.1
v -4.4 0.8 2.1
v -4.4 0.1 -1.9
v -4.4 0.8 -1.9
v -4.4 0.1 -5.4
v -4.4 0.8 -5.4
v -4.4 0.1 -5.5
v -4.4 0.8 -5.5
v -4.4 0.1 -6
v -4.4 0.8 -6
v -9.3 0.1 2
v -9.3 0.8 2
v -9.3 0.1 1.5
v -9.3 0.8 1.5
v -9.3 0 1.4
v -9.3 0.8 1.4
v -9.3 0 -1.3
v -9.3 0.8 -1.3
v -9.3 0.1 -1.4
v -9.3 0.8 -1.4
v -9.3 0.1 -1.8
v -9.3 0.8 -1.8
v -9.4 0.8 1.5
v -9.4 0.9 1.5
v -9.4 0.8 -1.4
v -9.4 0.9 -1.4
v -9.9 0.1 2
v -9.9 0.8 2
v -9.9 0.1 -1.8
v -9.9 0.8 -1.8
v 9.9 0.1 2
v 9.9 0.8 2
v 9.9 0.1 1.5
v 9.9 0.8 1.5
v 9.9 0.1 -1.4
v 9.9 0.8 -1.4
v 9.9 0.1 -1.8
v 9.9 0.8 -1.8
v 7.7 0.1 6.1
v 7.7 0.8 6.1
v 7.7 0.1 5.6
v 7.7 0.8 5.6
v 7.7 0.1 5.5
v 7.7 0.8 5.5
v 7.7 0.1 1.5
v 7.7 0.8 1.5
v 7.7 0.1 -1.4
v 7.7 0.8 -1.4
v 7.7 0.1 -5.4
v 7.7 0.8 -5.4
v 7.7 0.1 -5.5
v 7.7 0.8 -5.5
v 7.7 0.1 -6
v 7.7 0.8 -6
v 7.2 0.8 5.6
v 7.2 0.9 5.6
v 7.2 0.8 1.5
v 7.2 0.9 1.5
v 7.2 0.8 -1.4
v 7.2 0.9 -1.4
v 7.2 0.8 -5.5
v 7.2 0.9 -5.5
v 7.1 0 5.5
v 7.1 0.8 5.5
v 7.1 0 1.4
v 7.1 0.8 1.4
v 7.1 0 -1.3
v 7.1 0.8 -1.3
v 7.1 0 -5.4
v 7.1 0.8 -5.4
v -3.9 0.1 5.5
v -3.9 0.8 5.5
v -3.9 0.1 2.1
v -3.9 0.8 2.1
v -3.9 0.1 2
v -3.9 0.8 2
v -3.9 0.1 1.5
v -3.9 0.8 1.5
v -3.9 0.1 -1.4
v -3.9 0.8 -1.4
v -3.9 0.1 -1.8
v -3.9 0.8 -1.8
v -3.9 0.1 -1.9
v -3.9 0.8 -1.9
v -3.9 0.1 -5.4
v -3.9 0.8 -5.4
v -9.4 0.1 2
v -9.4 0.8 2
v -9.4 0.1 -1.8
v -9.4 0.8 -1.8
v -12.8 0 12.8
v -12.8 0.8 12.8
v -12.8 0.9 12.8
v -12.8 0 -12.8
v -12.8 0.8 -12.8
v -12.8 0.9 -12.8
v 12.8 0 12.8
v 12.8 0 1.4
v 12.8 0 -1.3
v 12.8 0 -12.8
v 7.1 0 5.5
v 7.1 0 1.4
v 7.1 0 -1.3
v 7.1 0 -5.4
v -3.8 0 5.5
v -3.8 0 1.4
v -3.8 0 -1.3
v -3.8 0 -5.4
v -9.3 0 1.4
v -9.3 0 -1.3
v -12.8 0 12.8
v -12.8 0 -12.8
v 9.9 0.8 2
v 9.9 0.8 1.5
v 9.9 0.8 -1.4
v 9.9 0.8 -1.8
v 7.8 0.8 2
v 7.8 0.8 1.5
v 7.8 0.8 -1.4
v 7.8 0.8 -1.8
v 7.7 0.8 6.1
v 7.7 0.8 5.6
v 7.7 0.8 5.5
v 7.7 0.8 1.5
v 7.7 0.8 -1.4
v 7.7 0.8 -5.4
v 7.7 0.8 -5.5
v 7.7 0.8 -6
v 7.2 0.8 5.5
v 7.2 0.8 1.5
v 7.2 0.8 -1.4
v 7.2 0.8 -5.4
v -3.9 0.8 5.5
v -3.9 0.8 2.1
v -3.9 0.8 2
v -3.9 0.8 1.5
v -3.9 0.8 -1.4
v -3.9 0.8 -1.8
v -3.9 0.8 -1.9
v -3.9 0.8 -5.4
v -4.4 0.8 6.1
v -4.4 0.8 5.6
v -4.4 0.8 5.5
v -4.4 0.8 2.1
v -4.4 0.8 -1.9
v -4.4 0.8 -5.4
v -4.4 0.8 -5.5
v -4.4 0.8 -6
v -9.3 0.8 2
v -9.3 0.8 1.5
v -9.3 0.8 -1.4
v -9.3 0.8 -1.8
v -9.4 0.8 2
v -9.4 0.8 -1.8
v -9.9 0.8 2
v -9.9 0.8 -1.8
v 9.9 0.1 2
v 9.9 0.1 1.5
v 9.9 0.1 -1.4
v 9.9 0.1 -1.8
v 7.8 0.1 2
v 7.8 0.1 1.5
v 7.8 0.1 -1.4
v 7.8 0.1 -1.8
v 7.7 0.1 6.1
v 7.7 0.1 5.6
v 7.7 0.1 5.5
v 7.7 0.1 1.5
v 7.7 0.1 -1.4
v 7.7 0.1 -5.4
v 7.7 0.1 -5.5
v 7.7 0.1 -6
v 7.2 0.1 5.5
v 7.2 0.1 1.5
v 7.2 0.1 -1.4
v 7.2 0.1 -5.4
v -3.9 0.1 5.5
v -3.9 0.1 2.1
v -3.9 0.1 2
v -3.9 0.1 1.5
v -3.9 0.1 -1.4
v -3.9 0.1 -1.8
v -3.9 0.1 -1.9
v -3.9 0.1 -5.4
v -4.4 0.1 6.1
v -4.4 0.1 5.6
v -4.4 0.1 5.5
v -4.4 0.1 2.1
v -4.4 0.1 -1.9
v -4.4 0.1 -5.4
v -4.4 0.1 -5.5
v -4.4 0.1 -6
v -9.3 0.1 2
v -9.3 0.1 1.5
v -9.3 0.1 -1.4
v -9.3 0.1 -1.8
v -9.4 0.1 2
v -9.4 0.1 -1.8
v -9.9 0.1 2
v -9.9 0.1 -1.8
v 12.8 0.8 1.5
v 12.8 0.8 1.4
v 12.8 0.8 -1.3
v 12.8 0.8 -1.4
v 7.2 0.8 5.6
v 7.2 0.8 1.5
v 7.2 0.8 -1.4
v 7.2 0.8 -5.5
v 7.1 0.8 5.5
v 7.1 0.8 1.4
v 7.1 0.8 -1.3
v 7.1 0.8 -5.4
v -3.8 0.8 5.5
v -3.8 0.8 1.4
v -3.8 0.8 -1.3
v -3.8 0.8 -5.4
v -3.9 0.8 5.6
v -3.9 0.8 1.5
v -3.9 0.8 -1.4
v -3.9 0.8 -5.5
v -9.3 0.8 1.4
v -9.3 0.8 -1.3
v -9.4 0.8 1.5
v -9.4 0.8 -1.4
v 12.8 0.9 12.8
v 12.8 0.9 1.5
v 12.8 0.9 -1.4
v 12.8 0.9 -12.8
v 7.2 0.9 5.6
v 7.2 0.9 1.5
v 7.2 0.9 -1.4
v 7.2 0.9 -5.5
v -3.9 0.9 5.6
v -3.9 0.9 1.5
v -3.9 0.9 -1.4
v -3.9 0.9 -5.5
v -9.4 0.9 1.5
v -9.4 0.9 -1.4
v -12.8 0.9 12.8
v -12.8 0.9 -12.8

# faces
f 3/1/1 2/1/1 1/1/1
f 4/1/1 2/1/1 3/1/1
f 5/2/1 4/2/1 3/2/1
f 6/2/1 4/2/1 5/2/1
f 9/1/1 8/1/1 7/1/1
f 10/1/1 8/1/1 9/1/1
f 13/1/1 12/1/1 11/1/1
f 14/1/1 12/1/1 13/1/1
f 21/1/1 16/1/1 15/1/1
f 22/1/1 16/1/1 21/1/1
f 23/1/1 18/1/1 17/1/1
f 24/1/1 18/1/1 23/1/1
f 25/1/1 20/1/1 19/1/1
f 26/1/1 20/1/1 25/1/1
f 31/1/1 28/1/1 27/1/1
f 32/1/1 28/1/1 31/1/1
f 33/1/1 30/1/1 29/1/1
f 34/1/1 30/1/1 33/1/1
f 39/2/1 36/2/1 35/2/1
f 40/2/1 36/2/1 39/2/1
f 41/2/1 38/2/1 37/2/1
f 42/2/1 38/2/1 41/2/1
f 49/1/1 44/1/1 43/1/1
f 50/1/1 44/1/1 49/1/1
f 51/1/1 46/1/1 45/1/1
f 52/1/1 46/1/1 51/1/1
f 53/1/1 48/1/1 47/1/1
f 54/1/1 48/1/1 53/1/1
f 61/1/1 58/1/1 57/1/1
f 62/1/1 58/1/1 61/1/1
f 63/1/1 56/1/1 55/1/1
f 64/1/1 56/1/1 63/1/1
f 65/1/1 60/1/1 59/1/1
f 66/1/1 60/1/1 65/1/1
f 69/2/1 68/2/1 67/2/1
f 70/2/1 68/2/1 69/2/1
f 73/1/1 72/1/1 71/1/1
f 74/1/1 72/1/1 73/1/1
f 75/1/2 76/1/2 77/1/2
f 77/1/2 76/1/2 78/1/2
f 79/2/2 80/2/2 81/2/2
f 81/2/2 80/2/2 82/2/2
f 85/1/2 86/1/2 89/1/2
f 89/1/2 86/1/2 90/1/2
f 83/1/2 84/1/2 91/1/2
f 91/1/2 84/1/2 92/1/2
f 87/1/2 88/1/2 93/1/2
f 93/1/2 88/1/2 94/1/2
f 95/1/2 96/1/2 101/1/2
f 101/1/2 96/1/2 102/1/2
f 97/1/2 98/1/2 103/1/2
f 103/1/2 98/1/2 104/1/2
f 99/1/2 100/1/2 105/1/2
f 105/1/2 100/1/2 106/1/2
f 107/2/2 108/2/2 111/2/2
f 111/2/2 108/2/2 112/2/2
f 109/2/2 110/2/2 113/2/2
f 113/2/2 110/2/2 114/2/2
f 115/1/2 116/1/2 119/1/2
f 119/1/2 116/1/2 120/1/2
f 117/1/2 118/1/2 121/1/2
f 121/1/2 118/1/2 122/1/2
f 123/1/2 124/1/2 129/1/2
f 129/1/2 124/1/2 130/1/2
f 125/1/2 126/1/2 131/1/2
f 131/1/2 126/1/2 132/1/2
f 127/1/2 128/1/2 133/1/2
f 133/1/2 128/1/2 134/1/2
f 135/1/2 136/1/2 137/1/2
f 137/1/2 136/1/2 138/1/2
f 139/1/2 140/1/2 141/1/2
f 141/1/2 140/1/2 142/1/2
f 143/1/2 144/1/2 145/1/2
f 145/1/2 144/1/2 146/1/2
f 145/2/2 146/2/2 147/2/2
f 147/2/2 146/2/2 148/2/2
f 152/1/3 150/1/3 149/1/3
f 152/2/3 151/2/3 150/2/3
f 153/2/3 151/2/3 152/2/3
f 154/1/3 152/1/3 149/1/3
f 155/1/3 152/1/3 154/1/3
f 158/1/3 157/1/3 156/1/3
f 160/1/3 158/1/3 156/1/3
f 161/2/3 159/2/3 158/2/3
f 161/1/3 158/1/3 160/1/3
f 162/2/3 159/2/3 161/2/3
f 165/1/3 164/1/3 163/1/3
f 166/1/3 164/1/3 165/1/3
f 169/1/3 168/1/3 167/1/3
f 170/1/3 168/1/3 169/1/3
f 173/1/3 172/1/3 171/1/3
f 174/1/3 172/1/3 173/1/3
f 177/1/3 176/1/3 175/1/3
f 178/1/3 176/1/3 177/1/3
f 181/1/3 180/1/3 179/1/3
f 182/1/3 180/1/3 181/1/3
f 185/1/3 184/1/3 183/1/3
f 186/1/3 184/1/3 185/1/3
f 189/2/3 188/2/3 187/2/3
f 190/2/3 188/2/3 189/2/3
f 193/2/3 192/2/3 191/2/3
f 194/2/3 192/2/3 193/2/3
f 197/1/3 196/1/3 195/1/3
f 198/1/3 196/1/3 197/1/3
f 201/1/3 200/1/3 199/1/3
f 202/1/3 200/1/3 201/1/3
f 205/1/3 204/1/3 203/1/3
f 206/1/3 204/1/3 205/1/3
f 209/1/3 208/1/3 207/1/3
f 210/1/3 208/1/3 209/1/3
f 213/1/3 212/1/3 211/1/3
f 214/1/3 212/1/3 213/1/3
f 217/1/3 216/1/3 215/1/3
f 218/1/3 216/1/3 217/1/3
f 221/1/3 220/1/3 219/1/3
f 222/1/3 220/1/3 221/1/3
f 225/2/3 224/2/3 223/2/3
f 226/2/3 224/2/3 225/2/3
f 229/1/3 228/1/3 227/1/3
f 230/1/3 228/1/3 229/1/3
f 231/1/4 232/1/4 233/1/4
f 233/1/4 232/1/4 234/1/4
f 235/1/4 236/1/4 237/1/4
f 237/1/4 236/1/4 238/1/4
f 239/1/4 240/1/4 241/1/4
f 241/1/4 240/1/4 242/1/4
f 243/1/4 244/1/4 245/1/4
f 245/1/4 244/1/4 246/1/4
f 247/1/4 248/1/4 249/1/4
f 249/1/4 248/1/4 250/1/4
f 251/1/4 252/1/4 253/1/4
f 253/1/4 252/1/4 254/1/4
f 255/2/4 256/2/4 257/2/4
f 257/2/4 256/2/4 258/2/4
f 259/2/4 260/2/4 261/2/4
f 261/2/4 260/2/4 262/2/4
f 263/1/4 264/1/4 265/1/4
f 265/1/4 264/1/4 266/1/4
f 267/1/4 268/1/4 269/1/4
f 269/1/4 268/1/4 270/1/4
f 271/1/4 272/1/4 273/1/4
f 273/1/4 272/1/4 274/1/4
f 275/1/4 276/1/4 277/1/4
f 277/1/4 276/1/4 278/1/4
f 279/1/4 280/1/4 281/1/4
f 281/1/4 280/1/4 282/1/4
f 283/1/4 284/1/4 285/1/4
f 285/1/4 284/1/4 286/1/4
f 287/1/4 288/1/4 289/1/4
f 289/1/4 288/1/4 290/1/4
f 291/1/4 292/1/4 294/1/4
f 292/2/4 293/2/4 295/2/4
f 294/1/4 292/1/4 295/1/4
f 295/2/4 293/2/4 296/2/4
f 301/1/5 298/1/5 297/1/5
f 302/1/5 298/1/5 301/1/5
f 303/1/5 300/1/5 299/1/5
f 304/1/5 300/1/5 303/1/5
f 305/1/5 301/1/5 297/1/5
f 308/1/5 300/1/5 304/1/5
f 309/1/5 306/1/5 305/1/5
f 310/1/5 308/1/5 307/1/5
f 311/1/5 309/1/5 305/1/5
f 311/1/5 310/1/5 309/1/5
f 311/1/5 305/1/5 297/1/5
f 312/1/5 308/1/5 310/1/5
f 312/1/5 310/1/5 311/1/5
f 312/1/5 300/1/5 308/1/5
f 317/2/5 314/2/5 313/2/5
f 318/2/5 314/2/5 317/2/5
f 319/2/5 316/2/5 315/2/5
f 320/2/5 316/2/5 319/2/5
f 329/2/5 324/2/5 323/2/5
f 330/2/5 324/2/5 329/2/5
f 331/2/5 326/2/5 325/2/5
f 332/2/5 326/2/5 331/2/5
f 341/2/5 322/2/5 321/2/5
f 342/2/5 322/2/5 341/2/5
f 343/2/5 334/2/5 333/2/5
f 344/2/5 334/2/5 343/2/5
f 345/2/5 340/2/5 339/2/5
f 346/2/5 340/2/5 345/2/5
f 347/2/5 328/2/5 327/2/5
f 348/2/5 328/2/5 347/2/5
f 349/2/5 336/2/5 335/2/5
f 350/2/5 336/2/5 349/2/5
f 351/2/5 338/2/5 337/2/5
f 352/2/5 338/2/5 351/2/5
f 355/2/5 354/2/5 353/2/5
f 356/2/5 354/2/5 355/2/5
f 357/1/6 358/1/6 361/1/6
f 361/1/6 358/1/6 362/1/6
f 359/1/6 360/1/6 363/1/6
f 363/1/6 360/1/6 364/1/6
f 367/1/6 368/1/6 373/1/6
f 373/1/6 368/1/6 374/1/6
f 369/1/6 370/1/6 375/1/6
f 375/1/6 370/1/6 376/1/6
f 365/1/6 366/1/6 385/1/6
f 385/1/6 366/1/6 386/1/6
f 377/1/6 378/1/6 387/1/6
f 387/1/6 378/1/6 388/1/6
f 383/1/6 384/1/6 389/1/6
f 389/1/6 384/1/6 390/1/6
f 371/1/6 372/1/6 391/1/6
f 391/1/6 372/1/6 392/1/6
f 379/1/6 380/1/6 393/1/6
f 393/1/6 380/1/6 394/1/6
f 381/1/6 382/1/6 395/1/6
f 395/1/6 382/1/6 396/1/6
f 397/1/6 398/1/6 399/1/6
f 399/1/6 398/1/6 400/1/6
f 401/1/6 402/1/6 406/1/6
f 403/1/6 404/1/6 407/1/6
f 405/1/6 406/1/6 409/1/6
f 406/1/6 402/1/6 410/1/6
f 409/1/6 406/1/6 410/1/6
f 407/1/6 408/1/6 411/1/6
f 403/1/6 407/1/6 411/1/6
f 411/1/6 408/1/6 412/1/6
f 405/1/6 409/1/6 413/1/6
f 412/1/6 408/1/6 416/1/6
f 413/1/6 414/1/6 417/1/6
f 405/1/6 413/1/6 417/1/6
f 417/1/6 414/1/6 418/1/6
f 415/1/6 416/1/6 419/1/6
f 416/1/6 408/1/6 420/1/6
f 419/1/6 416/1/6 420/1/6
f 418/1/6 414/1/6 421/1/6
f 415/1/6 419/1/6 422/1/6
f 418/1/6 421/1/6 423/1/6
f 421/1/6 422/1/6 423/1/6
f 422/1/6 419/1/6 424/1/6
f 423/1/6 422/1/6 424/1/6
f 425/2/6 426/2/6 429/2/6
f 429/2/6 426/2/6 430/2/6
f 427/2/6 428/2/6 431/2/6
f 431/2/6 428/2/6 432/2/6
f 425/2/6 429/2/6 433/2/6
f 432/2/6 428/2/6 436/2/6
f 433/2/6 434/2/6 437/2/6
f 435/2/6 436/2/6 438/2/6
f 433/2/6 437/2/6 439/2/6
f 437/2/6 438/2/6 439/2/6
f 425/2/6 433/2/6 439/2/6
f 438/2/6 436/2/6 440/2/6
f 439/2/6 438/2/6 440/2/6
f 436/2/6 428/2/6 440/2/6
