# MagicaVoxel @ Ephtracy

# group
o 

# material
mtllib boxPlayer2.mtl
usemtl palette

# normals
vn -1 0 0
vn 1 0 0
vn 0 0 1
vn 0 0 -1
vn 0 -1 0
vn 0 1 0

# texcoords
vt 0.306641 0.5
vt 0.994141 0.5

# verts
v -2 0 2
v -2 0 -2
v -2 4 2
v -2 4 -2
v 2 0 2
v 2 0 -2
v 2 4 2
v 2 4 -2
v -2 0 2
v -2 4 2
v 2 0 2
v 2 4 2
v -2 0 -2
v -2 4 -2
v -0.9 2.8 -2
v -0.9 3.5 -2
v -0.6 2.8 -2
v -0.6 3.5 -2
v 0.7 2.8 -2
v 0.7 3.5 -2
v 1 2.8 -2
v 1 3.5 -2
v 2 0 -2
v 2 4 -2
v -2 0 2
v 2 0 2
v -2 0 -2
v 2 0 -2
v -2 4 2
v 2 4 2
v -2 4 -2
v 2 4 -2

# faces
f 3/1/1 2/1/1 1/1/1
f 4/1/1 2/1/1 3/1/1
f 5/1/2 6/1/2 7/1/2
f 7/1/2 6/1/2 8/1/2
f 11/1/3 10/1/3 9/1/3
f 12/1/3 10/1/3 11/1/3
f 13/1/4 14/1/4 15/1/4
f 15/1/4 14/1/4 16/1/4
f 13/1/4 15/1/4 17/1/4
f 15/2/4 16/2/4 17/2/4
f 16/1/4 14/1/4 18/1/4
f 17/2/4 16/2/4 18/2/4
f 13/1/4 17/1/4 19/1/4
f 17/1/4 18/1/4 19/1/4
f 18/1/4 14/1/4 20/1/4
f 19/1/4 18/1/4 20/1/4
f 13/1/4 19/1/4 21/1/4
f 19/2/4 20/2/4 21/2/4
f 20/1/4 14/1/4 22/1/4
f 21/2/4 20/2/4 22/2/4
f 13/1/4 21/1/4 23/1/4
f 21/1/4 22/1/4 23/1/4
f 22/1/4 14/1/4 24/1/4
f 23/1/4 22/1/4 24/1/4
f 27/1/5 26/1/5 25/1/5
f 28/1/5 26/1/5 27/1/5
f 29/1/6 30/1/6 31/1/6
f 31/1/6 30/1/6 32/1/6
